<svg id="career" xmlns="http://www.w3.org/2000/svg" width="2644.846" height="1406.648" viewBox="0 0 2644.846 1406.648">
  <g id="Group_30368" data-name="Group 30368" transform="translate(0)">
    <g id="Group_30367" data-name="Group 30367">
      <path id="Path_30320" data-name="Path 30320" d="M2524.669,1718.79s361.5-384.185,108.015-742.558c-94.588-133.725-336.068-208.818-558.048-147.9-131.116,35.984-329.968,30.675-524.265-286.5C1285.4,109.288,185.469,305.967,400.17,1063.806c90.437,319.22-246.643,333.75-79.675,655.666Z" transform="translate(-185.47 -315.982)" fill="#ebf3fa" opacity="0.34"/>
      <g id="Group_30344" data-name="Group 30344" transform="translate(171.996 320.042)">
        <g id="Group_30343" data-name="Group 30343" transform="translate(210.1 134.564)">
          <path id="Path_30321" data-name="Path 30321" d="M329.806,949.173l787.423,658.752,414.3-352.936c77.542,68.284,197.3,173.678,317.775,279.44,82.332,72.281,148.989,130.683,203.017,177.946l376.294-.436c-104.35-88.843-524.5-458.054-807.559-707.573l-86.549-76.29L1115.7,1284.854,500.986,770.588Z" transform="translate(-329.806 -770.588)" fill="#d5e5fb"/>
        </g>
        <path id="Path_30322" data-name="Path 30322" d="M2638.71,689.575,2263.69,1065.74,2157.75,636.024Z" transform="translate(-2157.75 -636.024)" fill="#d5e5fb"/>
      </g>
      <g id="Group_30358" data-name="Group 30358" transform="translate(1558.558 863.933)">
        <g id="Group_30352" data-name="Group 30352" transform="translate(24.952)">
          <g id="Group_30350" data-name="Group 30350" transform="translate(0)">
            <path id="Path_30323" data-name="Path 30323" d="M853.227,1482.18c1.4-34.444,4.419-64.406,8.033-85.3,5.76-33.308,10.946-52.471,11.006-52.674.759-2.93,11.72-14.781,36.092-14.416s22.06,15.909,22.06,15.909h0a5.043,5.043,0,0,1-.174,1.381c-.235.8-22.607,81.918-21.638,186.65.014,1.471.179,4.013.074,5.7,0,.009-56.477,1.459-56.491,0C850.218,1530.28,851.179,1504.92,853.227,1482.18Z" transform="translate(-554.391 -1179.914)" fill="#b7d3f3"/>
            <path id="Path_30324" data-name="Path 30324" d="M858.573,1533.21c.017,1.459.787,2.628,1.727,2.628h.022c.939-.022,1.687-1.191,1.7-2.628h48.4c.017,1.459.788,2.628,1.727,2.628h.023c.956-.022,1.715-1.229,1.7-2.7a730.847,730.847,0,0,1,4.016-82.685c6.434-61.618,18.329-102.8,18.5-103.371a5.133,5.133,0,0,0,.174-1.383s2.312-15.542-22.058-15.909-35.336,11.487-36.1,14.417c-.045.153-2.981,11.005-6.884,30.513-1.293,6.463-2.688,13.874-4.122,22.158-3.61,20.9-6.631,50.86-8.031,85.3C857.324,1504.92,856.6,1524.06,858.573,1533.21Z" transform="translate(-566.837 -1179.914)" fill="#d2e3fc"/>
            <path id="Path_30325" data-name="Path 30325" d="M1066.335,1535.84H876.577s4.419-17.883,114.315-15.22C1068.663,1522.51,1066.335,1535.84,1066.335,1535.84Z" transform="translate(-715.721 -1179.914)" fill="#c5dcf8"/>
            <g id="Group_30345" data-name="Group 30345" transform="translate(333.891 358.702)">
              <path id="Path_30326" data-name="Path 30326" d="M893.306,1722.63c-22-111.381-16.344-179.728-16.316-180.589.056-1.715-3.1-3.272-4.8-3.327-1.721-.031-9.315-.507-10.194.961-1.151,1.922-5.581,86.132,27.209,182.955Z" transform="translate(-861.139 -1538.616)" fill="#b7d3f3"/>
            </g>
            <g id="Group_30346" data-name="Group 30346" transform="translate(188.887 358.702)">
              <path id="Path_30327" data-name="Path 30327" d="M1006.143,1722.63c22-111.381,16.344-179.728,16.316-180.589-.056-1.715,3.1-3.272,4.8-3.327,1.722-.031,9.315-.507,10.194.961,1.151,1.922,5.582,86.132-27.209,182.955Z" transform="translate(-1006.143 -1538.616)" fill="#b7d3f3"/>
            </g>
            <g id="Group_30347" data-name="Group 30347" transform="translate(153.767 358.702)">
              <path id="Path_30328" data-name="Path 30328" d="M1041.262,1722.63c22-111.381,16.344-179.728,16.316-180.589-.055-1.715,3.1-3.272,4.805-3.327,1.722-.031,9.316-.507,10.194.961,1.151,1.922,5.582,86.132-27.209,182.955Z" transform="translate(-1041.262 -1538.616)" fill="#b7d3f3"/>
            </g>
            <g id="Group_30348" data-name="Group 30348" transform="translate(298.543 358.702)">
              <path id="Path_30329" data-name="Path 30329" d="M928.655,1722.63c-22-111.381-16.344-179.728-16.316-180.589.055-1.715-3.106-3.272-4.8-3.327-1.722-.031-9.316-.507-10.194.961-1.151,1.922-5.582,86.132,27.209,182.955Z" transform="translate(-896.487 -1538.616)" fill="#b7d3f3"/>
            </g>
            <path id="Path_30330" data-name="Path 30330" d="M876.7,1541.55h189.754a3.9,3.9,0,0,0,3.887-3.887v-2.555a3.9,3.9,0,0,0-3.887-3.888H876.7a3.9,3.9,0,0,0-3.887,3.888v2.555A3.9,3.9,0,0,0,876.7,1541.55Z" transform="translate(-715.953 -1179.914)" fill="#b7d3f3"/>
            <g id="Group_30349" data-name="Group 30349" transform="translate(0)">
              <path id="Path_30331" data-name="Path 30331" d="M1115.68,1370.18l-63.077-13.662-3.715,9.055s69.6,41.414,76.12,39.386S1115.68,1370.18,1115.68,1370.18Z" transform="translate(-948.272 -1179.914)" fill="#ffb27d"/>
              <path id="Path_30332" data-name="Path 30332" d="M1051.548,1655.45a5.6,5.6,0,0,1,1,5.994.045.045,0,0,1-.015.03c-1.446,3.995-6.223,8.458-11.772,12.913-.708.572-1.339,1.093-1.889,1.575-.144.126-.289.253-.424.38-.112.1-.219.2-.327.3-5.174,4.77-3.227,5.862-12.523,15.541-10.6,11.028-17.9,11.228-19.974,10.223-1.756-.856,1.812-6.706,5.766-13.28.192-.316.379-.638.576-.958.526-.874,1.05-1.762,1.572-2.64,4.634-7.913,3.444-11.625,2.346-23.4-.893-9.568-14.886-53.457-14.886-53.457l20.313-3.5s6.117,34.948,12.857,40.33c3.6,2.869,7.638,2.905,11.1,5.031q.367.222.721.456A27.039,27.039,0,0,1,1051.548,1655.45Z" transform="translate(-826.79 -1179.914)" fill="#ffb27d"/>
              <path id="Path_30333" data-name="Path 30333" d="M1047.381,1655.45a5.6,5.6,0,0,1,1,5.994.045.045,0,0,1-.015.03c-1.771,3.991-6.428,8.431-11.791,12.872-.7.582-1.319,1.116-1.87,1.616-.144.126-.289.253-.424.38-.112.1-.219.2-.327.3-5.174,4.77-3.227,5.862-12.523,15.541-10.6,11.028-17.9,11.228-19.974,10.223-1.756-.856,1.812-6.706,5.766-13.28a45.158,45.158,0,0,0,18.894-13.922c6.383-8.145,10.639-18.609,14.985-24.671q.368.222.721.456A27.012,27.012,0,0,1,1047.381,1655.45Z" transform="translate(-822.624 -1179.914)" fill="#1c468a"/>
              <path id="Path_30334" data-name="Path 30334" d="M1210.948,1642.77c-1.254,6.27-10.191,5.224-20.177,2.783s-7.612.461-21.823-1.112-18.516-6.872-18.949-8.985c-.388-1.875,6.634-2.536,14.166-3.4.947-.106,1.9-.224,2.85-.341,8.5-1.066,14.731-6.555,22.455-11.061,7.316-4.269,18.235-21.66,18.235-21.66l19.489,1.544s-10.227,15.533-14.183,22.287c-2.327,3.972-2.2,9.225-1.913,13.281A25.252,25.252,0,0,1,1210.948,1642.77Z" transform="translate(-1149.981 -1179.914)" fill="#ffb27d"/>
              <path id="Path_30335" data-name="Path 30335" d="M1206.722,1645.55c-9.985-2.439-7.612.461-21.823-1.112s-18.516-6.872-18.949-8.985c-.388-1.875,6.634-2.536,14.166-3.4l.07.145a40.062,40.062,0,0,0,20.352,6.326c9.642.234,19.854-2.528,26.512-2.42a25.078,25.078,0,0,1-.15,6.667C1225.652,1649.04,1216.712,1647.99,1206.722,1645.55Z" transform="translate(-1165.934 -1179.914)" fill="#1c468a"/>
              <path id="Path_30336" data-name="Path 30336" d="M1155.568,1356.52s-4.643-11.376-9.751-11.841-21.36-3.019-22.521-.7,0,10.68,3.482,13.7,25.074,7.894,25.074,7.894Z" transform="translate(-1051.23 -1179.914)" fill="#ffb27d"/>
              <path id="Path_30337" data-name="Path 30337" d="M1024.682,1518.15l42,113.038a38.446,38.446,0,0,0,12.639-1.158c5.693-1.64,12.216-5.948,12.216-5.948s-10.419-108.537-29.522-131.112S1024.682,1518.15,1024.682,1518.15Z" transform="translate(-889.025 -1179.914)" fill="#163560"/>
              <path id="Path_30338" data-name="Path 30338" d="M1157.506,1472.42s-120.692-40.81-147.609-32.127S902.162,1609.77,902.162,1609.77s1.822,2.426,6.8,4.294c4.631,1.736,15.841,1.625,15.841,1.625s72.937-62.518,81.619-80.751,12.156-35.6,20.839-33.864,112.01,42.547,135.454,18.234,17.313-55.9,17.313-55.9Z" transform="translate(-855.718 -1179.914)" fill="#1c468a"/>
              <path id="Path_30339" data-name="Path 30339" d="M910.414,1184.65c5.217-2.965,11.469-3.289,15.842-3.03a7.412,7.412,0,0,0-3.341-1.586c2.712-.4,8.764,2.286,8.764,2.286,37.72-14.534,43.649,41.006,42.856,53.909s-.882,27.754,17.947,39.326c37.049,22.77,5.789,62.521,5.789,62.521-.292.172-17.238,28.914-17.238,28.914.952-10.428-47.159-65.453-72.259-81.933-6.11-8.995-8.282-24.887-8.444-26.138,1.055,12.6,3.21,19.668,5.137,23.647C884.211,1263.01,896.591,1192.51,910.414,1184.65Z" transform="translate(-677.433 -1179.914)" fill="#b5453c"/>
              <path id="Path_30340" data-name="Path 30340" d="M958.835,1285.88c-.125.057,12.119,6.414,21.33,3.9,8.664-2.362,14.324-13.6,14.205-13.621-3.669-.729-4.727-5.771-4.649-27.437l-1.659.326-27.889,5.522s.634,8.777.653,17.045C960.846,1278.55,960.425,1285.14,958.835,1285.88Z" transform="translate(-726.009 -1179.914)" fill="#ffb27d"/>
              <path id="Path_30341" data-name="Path 30341" d="M965.145,1254.56s.634,8.777.653,17.045c15.606-.439,23.855-14.676,27.235-22.567Z" transform="translate(-730.981 -1179.914)" fill="#ed975d"/>
              <path id="Path_30342" data-name="Path 30342" d="M1000.216,1246.01s8.179-12.922,10.142-23.972c1.4-7.889-2.617-37.13-32-32.919a39.916,39.916,0,0,0-16.557,6.26c-6.38,4.309-15.587,13.611-5.293,39.128l2.674,8.62Z" transform="translate(-735.282 -1179.914)" fill="#b5453c"/>
              <path id="Path_30343" data-name="Path 30343" d="M973.179,1262.4s36.924.608,36.95-22.392,4.808-38.412-18.766-39.773-28.164,7.41-30.04,15.085S963.574,1261.64,973.179,1262.4Z" transform="translate(-744.227 -1179.914)" fill="#ffb27d"/>
              <path id="Path_30344" data-name="Path 30344" d="M949.008,1199.67s10.11,26.984,25.625,30.974,22.245-.167,22.245-.167a43.937,43.937,0,0,1-14.371-25.957S956.634,1186.82,949.008,1199.67Z" transform="translate(-718.688 -1179.914)" fill="#b5453c"/>
              <path id="Path_30345" data-name="Path 30345" d="M1013.069,1201.86s-7.55,6.023-9.391,11.881-2.668,17.914-6.183,17.5c0,0-7.617-18.341.943-28.716C1007.516,1191.52,1013.069,1201.86,1013.069,1201.86Z" transform="translate(-780.245 -1179.914)" fill="#b5453c"/>
              <path id="Path_30346" data-name="Path 30346" d="M1051.276,1385.21c3.641-15.271-8.747-44.9-21.679-69.438-11.734-22.235-23.914-40.273-25.008-39.625-30.947,18.368-33.744,3.1-33.744,3.1v0c-.012,0-28.113,3.73-36.071,17.432-9.873,17-20.541,64.505-31.135,73.5,1.627,4.979.929,7.632-.8,13.8-.371,1.323-.777,2.581-1.227,3.771a72.635,72.635,0,0,1-5.319,10.923c5.386,3.272,15.786,9.5,23.449,5.021,11.682-6.837,20.795-27.65,25.926-35.938l.057-.093c11.149,63.112-4.011,77.485,3.664,84.14,8.1,7.027,19.683-3.346,45.154,7.693,16.707,7.248,39.891,17.726,55.5,19.549,8.185.961,14.293-.463,16.284-5.991C1072.116,1456.99,1044.329,1414.33,1051.276,1385.21Z" transform="translate(-736.228 -1179.914)" fill="#1c468a"/>
              <path id="Path_30347" data-name="Path 30347" d="M1003.914,1248.45s-.688,2.922-7.957,2.472c0,0-6.1-.377-5.917-3.589C990.04,1247.33,995.958,1245.05,1003.914,1248.45Z" transform="translate(-766.753 -1179.914)" fill="#fff"/>
              <path id="Path_30348" data-name="Path 30348" d="M969.532,1473.06c-1.991,5.528-8.1,6.952-16.284,5.991-10.8-4.706-57.467-22.785-56.945-35.034.775-18.137,8.973-18.716,3.184-41.1-4.648-17.975,38.469-51.4,45.347-58.661,12.932,24.533,13.289,25.692,9.648,40.964C947.534,1414.33,975.321,1456.99,969.532,1473.06Z" transform="translate(-639.432 -1179.914)" fill="#163560"/>
              <path id="Path_30349" data-name="Path 30349" d="M955.117,1407.64c-8.275-11.621-16.9-17.766-22.568-20.855,1.3-3.364-34.809-47.639-34.809-54.5,0-6.946-9.636-56.139-9.636-56.139s30.091,1.858,40.51,16.388C941.645,1310.71,968.706,1380.64,955.117,1407.64Z" transform="translate(-619.743 -1179.914)" fill="#1c468a"/>
              <path id="Path_30350" data-name="Path 30350" d="M951.57,1386.79l-60.134,15.69,5.644,10.131s73.18-.511,77.057-4.966S951.57,1386.79,951.57,1386.79Z" transform="translate(-638.763 -1179.914)" fill="#ffb27d"/>
              <path id="Path_30351" data-name="Path 30351" d="M1067.125,1367.76c-5.13,8.288-14.244,29.1-25.926,35.938-7.663,4.475-18.063-1.749-23.449-5.021a72.635,72.635,0,0,0,5.319-10.923c4.3.983,9.544,2.24,12.926,3.261C1042.575,1393,1067.125,1367.76,1067.125,1367.76Z" transform="translate(-857.678 -1179.914)" fill="#163560"/>
              <path id="Path_30352" data-name="Path 30352" d="M1010.21,1402.48s-18.883-5.344-23.381-4.095-19.909,11.454-17.743,14.226,15.744-1.659,21.991-.82,11.079,3.921,15.577,3.255a52.234,52.234,0,0,0,9.2-2.435Z" transform="translate(-757.537 -1179.914)" fill="#ffb27d"/>
              <path id="Path_30353" data-name="Path 30353" d="M988.117,1402.48s-9.239-4.747-11.867-7.448a.736.736,0,0,0-1.148.132c-.7,1.111-1.363,3.256,1.878,5.388C981.644,1403.62,988.117,1402.48,988.117,1402.48Z" transform="translate(-735.443 -1179.914)" fill="#ffb27d"/>
            </g>
          </g>
          <g id="Group_30351" data-name="Group 30351" transform="translate(27.437 153.176)">
            <path id="Path_30354" data-name="Path 30354" d="M973.689,1429.05h88.1a7.022,7.022,0,0,0-7.023-7.023H973.689Z" transform="translate(-835.719 -1333.09)" fill="#ed7d2b"/>
            <path id="Path_30355" data-name="Path 30355" d="M1164.19,1333.09H1027.98l32.67,95.96h137.1Z" transform="translate(-1025.97 -1333.09)" fill="#ed7d2b"/>
            <path id="Path_30356" data-name="Path 30356" d="M1029.99,1333.1l32.68,95.94h137.09l-33.56-95.94Z" transform="translate(-1029.99 -1333.09)" fill="#f99746"/>
            <path id="Path_30357" data-name="Path 30357" d="M1113.046,1380.18a8.856,8.856,0,0,0,8.17,6.638c3.666,0,5.952-2.972,5.1-6.638a8.855,8.855,0,0,0-8.17-6.638C1114.485,1373.542,1112.2,1376.52,1113.046,1380.18Z" transform="translate(-1039.606 -1333.09)" fill="#f9ddbf"/>
            <path id="Path_30358" data-name="Path 30358" d="M1076.295,1333.1l32.676,95.947h90.789c-60.141-20.527-76.15-83.116-78.835-95.947Z" transform="translate(-1076.295 -1333.09)" fill="#ed893e"/>
          </g>
        </g>
        <g id="Group_30357" data-name="Group 30357" transform="translate(0 249.115)">
          <g id="Group_30354" data-name="Group 30354" transform="translate(395.744 14.811)">
            <g id="Group_30353" data-name="Group 30353" transform="translate(0.001)">
              <path id="Path_30359" data-name="Path 30359" d="M853.89,1722.63a3.519,3.519,0,0,1-3.49-2.862L833.292,1622.8l-24.607-139.461-6.881-39,17.527-.5,3.041,22.639,21.352,159.091,12.659,94.3A2.472,2.472,0,0,1,853.89,1722.63Z" transform="translate(-801.804 -1443.84)" fill="#95c0f4"/>
            </g>
            <path id="Path_30360" data-name="Path 30360" d="M856.405,1466.48c-11.356,5.011-13.687,16.859-13.687,16.859l-6.881-39,17.527-.5Z" transform="translate(-835.837 -1443.84)" fill="#78acea"/>
          </g>
          <g id="Group_30356" data-name="Group 30356" transform="translate(9.376 14.811)">
            <g id="Group_30355" data-name="Group 30355" transform="translate(0)">
              <path id="Path_30361" data-name="Path 30361" d="M1190.686,1722.63a3.521,3.521,0,0,0,3.491-2.862l17.107-96.969,24.608-139.461,6.881-39-17.527-.5-3.041,22.639-21.352,159.091-12.658,94.3A2.466,2.466,0,0,0,1190.686,1722.63Z" transform="translate(-1188.173 -1443.84)" fill="#95c0f4"/>
            </g>
            <path id="Path_30362" data-name="Path 30362" d="M1188.172,1466.48c11.355,5.011,13.687,16.859,13.687,16.859l6.881-39-17.527-.5Z" transform="translate(-1154.139 -1443.84)" fill="#78acea"/>
          </g>
          <path id="Path_30363" data-name="Path 30363" d="M1241.459,1459.65H792.625a10.722,10.722,0,0,1-10.691-10.69v-9.24a10.723,10.723,0,0,1,10.691-10.691h448.834a10.722,10.722,0,0,1,10.69,10.691v9.24A10.721,10.721,0,0,1,1241.459,1459.65Z" transform="translate(-781.934 -1429.029)" fill="#78acea"/>
        </g>
      </g>
      <path id="Path_30364" data-name="Path 30364" d="M168.858,1721.7H2807.711a3.006,3.006,0,0,0,3-3v-1.022a3.006,3.006,0,0,0-3-3H168.859a3.006,3.006,0,0,0-3,3v1.022A3,3,0,0,0,168.858,1721.7Z" transform="translate(-165.862 -315.982)" fill="#2e3552"/>
      <g id="Group_30360" data-name="Group 30360" transform="translate(706.547 815.64)">
        <path id="Path_30365" data-name="Path 30365" d="M1909.264,1412.71s11.644,14.444,8,16.412-13.259,5.652-15.526,3.33-2.979-19.341-2.979-19.341Z" transform="translate(-1712.574 -1131.622)" fill="#ffb27d"/>
        <path id="Path_30366" data-name="Path 30366" d="M1896.149,1412.95s4.761,1.651,6.634,4.127,6.014,6.252,5,7.3-6.961-3.577-6.961-3.577Z" transform="translate(-1699.93 -1131.622)" fill="#ffb27d"/>
        <path id="Path_30367" data-name="Path 30367" d="M1907.251,1219.88s13.124,122.168,14.293,125.649c.255.756,1.283,4.623,2.733,10.188,2.065,7.946,4.984,19.365,7.753,30.221,4.176,16.4,8.008,31.54,8.008,31.54l11.393-3.753s.589-59.37-2.338-73.039-12.307-97.67-17.045-108.974S1907.251,1219.88,1907.251,1219.88Z" transform="translate(-1754.572 -1131.622)" fill="#aec3ff"/>
        <g id="Group_30359" data-name="Group 30359" transform="translate(140.437 292.683)">
          <path id="Path_30368" data-name="Path 30368" d="M1869.635,1512.84l71.574-18.771a17.562,17.562,0,0,0,12.495-21.378l-8.135-31.018a17.561,17.561,0,0,0-21.379-12.495l-71.574,18.771a17.561,17.561,0,0,0-12.494,21.379l8.134,31.017A17.56,17.56,0,0,0,1869.635,1512.84Z" transform="translate(-1830.103 -1424.305)" fill="#a02e2e"/>
          <path id="Path_30369" data-name="Path 30369" d="M1954.922,1444.13l8.228,31.375a17.611,17.611,0,0,1-4.265,16.55,17.317,17.317,0,0,1-4.7,3.54l-.008,0h-.005a17.139,17.139,0,0,1-3.563,1.367L1879.16,1515.7a17.623,17.623,0,0,1-21.456-12.539l-8.232-31.378a17.63,17.63,0,0,1,12.544-21.458l24.6-6.45-1.756-6.693A5.8,5.8,0,0,1,1889,1430.1l2.7-.708,14.965-3.925,3.719-.974a5.8,5.8,0,0,1,7.08,4.136l1.757,6.693,14.25-3.74c.565-.148,1.125-.263,1.687-.354a.014.014,0,0,0,.014,0h0a17.637,17.637,0,0,1,15.3,5.067l0,0A17.354,17.354,0,0,1,1954.922,1444.13Zm-64.79-1.18,25.567-6.7-1.757-6.693a2.168,2.168,0,0,0-2.643-1.543l-6.42,1.684-11.779,3.086-3.178.835a2.228,2.228,0,0,0-.6.261,2.17,2.17,0,0,0-.949,2.384Z" transform="translate(-1848.9 -1424.305)" fill="#bc3f3f"/>
        </g>
        <path id="Path_30370" data-name="Path 30370" d="M1901.939,1432.77s-3.179-5.354-1.987-7.223,5.48,5.55,5.48,5.55-2.928-6.368-1.836-7.418,5.581,6.273,5.581,6.273-2.794-6.188-1.814-6.4,4.31,5.2,4.31,5.2-1.729-4.635-.15-4.412,5,4.449,5,4.449Z" transform="translate(-1712.05 -1131.622)" fill="#ffb27d"/>
        <path id="Path_30371" data-name="Path 30371" d="M1920.694,1355.71c2.065,7.946,4.984,19.365,7.753,30.221a117.433,117.433,0,0,0,5.485-23.962c2.638-20.218-5.468-63.29-5.468-63.29Z" transform="translate(-1750.995 -1131.622)" fill="#9db0f4"/>
        <path id="Path_30372" data-name="Path 30372" d="M2096.675,1407.68s-12.689,10.307-14.258,13.527-5.512,15.142-5.3,18.982,9.723-8.794,12.517-9.813-2.921,5.186-2.277,6.519,6.595-3.016,8.865-4.438,3.865-11.063,7.25-16.309S2096.675,1407.68,2096.675,1407.68Z" transform="translate(-2077.106 -1131.622)" fill="#ffb27d"/>
        <path id="Path_30373" data-name="Path 30373" d="M1983.094,1716.32H1919.83c-4.533-3.074,1.223-33.127,1.223-33.127s17.267-6.552,20.248,6.771,21.993,17.547,32.049,19.171C1980.234,1710.26,1982.414,1714.04,1983.094,1716.32Z" transform="translate(-1797.025 -1131.622)" fill="#233862"/>
        <path id="Path_30374" data-name="Path 30374" d="M2076.915,1716.32H2013.65c-4.533-3.074,1.223-33.127,1.223-33.127s17.267-6.552,20.249,6.771,21.992,17.547,32.049,19.171C2074.045,1710.26,2076.225,1714.04,2076.915,1716.32Z" transform="translate(-1984.666 -1131.622)" fill="#233862"/>
        <path id="Path_30375" data-name="Path 30375" d="M2014.562,1409.73s-2.844,35.478-6.187,78.124c-4.542,57.932-16.794,201.563-16.794,201.563s-8.032,6.854-25.824,3.1c0,0-15.144-49.551-19.673-106.1-.07-.927-.141-1.861-.21-2.8-4.213-57.572-10.764-178.807-10.764-178.807Z" transform="translate(-1845.513 -1131.622)" fill="#2b478b"/>
        <path id="Path_30376" data-name="Path 30376" d="M2014.561,1397.47s-3.813,47.736-7.156,90.383l-62.291,98.563c-.07-.927-.141-1.861-.21-2.8-4.213-57.572-10.764-178.807-10.764-178.807Z" transform="translate(-1844.542 -1131.622)" fill="#233862"/>
        <path id="Path_30377" data-name="Path 30377" d="M2077.1,1397.47s-45.178,112.456-59.62,155.084c-10.288,30.365-39.3,136.885-39.3,136.885s-12.617,3.84-23.221-3.582c0,0-10.793-108.828,11.01-139.515,11.568-16.28,2.875-169.237,49.776-170.547S2077.1,1397.47,2077.1,1397.47Z" transform="translate(-1925.234 -1131.622)" fill="#2b478b"/>
        <path id="Path_30378" data-name="Path 30378" d="M1930.595,1407.68c18.838,10.627,99.541,10.39,103.277,2.048,8.351-18.627,10.443-113.281,6.505-142.315,0,0-2.039-44.62-6.505-42.65-29.808-13.695-78.058-1.258-78.058-1.258-13.01,3.833-11.894,33.562-15.524,75.308-.466,5.38-.984,10.987-1.564,16.78-2.566,25.782-6.3,55.4-11.981,86.638C1926.375,1404.29,1927.8,1406.11,1930.595,1407.68Z" transform="translate(-1864.825 -1131.622)" fill="#aec3ff"/>
        <path id="Path_30379" data-name="Path 30379" d="M1958.664,1218.49c.5,7.981,10.908,7.076,23.426,4.219s7.981-10.231,7.981-10.231-.185-5.67-.976-12.465c-.29-2.47-.65-5.1-1.125-7.647-.22-1.248-.466-2.479-.747-3.666-1.635-7.023-25-.246-24.833,1.645C1962.844,1195.44,1959.154,1212.22,1958.664,1218.49Z" transform="translate(-1845.375 -1131.622)" fill="#ffb27d"/>
        <path id="Path_30380" data-name="Path 30380" d="M1975.92,1232.42l.99-11.03-13.85,2.62,5.33,9.84Z" transform="translate(-1835.811 -1131.622)" fill="#233862"/>
        <path id="Path_30381" data-name="Path 30381" d="M1961.707,1207.29l8.278,12.59a18.318,18.318,0,0,1-7.184,13.364l-11.319-10.541C1951.477,1222.7,1958.8,1219.91,1961.707,1207.29Z" transform="translate(-1817.308 -1131.622)" fill="#9db0f4"/>
        <path id="Path_30382" data-name="Path 30382" d="M1998.756,1222.7s-2.349,8.418-6.879,12.281c0,0-17.675-4.752-21.887-13.807l9.2-11.884S1979.646,1218.28,1998.756,1222.7Z" transform="translate(-1864.587 -1131.622)" fill="#9db0f4"/>
        <path id="Path_30383" data-name="Path 30383" d="M1960.444,1194.31a43.371,43.371,0,0,0,26.836,5.7c-.29-2.47-.65-5.1-1.125-7.647-3.076-.747-5.652-1.213-5.652-1.213Z" transform="translate(-1843.565 -1131.622)" fill="#e2915a"/>
        <path id="Path_30384" data-name="Path 30384" d="M1961.349,1185.81c5.5,15.135,25.564,11.271,34.109,8.841,2.406-.681,3.9-1.249,3.9-1.249,2.641-1.2,3.458-5.807,3.227-11.627-.455-11.52-5.005-27.783-7.615-31.7-3.929-5.9-10.479-11.893-29.944-3.543S1954.3,1166.42,1961.349,1185.81Z" transform="translate(-1851.609 -1131.622)" fill="#ffb27d"/>
        <path id="Path_30385" data-name="Path 30385" d="M1958.983,1178.04c6.145,5.011,19.343,14.284,19.343,14.284s-1.471-1.736-3.265-6.738a6.64,6.64,0,0,1-.241-2.281,12.578,12.578,0,0,0-1.8-6.99c-.805-1.306-1.1-2.66-.079-3.619,1.669-1.579,4.517-.129,6.383,1.149a3.768,3.768,0,0,0,4.115.1l.024-.015c5.248-3.287-.545-9.08,3.718-13.889s22.732-5.468,21.994-8.482c6.3-3.561,2.329-16.7,2.215-17.4a68.128,68.128,0,0,1-20.341-2.021c-9.168-2.3-19.277,3.587-22.477,6.013a5.14,5.14,0,0,1,.51-2.241,4.75,4.75,0,0,0-1.363,2.971c-.141.141-.2.237-.158.264a6.09,6.09,0,0,0-2.892.668s.782-.246,1.151.22a.548.548,0,0,0,.158.123C1953.7,1148.83,1953.883,1173.87,1958.983,1178.04Z" transform="translate(-1864.274 -1131.622)" fill="#233862"/>
        <path id="Path_30386" data-name="Path 30386" d="M1955.9,1183.62s.987,1.906,5.948.325c0,0,4.166-1.326,3.477-3.521C1965.328,1180.43,1960.828,1179.87,1955.9,1183.62Z" transform="translate(-1817.139 -1131.622)" fill="#fff"/>
        <path id="Path_30387" data-name="Path 30387" d="M1966.333,1232.42s11.053,139.684,10.9,151.321-12.247,23.945-12.247,23.945-9.637-10.549-11.518-21.684,5.331-152.15,5.331-152.15Z" transform="translate(-1826.223 -1131.622)" fill="#2a4e96"/>
        <path id="Path_30388" data-name="Path 30388" d="M2088.458,1223.51s-17.845,4.271-31.951,31.37-25.25,81.754-31.984,96.181-11.353,59.855-11.353,59.855l10.663,5.233s25.746-46.561,29.555-61.83c2.062-8.261,33.541-74.392,33.541-74.392Z" transform="translate(-1997.469 -1131.622)" fill="#aec3ff"/>
        <path id="Path_30389" data-name="Path 30389" d="M2017.638,1407.68h.018c33.6-4.835,23.971-116.032,21.334-116.473s-12.3,19.875-12.3,19.875l-.923,4.51c-2.566,25.782-6.3,55.4-11.981,86.638C2013.418,1404.29,2014.848,1406.11,2017.638,1407.68Z" transform="translate(-1951.869 -1131.622)" fill="#9db0f4"/>
      </g>
      <g id="Group_30363" data-name="Group 30363" transform="translate(271.861 564.644)">
        <g id="Group_30361" data-name="Group 30361" transform="translate(69.652 365.353)">
          <path id="Path_30390" data-name="Path 30390" d="M2418.512,1650.59s-13.989,12.767-11.26,21.838,15.354,15.118,17.061,26.2,8.529,17.134,14.672,17.134h29.28s4.521-7.8-6.4-10.153-15.035-15.38-14.354-27.475-1.023-28.221-1.023-28.221l-23.2-5.376Z" transform="translate(-2406.899 -1245.979)" fill="#233862"/>
          <path id="Path_30391" data-name="Path 30391" d="M2204.238,1683.61s-2.511,29.055,3.631,32.078l78.6-.161s0-9.071-12.625-11.087-34.8-9.407-38.556-25.869S2204.238,1683.61,2204.238,1683.61Z" transform="translate(-2021.005 -1245.979)" fill="#233862"/>
          <path id="Path_30392" data-name="Path 30392" d="M2335.43,1273.2s-4.146,50.929-9.019,112.148c-6.622,83.16-14.586,185.311-15.374,204.662-1.361,33.6-6.827,87.354-6.827,87.354s-12.959,12.771-38.9,7.388c0,0-23.112-76.73-29.715-157.916-.1-1.33-.205-2.671-.307-4.012-6.142-82.646-15.691-256.68-15.691-256.68Z" transform="translate(-2085.837 -1245.979)" fill="#2a4e96"/>
          <path id="Path_30393" data-name="Path 30393" d="M2335.43,1273.2s-4.146,50.929-9.019,112.148L2235.6,1526.835c-.1-1.33-.205-2.671-.307-4.012-6.142-82.646-15.691-256.68-15.691-256.68Z" transform="translate(-2085.837 -1245.979)" fill="#233862"/>
          <path id="Path_30394" data-name="Path 30394" d="M2457.581,1279.24s-74.723,184.444-123.855,271.123-64.487,110.868-64.487,110.868-28.148-11.087-30.708-18.646c0,0,18.789-167.338,51.692-208.13,18.592-23.05,34.628-74.188,33.824-98.386-1.385-41.731,14.285-90.09,14.285-90.09Z" transform="translate(-2226.917 -1245.979)" fill="#2a4e96"/>
        </g>
        <path id="Path_30395" data-name="Path 30395" d="M2175.327,1281.95s13.952,18.892,14.979,23.934,2.233,23.042.563,28.311-10.368-15.723-13.89-18.143,2.2,8.262.829,9.886-8.092-6.563-10.739-9.356-1.406-16.776-4.231-25.288S2175.327,1281.95,2175.327,1281.95Z" transform="translate(-1815.342 -880.626)" fill="#ffb27d"/>
        <path id="Path_30396" data-name="Path 30396" d="M2175.385,1007.42s18.854,175.508,20.533,180.509c.366,1.086,1.845,6.643,3.928,14.636,2.968,11.416,7.16,27.82,11.138,43.416,6,23.564,12.481,43.941,12.481,43.941s2.847,1.842,9.714,1.256a10.263,10.263,0,0,0,7.211-4.4s-.689-86.17-4.9-105.807-17.68-140.313-24.486-156.554S2175.385,1007.42,2175.385,1007.42Z" transform="translate(-1876.929 -880.626)" fill="#fff"/>
        <path id="Path_30397" data-name="Path 30397" d="M2196.153,1202.57c2.968,11.416,7.16,27.82,11.138,43.416a168.827,168.827,0,0,0,7.881-34.425c3.788-29.045-7.855-90.924-7.855-90.924Z" transform="translate(-1873.237 -880.626)" fill="#dceaff"/>
        <path id="Path_30398" data-name="Path 30398" d="M2210.373,1277.23c27.063,15.268,143,14.928,148.37,2.943,12-26.76,15-162.741,9.345-204.453,0,0-2.93-64.1-9.345-61.273-42.822-19.675-112.14-1.806-112.14-1.806-18.689,5.506-17.085,48.215-22.3,108.187-.669,7.729-1.414,15.786-2.247,24.108-3.688,37.038-9.055,79.583-17.212,124.464C2204.293,1272.35,2206.353,1274.97,2210.373,1277.23Z" transform="translate(-2036.757 -880.626)" fill="#fff"/>
        <path id="Path_30399" data-name="Path 30399" d="M2250.713,1005.43c.719,11.467,15.671,10.166,33.654,6.063s11.466-14.7,11.466-14.7-.265-8.146-1.4-17.907c-.417-3.548-.935-7.324-1.616-10.986-.315-1.793-.67-3.561-1.073-5.266-2.35-10.09-35.915-.354-35.676,2.361C2256.723,972.317,2251.423,996.424,2250.713,1005.43Z" transform="translate(-2008.848 -880.626)" fill="#ffb27d"/>
        <path id="Path_30400" data-name="Path 30400" d="M2275.5,1025.44l1.42-15.84-19.9,3.75,7.66,14.14Z" transform="translate(-1995.094 -880.626)" fill="#233862"/>
        <path id="Path_30401" data-name="Path 30401" d="M2255.072,989.333l11.9,18.086a26.317,26.317,0,0,1-10.32,19.2l-16.262-15.143S2250.892,1007.47,2255.072,989.333Z" transform="translate(-1968.506 -880.626)" fill="#dceaff"/>
        <path id="Path_30402" data-name="Path 30402" d="M2308.3,1011.48s-3.374,12.093-9.883,17.643c0,0-25.392-6.827-31.442-19.835l13.225-17.072S2280.835,1005.13,2308.3,1011.48Z" transform="translate(-2036.42 -880.626)" fill="#dceaff"/>
        <path id="Path_30403" data-name="Path 30403" d="M2253.255,970.688a62.3,62.3,0,0,0,38.555,8.2c-.417-3.548-.935-7.324-1.616-10.986-4.42-1.074-8.12-1.743-8.12-1.743Z" transform="translate(-2006.22 -880.626)" fill="#e2915a"/>
        <path id="Path_30404" data-name="Path 30404" d="M2254.556,958.477c7.9,21.743,36.727,16.191,49,12.7,3.456-.977,5.6-1.795,5.6-1.795,3.794-1.721,4.969-8.342,4.636-16.7-.653-16.549-7.19-39.914-10.939-45.544-5.645-8.472-15.055-17.085-43.02-5.09S2244.426,930.62,2254.556,958.477Z" transform="translate(-2017.78 -880.626)" fill="#ffb27d"/>
        <path id="Path_30405" data-name="Path 30405" d="M2251.163,947.313c8.827,7.2,27.789,20.521,27.789,20.521s-2.113-2.494-4.69-9.68a9.55,9.55,0,0,1-.347-3.277,18.072,18.072,0,0,0-2.592-10.044c-1.155-1.875-1.573-3.821-.112-5.2,2.4-2.27,6.487-.186,9.169,1.651a5.418,5.418,0,0,0,5.913.151l.033-.022c7.539-4.723-.782-13.045,5.342-19.953s32.657-7.854,31.6-12.186c9.056-5.115,3.348-23.994,3.183-24.992a97.881,97.881,0,0,1-29.222-2.9c-13.171-3.309-27.693,5.152-32.29,8.638a7.4,7.4,0,0,1,.731-3.22,6.83,6.83,0,0,0-1.957,4.268c-.2.2-.29.341-.227.379a8.745,8.745,0,0,0-4.155.959s1.124-.354,1.654.316a.784.784,0,0,0,.228.177C2243.583,905.349,2243.843,941.327,2251.163,947.313Z" transform="translate(-2035.987 -880.626)" fill="#bc3f3f"/>
        <path id="Path_30406" data-name="Path 30406" d="M2246.73,955.335s1.418,2.738,8.545.467c0,0,5.985-1.906,4.994-5.058C2260.27,950.744,2253.81,949.952,2246.73,955.335Z" transform="translate(-1968.264 -880.626)" fill="#fff"/>
        <path id="Path_30407" data-name="Path 30407" d="M2261.719,1025.44s15.877,200.671,15.655,217.391-17.6,34.4-17.6,34.4-13.844-15.153-16.547-31.149,7.66-218.582,7.66-218.582Z" transform="translate(-1981.314 -880.626)" fill="#2a4e96"/>
        <path id="Path_30408" data-name="Path 30408" d="M2335.422,1277.23h.025c48.266-6.945,34.438-166.693,30.649-167.324s-17.667,28.553-17.667,28.553l-1.326,6.479c-3.688,37.038-9.055,79.583-17.212,124.464C2329.342,1272.35,2331.4,1274.97,2335.422,1277.23Z" transform="translate(-2161.807 -880.626)" fill="#dceaff"/>
        <g id="Group_30362" data-name="Group 30362" transform="translate(0 413.719)">
          <path id="Path_30409" data-name="Path 30409" d="M2378.125,1396.23l102.067,29.7a25.229,25.229,0,0,0,31.181-17.124l12.872-44.232a25.229,25.229,0,0,0-17.124-31.181l-102.067-29.7a25.23,25.23,0,0,0-31.182,17.123L2361,1365.049A25.227,25.227,0,0,0,2378.125,1396.23Z" transform="translate(-2346.4 -1294.345)" fill="#a02e2e"/>
          <path id="Path_30410" data-name="Path 30410" d="M2537.846,1360.63l-13.022,44.741a25.3,25.3,0,0,1-17.473,17.248,24.832,24.832,0,0,1-8.41.892h-.013l-.006,0a24.654,24.654,0,0,1-5.4-.944l-101.883-29.653a25.32,25.32,0,0,1-17.188-31.294l13.017-44.748a25.33,25.33,0,0,1,31.3-17.187l35.081,10.212,2.776-9.547a8.341,8.341,0,0,1,10.325-5.671l3.847,1.118,21.34,6.211,5.3,1.545a8.335,8.335,0,0,1,5.671,10.325l-2.776,9.546,20.324,5.909c.807.233,1.581.507,2.34.81a.023.023,0,0,0,.018.009h.006a25.337,25.337,0,0,1,15.11,17.536v.007A25.03,25.03,0,0,1,2537.846,1360.63Zm-78.98-49.29,36.457,10.614,2.776-9.546a3.115,3.115,0,0,0-2.118-3.853l-9.155-2.663L2470.031,1301l-4.532-1.315a3.128,3.128,0,0,0-3.859,2.116Z" transform="translate(-2373.45 -1294.345)" fill="#bc3f3f"/>
        </g>
        <path id="Path_30411" data-name="Path 30411" d="M2446.278,1282.78s3.165,26.466-2.768,26.086-20.454-3.227-21.445-7.783,11.119-25.82,11.119-25.82Z" transform="translate(-2330.282 -880.626)" fill="#ffb27d"/>
        <path id="Path_30412" data-name="Path 30412" d="M2417.594,1282.71s4.538,5.641,4.931,10.082,2.557,12.2.523,12.7-5.75-9.663-5.75-9.663Z" transform="translate(-2302.358 -880.626)" fill="#ffb27d"/>
        <path id="Path_30413" data-name="Path 30413" d="M2437.9,1012.64s-25.636,6.136-45.9,45.066-36.274,117.45-45.949,138.176-17.04,82.91-17.04,82.91,1.512,3.09,6.725,4.221a31.78,31.78,0,0,0,8.2.534s38.113-61.048,43.585-82.983c2.961-11.868,48.185-106.873,48.185-106.873Z" transform="translate(-2228.065 -880.626)" fill="#fff"/>
      </g>
      <g id="Group_30364" data-name="Group 30364" transform="translate(2061.268 634.266)">
        <path id="Path_30414" data-name="Path 30414" d="M654.266,1690.44l3.841-27.67-16.134-13.48-5.083,36.63Z" transform="translate(-545.557 -950.248)" fill="#ffb27d"/>
        <path id="Path_30415" data-name="Path 30415" d="M628.171,1715.15h65.778s1.576-10.024-1.859-17.631c-3.292-7.3-8.415-11.8-8.883-17.394-4.18,4.3-9.323,7.071-18.832,5.792-1.166,1.89-7.521,12-11.414,14.8C648.662,1703.8,629.494,1702.7,628.171,1715.15Z" transform="translate(-573.042 -950.248)" fill="#233862"/>
        <path id="Path_30416" data-name="Path 30416" d="M599.679,1316.88c4.3,34.6,7.819,67.229,10.685,97.635,15.309,162.006,12.3,261.025,12.3,261.025s1.106,2.931,10.6,2.975a54.381,54.381,0,0,0,10.619-1.143s34.274-105.791,31.629-165.992a92.293,92.293,0,0,0-2.675-19.486c-8.223-30.8,30.427-148.595-11.586-192.462S597.7,1301,599.679,1316.88Z" transform="translate(-531.333 -950.248)" fill="#f99746"/>
        <path id="Path_30417" data-name="Path 30417" d="M599.68,1316.88c4.3,34.6,7.819,67.229,10.685,97.635l65.148,96.865a92.293,92.293,0,0,0-2.675-19.486c-8.223-30.8,30.427-148.595-11.586-192.462S597.7,1301,599.68,1316.88Z" transform="translate(-531.334 -950.248)" fill="#ed7d2b"/>
        <path id="Path_30418" data-name="Path 30418" d="M745.992,986.809s1.586-7.906,3.371-13.94c.79-2.67-4.716-20.205-8.526-22.363s-13.735,9.651-10.927,18.718c1.442,4.658,3.813,19.814,3.813,19.814Z" transform="translate(-729.417 -950.248)" fill="#ffb27d"/>
        <path id="Path_30419" data-name="Path 30419" d="M723.673,986.809s2.072-4.584,3.942-5.327,3.875-8.239,5.249-11.211c0,0-1.326-1.945-3.647.557-1.417,1.526-4.572,6-4.572,6Z" transform="translate(-707.098 -950.248)" fill="#ffb27d"/>
        <path id="Path_30420" data-name="Path 30420" d="M441.4,1013.4c.4.832.963,2.319,1.463,3.718q.012-.573.018-1.13c.026-2.784,10.424-17.939,14.7-18.888s10.309,13.248,4.97,21.1c-2.743,4.031-9.445,17.83-9.445,17.83l-11.08-5.723s-.639-4.99-2.211-6.248-1.294-9.013-1.738-12.256C438.075,1011.8,439.912,1010.33,441.4,1013.4Z" transform="translate(-153.282 -950.248)" fill="#ffb27d"/>
        <path id="Path_30421" data-name="Path 30421" d="M551.017,1682.14c.93-8.867,1.16-32.195,1.16-32.195s-23.771-7.6-22.9-2.382c4.3,25.649,3.134,38.35,3.134,38.35l9.613,5.742Z" transform="translate(-331.994 -950.248)" fill="#ffb27d"/>
        <path id="Path_30422" data-name="Path 30422" d="M523.871,1315.23S615.7,1566.956,633.78,1676.147c0,0,4.188,2.878,12,1.923,8.86-1.082,11.288-7.236,11.288-7.236s16.59-130.87-16.384-176.306c-22.654-31.215,9.771-168.306-42.992-179.3S523.871,1315.23,523.871,1315.23Z" transform="translate(-435.672 -950.248)" fill="#f99746"/>
        <path id="Path_30423" data-name="Path 30423" d="M498.84,1073.08v-.009a2.059,2.059,0,0,1,.077-.326c.536-2.216,1.123-4.4,1.753-6.561l0-.009a147.592,147.592,0,0,1,6.676-18.486c1.421-3.19,2.892-6.147,4.4-8.781.23-.406.455-.785.671-1.175l.011-.008c3.548-5.965,7.2-10.088,10.488-11.36,6-2.32,12.683-1.674,17.281-.718a7.956,7.956,0,0,0-3.3-2.205c2.942,0,8.936,3.8,8.936,3.8,42.3-9.459,39.824,50.373,36.944,63.934s10.748,20.15,29.953,34.026c36.651,26.477,36.037,54.541,36.037,54.541-.33.139-.691.3-1.066.488-1.475-3.63-4.6-10.5-7.881-11.957a142.427,142.427,0,0,1,3.517,14.212c-5.583,3.077-13.309,7.84-21.7,13.217l-.01.008c-11.226,7.185-23.615,15.451-33.542,22.164.472-2.731.939-6.626.245-8.828l-3.163,9.8-.415,1.278c-6.336,4.3-11.335,7.73-13.873,9.489-.261.177-.491.34-.7.477-.741.509-1.139.787-1.139.787.843-3.463-2.854-12.493-9.06-23.873-.425-.794-.877-1.6-1.336-2.419-2-3.6-4.242-7.387-6.649-11.3-.867-1.412-1.744-2.826-2.654-4.265,0-.009-.008-.01-.008-.01-.727-1.158-1.465-2.308-2.227-3.479l-.008-.011c-1.8-2.778-3.659-5.576-5.556-8.379-4.917-7.262-10.122-14.473-15.266-21.085-7.469-9.628-14.8-18-20.935-23.474-.2-.414-.391-.836-.562-1.265a41.842,41.842,0,0,1-2.269-7.233c-.178-.757-.336-1.521-.476-2.282a99.179,99.179,0,0,1-1.539-17.938,101.559,101.559,0,0,0,.225,18.079c.118.974.246,1.874.394,2.711l0,.009a37.116,37.116,0,0,0,1.11,4.756,24.776,24.776,0,0,1-2.669-4.107,29.051,29.051,0,0,1-1.389-3.073C493.219,1109.61,494.552,1090.76,498.84,1073.08Z" transform="translate(-394.332 -950.248)" fill="#163560"/>
        <path id="Path_30424" data-name="Path 30424" d="M597.765,1133.69c-.142.041,11.841,8.715,22.006,7.5,9.56-1.139,17.336-12.158,17.213-12.2-3.776-1.352-4.1-6.865-.6-29.83l-1.81.085-30.447,1.457s-.711,9.408-2,18.18C601.053,1126.24,599.567,1133.16,597.765,1133.69Z" transform="translate(-485.309 -950.248)" fill="#ffb27d"/>
        <path id="Path_30425" data-name="Path 30425" d="M602.174,1100.7s-.711,9.408-2,18.18c16.62,1.995,27.613-11.8,32.443-19.637Z" transform="translate(-483.359 -950.248)" fill="#ed975d"/>
        <path id="Path_30426" data-name="Path 30426" d="M627.652,1096.48s10.711-12.414,14.536-23.822c2.731-8.145,3.083-39.789-28.744-39.958a42.8,42.8,0,0,0-18.545,4.025c-7.446,3.563-18.678,11.977-11.785,40.661l1.477,9.563Z" transform="translate(-474.857 -950.248)" fill="#163560"/>
        <path id="Path_30427" data-name="Path 30427" d="M554.605,1310.4s39.621,23.546,89.366,11.439c.586-.144,40.961-6.587,40.961-6.587-.694-1.9-5.912-33.088-6.594-34.833-8.825-22.774-24.954-146.378-38.43-152.476-3.441,3.748-13.275,6.313-21.692,5.565-9.692-.856-12.938-5.044-12.133-9.548-10.726,5.071-18.967,9.785-18.967,9.785C577.314,1148.43,554.605,1310.4,554.605,1310.4Z" transform="translate(-490.098 -950.248)" fill="#fff"/>
        <path id="Path_30428" data-name="Path 30428" d="M598.324,1108.18s39.062,6.47,42.717-17.917,11.158-39.978-13.628-45.141-31.037,3.416-34.236,11.26S588.258,1105.87,598.324,1108.18Z" transform="translate(-486.272 -950.248)" fill="#ffb27d"/>
        <path id="Path_30429" data-name="Path 30429" d="M580.137,1041.87s6.465,30.211,22.289,36.89,23.617,3.332,23.617,3.332a47.113,47.113,0,0,1-11.146-29.8S590.25,1029.46,580.137,1041.87Z" transform="translate(-456.74 -950.248)" fill="#163560"/>
        <path id="Path_30430" data-name="Path 30430" d="M646.136,1044.59s-8.957,5.2-11.833,11.118-5.656,18.577-9.318,17.588c0,0-5.184-20.651,5.53-30.305C641.875,1032.76,646.136,1044.59,646.136,1044.59Z" transform="translate(-520.427 -950.248)" fill="#163560"/>
        <path id="Path_30431" data-name="Path 30431" d="M633.707,987.372c1.588-.559,3.93-1.883,6.983-2.158a21.664,21.664,0,0,1,6.137.642s11.021,68.507,11.839,72.137,47.27,55.958,59.794,55.748c11.309-.189,24.707,8.541,27.193,10.219,0,0-26.337,55.69-27.65,66.152-1.429,11.383-15.063,186.676-15.063,186.676s.811,8.155-14.426,3.771-19.047-8.012-19.047-8.012,14-138,16.932-180.919a82.157,82.157,0,0,1,2.673-16.013,16.225,16.225,0,0,0-2.622-13.788c-19.264-26.444-49.684-69.287-51.379-78.393C632.583,1070.05,633.707,987.372,633.707,987.372Z" transform="translate(-629.668 -950.248)" fill="#2b478b"/>
        <path id="Path_30432" data-name="Path 30432" d="M519.084,1715.15h65.778s1.577-10.024-1.859-17.631c-3.292-7.3-8.415-11.8-8.883-17.394-4.18,4.3-9.323,7.071-18.833,5.792-1.165,1.89-7.521,12-11.414,14.8C539.576,1703.8,520.409,1702.7,519.084,1715.15Z" transform="translate(-354.867 -950.248)" fill="#233862"/>
        <path id="Path_30433" data-name="Path 30433" d="M449.814,1195.52c2.216-13.642,30.52-68.417,30.52-68.417s17.893-5.352,29.669-1.085,72.707-30.137,74.66-33.3,34.588-63.979,34.588-63.979,2.706-1.567,7.042.692a7.939,7.939,0,0,1,4.309,6.6s-25.187,76.565-31.888,88.41c-4.041,7.143-38.013,32.009-64.352,50.629a16.531,16.531,0,0,0-6.844,15.713c3.542,26.182,4.443,40.926,8.516,85.854,3.379,37.27,4.672,109.425,4.672,109.425s-29.475,10.2-49.816,11.553-24.775-20.091-24.775-20.091S447.536,1209.55,449.814,1195.52Z" transform="translate(-330.782 -950.248)" fill="#2b478b"/>
        <path id="Path_30434" data-name="Path 30434" d="M639.646,1096.12a17.442,17.442,0,0,1-10.349,1.946c-3.839-.575-4.71-5.129-4.71-5.129a15.11,15.11,0,0,1,6.926.015A29.64,29.64,0,0,1,639.646,1096.12Z" transform="translate(-514.793 -950.248)" fill="#fff"/>
      </g>
      <g id="Group_30366" data-name="Group 30366" transform="translate(749.164 197.155)">
        <path id="Path_30435" data-name="Path 30435" d="M1891.6,631.22s18.278-32.482,0-39.089-26.548-.515-27.418,6.884,6.963,36.558,6.963,36.558Z" transform="translate(-1702.299 -513.137)" fill="#ffb27d"/>
        <path id="Path_30436" data-name="Path 30436" d="M1650.864,838.962a590.942,590.942,0,0,0,91.62,9.41,510.949,510.949,0,0,0,70.426-3.168q8.3-.953,15.964-2.124c53.957-8.182,83.751-22.691,83.751-22.691s-49.3-103.2-89.122-99.236c-46.724,4.657-125.9,46.584-133.766,34.825-8.86-13.248-16.276-126.863-16.276-126.863-20.716-14.188-33.085.766-33.085.766S1599.914,829.771,1650.864,838.962Z" transform="translate(-1476.22 -513.137)" fill="#f99746"/>
        <path id="Path_30437" data-name="Path 30437" d="M1712.564,838.962a590.942,590.942,0,0,0,91.62,9.41,510.949,510.949,0,0,0,70.426-3.168c12.43-39.534,21.369-79.913-3.63-55.567C1826.884,832.573,1712.564,838.962,1712.564,838.962Z" transform="translate(-1537.921 -513.137)" fill="#ed7d2b"/>
        <path id="Path_30438" data-name="Path 30438" d="M1736.781,1672.18s3.546,41.024-5.126,45.294l-110.982-.228s0-12.809,17.826-15.654,49.142-13.283,54.44-36.527S1736.781,1672.18,1736.781,1672.18Z" transform="translate(-1296.627 -513.137)" fill="#233862"/>
        <path id="Path_30439" data-name="Path 30439" d="M1562.108,1175.66c.548,26.826,1.836,54.5,4.36,79.364,11.985,118,16.2,260.576,17.922,288.064,2.985,47.716,12.412,123.947,12.412,123.947s18.7,17.748,55.141,9.278c0,0,30.195-109.794,36.94-225.4.1-1.9.209-3.8.305-5.709.784-15.285,1.6-32.763,2.438-51.607,5.554-126.228,11.585-313.742,11.585-313.742l-139.267-32.7S1560.738,1108.78,1562.108,1175.66Z" transform="translate(-1203.434 -513.137)" fill="#2a4e96"/>
        <path id="Path_30440" data-name="Path 30440" d="M1562.108,1175.66c35.3,60.894,102.569,173.082,129.518,217.935,5.554-126.228,11.585-313.742,11.585-313.742l-139.267-32.7S1560.738,1108.78,1562.108,1175.66Z" transform="translate(-1203.434 -513.137)" fill="#233862"/>
        <path id="Path_30441" data-name="Path 30441" d="M1339.608,1057.7s22.661,26.65,24.7,34.039,5.669,34.014,3.725,42.013-17.011-22.307-22.491-25.544,4.114,12.054,2.24,14.606-12.694-8.926-16.914-12.809-3.8-24.786-8.868-37.146S1339.608,1057.7,1339.608,1057.7Z" transform="translate(-628.304 -513.137)" fill="#ffb27d"/>
        <path id="Path_30442" data-name="Path 30442" d="M1400.094,1625.56s19.753,18.026,15.9,30.835-21.68,21.347-24.089,37-12.044,24.193-20.717,24.193h-41.344s-6.384-11.016,9.033-14.337,21.23-21.716,20.267-38.794,1.445-39.849,1.445-39.849l32.761-7.59Z" transform="translate(-683.48 -513.137)" fill="#233862"/>
        <path id="Path_30443" data-name="Path 30443" d="M1344.929,1082.71s130.369,278.938,199.745,401.33,91.056,156.547,91.056,156.547,39.747-15.655,43.36-26.329c0,0-26.529-236.282-72.989-293.881-26.252-32.546-57.09-130.218-58.536-164.374s-31.9-115.678-31.9-115.678Z" transform="translate(-962.476 -513.137)" fill="#2a4e96"/>
        <path id="Path_30444" data-name="Path 30444" d="M1519.146,1095.86s51.845,34.661,125.22,31.442c32.2-1.407,96.078-10.537,106.388-36.146,2.42-6.013.645-13.644-2.985-25.356-9.424-30.441-31.389-88.408-24.756-216.936a210.947,210.947,0,0,0-.863-33.729c-6.911-63.308-43.192-100.8-78.26-113.05-85.521-29.891-114.031,11.521-114.031,11.521s-37.8,29.949-43.5,92.452C1474.966,931.081,1519.146,1095.86,1519.146,1095.86Z" transform="translate(-1174.803 -513.137)" fill="#f99746"/>
        <path id="Path_30445" data-name="Path 30445" d="M1712.251,694.905s-39.24,23.867-81.8,17.118c0,0-8.414-2.14-4.277-12.018a126.1,126.1,0,0,1-3.778-13.179,198.939,198.939,0,0,1-4.873-21.5l24.153-25.387,22.877-24.26C1670.871,673.663,1712.251,694.905,1712.251,694.905Z" transform="translate(-1268.228 -513.137)" fill="#ffb27d"/>
        <path id="Path_30446" data-name="Path 30446" d="M1713.542,637.669s-13.145,35.133-45.821,49.157c-3.733-13.634-6.161-27.9-6.161-27.9L1687,639.939Z" transform="translate(-1313.559 -513.137)" fill="#ed985f"/>
        <path id="Path_30447" data-name="Path 30447" d="M1670.188,664.1s74.9,9.363,80.162-36.667,18.466-75.82-29.136-83.745-58.916,8.62-64.466,23.567S1650.838,660.477,1670.188,664.1Z" transform="translate(-1347.995 -513.137)" fill="#ffb27d"/>
        <path id="Path_30448" data-name="Path 30448" d="M1776.605,536.206c.647-.8,2.182-1.484,5.644-1.8a14.085,14.085,0,0,0-6.55-1.581c-.907-4.8-3.8-13.237-12.177-15a10.411,10.411,0,0,1,5.328,7.316c-9.988-9.512-30.863-15.921-87.745-9.26-74.965,8.778-48.364,55.981-38.413,61.352s33.858-11.289,52.049-10.535,22.631,26.83,28.919,30.193,3.629-2.9,11.811-6.981,9.495,9.687,7.431,18.746,9.82,20.457,9.82,20.457l11.087-12.885c11.088-12.885,19.988-66.023,14.308-77.063C1777.615,538.187,1777.115,537.2,1776.605,536.206Z" transform="translate(-1350.602 -513.137)" fill="#2c3a64"/>
        <g id="Group_30365" data-name="Group 30365" transform="translate(0 37.021)">
          <path id="Path_30449" data-name="Path 30449" d="M1736.27,609.673l127.16,1.132.87-19.129-126.76-9.824Z" transform="translate(-1539.027 -550.158)" fill="#2a4e96"/>
          <path id="Path_30450" data-name="Path 30450" d="M1820.26,612.867l138.45,2,1.58-34.781-138.05-10.7Z" transform="translate(-1719.007 -550.158)" fill="#2a4e96"/>
          <path id="Path_30451" data-name="Path 30451" d="M1934.76,615.6l116.75.145,2.13-46.954-116.27-10.579Z" transform="translate(-1926.857 -550.158)" fill="#233862"/>
          <path id="Path_30452" data-name="Path 30452" d="M2051.981,623.523h0a6.529,6.529,0,0,1-6.226-6.817l2.74-60.316a6.527,6.527,0,0,1,6.817-6.225h0a6.528,6.528,0,0,1,6.225,6.818L2058.8,617.3A6.53,6.53,0,0,1,2051.981,623.523Z" transform="translate(-2045.748 -550.158)" fill="#233862"/>
          <path id="Path_30453" data-name="Path 30453" d="M1735.5,614.889h0a5.8,5.8,0,0,0,6.061-5.533l.711-15.651a5.8,5.8,0,0,0-5.533-6.06h0a5.8,5.8,0,0,0-6.061,5.533l-.711,15.651A5.8,5.8,0,0,0,1735.5,614.889Z" transform="translate(-1410.698 -550.158)" fill="#2a4e96"/>
        </g>
        <path id="Path_30454" data-name="Path 30454" d="M1585.375,1065.8c-9.424-30.441-31.389-88.408-24.756-216.936a210.947,210.947,0,0,0-.863-33.729h-.009c-28.145-2.419-71.167,28.007-71.167,28.007S1515.075,1004.68,1585.375,1065.8Z" transform="translate(-1012.412 -513.137)" fill="#ed7d2b"/>
        <path id="Path_30455" data-name="Path 30455" d="M1378.025,694.905s72.167,12.405,109.808,58.356,98.188,110.743,112.5,133.431,54.056,177.1,54.056,177.1-2.623,4.964-13.583,7.854a25.845,25.845,0,0,1-18.1-1.522S1570.054,980.012,1550.239,935c-8.232-18.7-150.62-92.772-204.15-85.1C1325.065,852.912,1378.025,694.905,1378.025,694.905Z" transform="translate(-934.001 -513.137)" fill="#f99746"/>
        <path id="Path_30456" data-name="Path 30456" d="M1896.832,576.374s-15.522,9.495-24.807,5.478-8.466-7.7-8.466-7.7S1891.612,566.374,1896.832,576.374Z" transform="translate(-1698.829 -513.137)" fill="#ffb27d"/>
        <path id="Path_30457" data-name="Path 30457" d="M1421.247,745.245s31.671,199.955,256.381,258.171l24.478,48.294-43,7.277s-255.825-74.113-252.379-317.278Z" transform="translate(-1047.254 -513.137)" fill="#bc3f3f"/>
        <path id="Path_30458" data-name="Path 30458" d="M1691.71,713.329l10.37,1.016v15.014l-15.28,15.886-14.53-3.536V720.873l10.45-7.544Z" transform="translate(-1312.807 -513.137)" fill="#a02e2e"/>
        <path id="Path_30459" data-name="Path 30459" d="M1649.648,673.566s10.04,2.265,32.993,21.339c0,0-22.827,48.455-70.99,54.258,0,0,.777-22.487-2.7-35.834C1608.948,713.329,1647.118,699.665,1649.648,673.566Z" transform="translate(-1230.045 -513.137)" fill="#ed7d2b"/>
        <path id="Path_30460" data-name="Path 30460" d="M1714.735,713.329s-23.5,12.476-25.242,31.916c0,0-8.984-14.233-6.379-24.089s10.66-21.15,10.66-21.15S1692.975,711.878,1714.735,713.329Z" transform="translate(-1335.832 -513.137)" fill="#ed7d2b"/>
      </g>
    </g>
  </g>
</svg>
