<?xml version="1.0" encoding="UTF-8"?>
<svg id="Layer_1" data-name="Layer 1" xmlns="http://www.w3.org/2000/svg" version="1.1" xmlns:xlink="http://www.w3.org/1999/xlink" viewBox="0 0 1918 1022">
  <defs>
    <style>
      .cls-1 {
        fill: url(#linear-gradient);
      }

      .cls-1, .cls-2, .cls-3, .cls-4, .cls-5 {
        stroke-width: 0px;
      }

      .cls-6 {
        opacity: .5;
      }

      .cls-2 {
        fill: none;
      }

      .cls-7 {
        opacity: .4;
      }

      .cls-3 {
        fill: url(#linear-gradient-2);
      }

      .cls-4 {
        fill: url(#linear-gradient-3);
      }

      .cls-8 {
        clip-path: url(#clippath);
      }

      .cls-9 {
        mask: url(#mask);
      }

      .cls-5 {
        fill: #fff;
        isolation: isolate;
        opacity: .8;
      }
    </style>
    <clipPath id="clippath">
      <rect class="cls-2" width="1918" height="1022"/>
    </clipPath>
    <linearGradient id="linear-gradient" x1="1885.5" y1="903.1" x2="174" y2="179.1" gradientTransform="translate(0 1022) scale(1 -1)" gradientUnits="userSpaceOnUse">
      <stop offset="0" stop-color="#257b0f"/>
      <stop offset=".6" stop-color="#256f0f"/>
    </linearGradient>
    <linearGradient id="linear-gradient-2" x1="958.6" y1="1023" x2="958.6" y2="-1" gradientTransform="translate(0 1022) scale(1 -1)" gradientUnits="userSpaceOnUse">
      <stop offset="0" stop-color="#1647a7"/>
      <stop offset="1" stop-color="#17458a"/>
    </linearGradient>
    <mask id="mask" x="-3079.3" y="-1650" width="6802.7" height="2982.3" maskUnits="userSpaceOnUse">
      <g id="mask0_14507_1567" data-name="mask0 14507 1567">
        <path class="cls-3" d="M-1.4-1h1920V1023H-1.4V-1Z"/>
      </g>
    </mask>
    <linearGradient id="linear-gradient-3" x1="344.4" y1="761.9" x2="1071.2" y2="761.9" gradientTransform="translate(510.9 -259.2) rotate(32)" xlink:href="#linear-gradient"/>
  </defs>
  <g class="cls-8">
    <g>
      <path class="cls-1" d="M-1.4-1h1920V1023H-1.4V-1Z"/>
      <g class="cls-9">
        <g>
          <g class="cls-7">
            <path class="cls-5" d="M905.6,897.2c11.8,0,23.7-.4,35.5-1.4,78-6.2,155.2-33.4,229.5-80.3,80.4-50.7,158.2-125.5,231.4-222.2,20.5-27.1,41-56.4,60.9-84.8,42.1-60.2,85.7-122.4,130.9-165.9,50.9-48.9,103.4-72.3,151.8-67.6,38.4,3.7,72.7,25.7,99,63.5,32.7,47,54.7,117.3,75.9,185.4,13.6,43.5,27.6,88.5,44.4,127.2,23.4,53.9,53.7,95.2,90,122.7,33.6,26,75.2,40,118,39.8,38.2,0,78.7-10.4,120.1-30.9,41.4-20.5,83.1-50.8,124-90,85.8-82.4,163.4-200.3,224.5-341.2,57.6-132.8,102.3-281.9,145.5-426.2,38.8-129.4,78.9-263.3,128.2-385.3,38.7-95.8,89.8-185.4,143.6-252.2,55.8-69.2,110.3-108,153.5-109.1h2c31.4,0,56.4,19.5,74.4,58l1.1-.5c-18.3-38.9-43.6-58.6-75.6-58.6h-2c-43.5,1.2-98.3,40-154.4,109.5-53.9,66.8-105,156.5-143.8,252.5-49.3,121.9-89.4,255.7-128.1,385-43.2,144.2-87.9,293.3-145.4,426-61.1,140.9-138.6,258.7-224.3,341-40.7,39.1-82.3,69.3-123.7,89.8-41.4,20.5-81.5,30.8-119.6,30.8-42.5.2-83.8-13.7-117.2-39.5-36.2-27.4-66.4-68.6-89.6-122.4-16.8-38.6-30.8-83.6-44.4-127.1-21.2-68.1-43.2-138.4-76-185.4-26.5-38.1-61-60.2-99.8-63.9-48.7-4.7-101.5,18.8-152.7,68-45.3,43.5-88.8,105.8-131,166-19.9,28.4-40.5,57.7-60.9,84.8-73.2,96.8-150.9,171.4-231,222.1-74.1,46.9-151.2,73.8-229,80.1-147,11.8-296.2-49.9-431.4-178.4-99.8-94.8-192.1-216.1-281.4-333.5C101.7,216.4-29.3,44.3-183.6-54c-80.3-51.6-171.7-84.1-267-95.1-92.1-10.7-190.7-2.2-293.2,25.2-99.2,26.6-203,71.1-308.6,132.5-103,59.9-208.4,136.1-313.2,226.7-28.8,24.9-58.3,51.4-86.9,77-114.8,103.2-233.5,209.8-346.7,246.2-106.8,34.3-207.9,6-300.6-84-80.6-78.3-152.4-200.3-213.5-362.4-61.1-162.1-109-350-155.5-531.6-38.9-152.1-79-309.2-126.6-450.7-57.8-171.4-124.3-304.6-197.8-395.9-86.5-107.6-182.7-156.5-286.1-145.8v1.1c102.9-10.7,198.9,38.2,285.1,145.3,73.4,91.2,139.9,224.3,197.6,395.6,48.1,141.5,88.2,298.7,127,450.8,46.4,181.7,94.5,369.5,155.5,531.7,61,162.2,133,284.4,213.7,362.8,92.9,90.4,194.5,118.7,301.7,84.3,113.4-36.5,232.2-143.2,347.1-246.5,28.5-25.6,57.9-51.9,86.9-77,104.8-90.5,210.1-166.7,313-226.6,105.5-61.3,209.2-105.8,308.3-132.4,102.4-27.4,200.9-35.9,292.8-25.2,95.1,11,186.4,43.5,266.5,94.9C-30,45.3,100.9,217.3,227.5,383.7c89.3,117.4,181.6,238.7,281.5,333.8,124.4,118,261,179.7,396.6,179.7Z"/>
            <path class="cls-5" d="M926.6,922.8c11,0,22.1-.4,33.2-1.3,78.2-5.9,155.6-33.1,230.4-80.7,80.6-51.4,159-127.3,232.9-225.6,20.6-27.4,41.3-57.2,61.3-85.9,42.4-61,86.4-124.1,131.8-168.1,51-49.6,103.6-73.2,151.9-68.3,38.3,3.7,72.3,26,98.3,64.5,32.4,47.7,53.9,119.1,74.7,188,13.3,44.2,27,89.9,43.6,129.1,22.9,54.6,52.9,96.4,88.8,124.4,33.1,26.4,74.5,40.8,117.2,40.8h1c37.8,0,78.1-10.4,119.2-30.9,41.1-20.5,83.5-51.3,124.5-91,86.3-83.5,164.6-203.2,226.5-346.3,58.2-134.6,103.8-285.9,147.7-432.1,39.4-131.1,80.2-266.8,130.1-390.4,39.3-97.2,90.7-188.1,145.1-255.9,56.2-70.2,110.9-109.3,154-110.2,32.1-.6,57.5,19.1,75.6,58.9l1-.4c-18.3-40.2-44.1-60.3-76.7-59.6-43.5.9-98.3,40.2-155,110.6-54.3,67.8-105.8,158.8-145.2,256.1-49.9,123.7-90.7,259.3-130.2,390.4-44,146.2-89.4,297.4-147.6,432-61.9,142.9-140.1,262.6-226.2,346-40.9,39.6-82.7,70.1-124.2,90.8-41.5,20.7-81,30.7-118.7,30.7h-1c-42.4,0-83.5-14.3-116.4-40.5-35.9-27.9-65.6-69.6-88.5-123.9-16.5-39.2-30.2-84.9-43.6-129.1-20.8-69.1-42.3-140.5-74.8-188.3-26.3-38.6-60.5-61.1-99.2-65-48.6-4.9-101.5,18.9-152.9,68.7-45.4,44.1-89.4,107.2-131.8,168.3-20,28.7-40.7,58.5-61.3,85.9-73.8,98.2-152.1,174.1-232.7,225.4-74.5,47.5-151.8,74.6-229.8,80.5-146.2,11.1-294.2-51.9-427.9-181.7-99.1-96.4-190.5-219.6-278.9-338.7C127.2,231-2.5,56.1-155.8-43.8c-79.7-52.4-170.8-85.6-266-96.9-91.8-11.1-190.3-2.5-292.8,25.1-99.2,26.8-203,71.9-308.8,134-103.1,60.6-208.8,137.8-313.9,229.5-28.9,25.2-58.5,51.9-86.9,77.9-115.2,104.5-234.3,212.5-347.5,249.2-106.8,34.7-207.6,5.8-299.5-85.7-79.9-79.6-150.9-203.4-210.9-368-60-164.6-106.8-355.2-152.1-539.6-37.8-154.3-77-313.8-123.7-457.4-56.7-174-122.3-309.2-195.1-402-85.7-109.1-181.4-159-284.7-148.4v1.1c102.9-10.6,198.2,39.1,283.7,147.9,72.8,92.7,138.3,227.7,194.9,401.6,46.7,143.6,85.9,303,123.8,457.3,45.4,184.4,92.1,375,152.1,539.7,60,164.6,131.2,288.8,211.4,368.5,92.3,91.8,193.4,120.8,300.7,86,113.4-36.8,232.6-144.9,347.7-249.5,28.6-26,58.1-52.7,86.9-77.9,105.1-91.6,210.7-168.8,313.7-229.4,105.6-62,209.4-107.1,308.5-133.9,102.3-27.6,200.7-36.1,292.4-25.1,95,11.3,186,44.4,265.5,96.7C-3.5,56.9,126.2,231.6,251.6,400.7c88.4,119.2,179.9,242.5,279,338.9,124.2,120.4,260.3,183.3,396,183.3Z"/>
            <path class="cls-5" d="M947.5,948.4c10.3,0,20.6-.4,30.8-1.1,78.3-5.6,156.1-32.9,231.2-81.1,81.1-51.9,160-129.1,234.6-229.1,20.7-27.8,41.6-57.9,61.7-87,42.7-61.8,86.9-125.7,132.3-170.3,51.4-50.2,104-74.2,152.1-69.1,38.2,4,71.8,26.6,97.8,65.6,32.1,48.5,52.9,120.9,73.4,190.9,13,44.8,26.4,91.2,42.8,131.1,22.7,55.2,52,97.7,87.6,126.1,32.7,26.7,73.8,41.5,116.3,41.7h2c37.6,0,77.4-10.4,118.3-30.9,41.6-20.9,83.8-51.9,125-92,86.7-84.6,165.7-206.1,228.4-351.3,58.9-136.4,105.2-289.8,149.9-438.1,40.1-133,81.6-270.4,132.3-395.7,39.8-98.7,91.9-190.9,146.4-259.6,56.7-71.1,111.4-110.6,154.5-111.3h1.2c31.3,0,56.1,20.1,73.7,59.9l1.1-.4c-18-40.8-43.5-61-75.9-60.6-43.4.7-98.5,40.4-155.3,111.8-54.7,68.7-106.7,161-146.6,259.6-50.6,125.4-92,262.8-132.3,395.8-44.7,148.4-91,301.6-149.9,438-62.6,145.1-141.5,266.4-228.2,350.9-41.1,40.1-83.1,71-124.7,91.8-40.8,20.4-80.4,30.7-117.8,30.7h-2c-42.2-.3-83.1-14.9-115.5-41.4-35.5-28.3-64.8-70.5-87.3-125.7-16.3-39.8-29.7-86.2-42.7-131-20.3-70.1-41.6-142.6-73.5-191.2-26-39.2-60.1-62.1-98.6-66.1-48.6-5-101.4,19-153,69.5-45.6,44.5-89.8,108.6-132.5,170.6-20.1,29.2-40.9,59.3-61.6,87-74.5,99.9-153.4,176.9-234.3,228.8-74.9,48.2-152.5,75.3-230.6,80.9-145.5,10.5-292.2-53.6-424.5-185.1-98.3-97.9-189-223-276.4-344C153.3,245.4,24.8,67.9-127.7-33.7c-79-53.1-169.9-87-264.9-98.7-91.6-11.3-190-2.9-292.4,25.1-99.1,27-203.1,72.6-309,135.4-103.3,61.3-209.2,139.5-314.7,232.3-29.1,25.6-58.7,52.7-87.4,79-115.6,105.8-235.1,215.1-348.2,252.2-106.8,35-207.2,5.6-298.6-87.3-79.4-80.9-149.5-206.5-208.4-373.6-59-167-104.6-360.5-148.7-547.5-36.9-156.5-75.1-318.4-120.9-464.1-55.5-176.6-120.2-313.9-192.4-408-84.9-110.8-180.2-161.6-283.5-150.9v1.1c102.7-10.6,197.7,40,282.3,150.4,72.4,94,137.1,231.2,192.6,407.7,45.8,145.7,84,307.6,120.9,464,44.1,187.1,89.8,380.6,148.7,547.6,58.9,167,129.2,293,208.7,374,91.6,93.3,192.4,122.8,299.7,87.6,113.4-37.1,233-146.6,348.7-252.5,28.7-26.3,58.3-53.4,87.4-78.9,105.5-92.7,211.2-170.9,314.5-232.2,105.8-62.8,209.6-108.3,308.7-135.3,102.3-27.9,200.3-36.3,291.9-25,94.9,11.6,185.7,45.4,264.6,98.5C24.1,68.7,152.5,246.1,276.7,417.8c87.6,121,178.1,246.2,276.6,344.1,122.9,122.5,258.6,186.5,394.3,186.5Z"/>
            <path class="cls-5" d="M968.4,974c9.6,0,18.9-.3,28.7-1,78.4-5.3,156.4-32.7,231.9-81.6,81.5-52.6,161-130.8,236.3-232.5,20.8-28,41.8-58.5,62.1-87.9,42.9-62.6,87.4-127.4,133.1-172.5,51.6-51.1,104.2-75.2,152.3-70.1,38.1,4.1,71.8,27.1,97.2,66.8,31.7,49.2,52.3,122.7,72.2,193.7,12.7,45.5,25.9,92.5,41.9,133,22.2,55.9,51.2,98.9,86.6,127.8,32.2,27.1,73.1,42.2,115.5,42.7,38.1.6,78.7-9.8,120.4-30.9,41.7-21,84-52.3,125.4-93.1,87.2-85.6,166.8-208.8,230.3-356,59.6-138.3,106.6-293.7,152.2-444.1,40.8-134.8,83.1-274.2,134.1-401.1,40.4-100.1,92.9-193.6,147.8-263.1,56.9-72.1,111.9-112,155-112.5h.8c31.3,0,56,20.5,73.3,60.8l1.1-.4c-17.5-40.8-42.6-61.5-74.4-61.5h-.8c-43.3.5-98.7,40.6-155.8,112.9-55,69.7-107.6,163.2-148,263.3-51.2,127-93.4,266.4-134.2,401.2-45.4,150.3-92.6,305.7-152.1,443.9-63.4,147.2-143,270.3-230.1,356-41.3,40.6-83.4,71.8-125.1,92.7-40.5,20.4-79.9,30.7-117,30.7h-2.9c-42.2-.5-82.9-15.6-114.8-42.7-35.2-28.8-64.3-71.7-86.2-127.4-16-40.4-29.1-87.4-41.9-132.9-19.9-71.1-40.5-144.6-72.3-194-25.7-39.8-59.6-63-98-67.1-48.4-5.2-101.4,19.1-153.2,70.2-45.8,45.2-90.3,110-133.2,172.7-20.3,29.7-41.2,60-62,88.2-75.2,101.5-154.7,179.6-236,232.2-75.3,48.6-153.2,76-231.4,81.3-144.8,9.8-290.4-55.3-421.1-188.4-97.6-99.4-187.2-226.2-274-349.2C178.9,259.9,51.7,79.7-99.9-23.6c-78.4-53.9-168.9-88.4-263.9-100.5-91.4-11.6-189.6-3.2-292,25-99.1,27.3-203.2,73.3-309.2,136.9-103.5,62-209.6,140.9-315.5,235.1-29.1,26-58.9,53.4-87.7,79.9-116,107.1-236.1,217.9-349.1,255.3-67.6,22.3-133.2,18.5-194.8-11.6-151.2-73.8-251.2-289-308.5-456.6-57.9-169.5-102.3-365.7-145.3-555.4-35.9-158.8-73.1-323-118-471-54.4-179.1-118.2-318.4-189.7-414-84.1-112.5-179-164.1-282-153.4v1.1c102.5-10.6,197,40.8,280.9,152.9,71.4,95.5,135.2,234.7,189.6,413.7,44.9,147.8,82.1,312,118,470.8,43,189.8,87.4,386.1,145.3,555.6,57.3,167.8,157.5,383.3,309.1,457.3,61.9,30.2,127.8,34.1,195.7,11.6,113.4-37.5,233.4-148.4,349.5-255.6,28.8-26.6,58.5-54,87.6-79.9,105.8-93.9,211.7-173,315.3-235,105.8-63.5,209.8-109.5,308.9-136.7,102.1-28.1,200.3-36.5,291.6-25,94.7,12,185.1,46.3,263.3,100.1C50.7,80.2,177.8,260.3,300.8,434.6c86.9,122.9,176.4,249.9,274.1,349.4,122.5,124.9,257.9,190,393.5,190Z"/>
            <path class="cls-5" d="M989.2,999.6c8.8,0,17.6-.3,26.4-.9,78.6-5,156.9-32.5,232.7-81.8,82-53.3,162-132.6,238.1-235.8,21-28.5,42.1-59.3,62.4-89.3,43.3-63.5,88-129,133.8-174.7,51.7-51.5,104.4-75.8,152.3-70.7,37.8,4.2,71.4,27.6,96.6,67.7,31.4,49.9,51.5,124.4,71,196.6,12.4,46.1,25.3,93.8,41.1,134.9,21.7,56.6,50.5,100.1,85.4,129.5,31.7,27.4,72.3,42.8,114.5,43.5h3.8c37,0,76.2-10.4,116.7-30.9,41.9-21.2,84.2-52.9,125.9-94.1,87.7-86.7,168-211.6,232.3-361.2,60.2-140.2,108.1-297.7,154.4-450,41.6-136.6,84.4-277.9,136.1-406.5,40.9-101.6,93.9-196.3,149.2-266.8,57.3-73,112.5-113.3,155.3-113.6h.4c31.3,0,55.9,20.8,72.9,61.8l1.1-.4c-17.3-41.5-42.2-62.5-74-62.5h-.4c-43.2.3-98.7,40.8-156.2,114-55.4,70.5-108.4,165.4-149.3,267-51.8,128.7-94.8,270-136.1,406.6-46.3,152.3-94.1,309.8-154.3,449.9-64.3,149.4-144.5,274.2-232,360.8-41.6,41.1-83.8,72.7-125.6,93.9-41.8,21.2-82,31.4-119.9,30.7-42-.7-82.3-16-113.9-43.2-34.8-29.3-63.4-72.7-85.1-129.1-15.7-41-28.6-88.7-41.1-134.8-19.5-72.1-39.6-146.7-71.1-196.8-25.4-40.4-59.1-64-97.4-68.2-48.3-5.4-101.3,19.2-153.4,70.9-46,45.8-90.7,111.3-134,174.9-20.4,29.9-41.6,60.8-62.4,89.3-75.9,103.1-155.8,182.4-237.7,235.6-75.6,49.2-153.8,76.7-232.1,81.6-144.1,9.2-288.5-57.1-417.7-191.8-96.9-100.9-185.7-229.9-271.5-354.5C204.6,274.4,78.6,91.5-72.1-13.5c-77.7-54.7-168-89.9-262.8-102.3-91.1-11.9-189.2-3.5-291.6,24.9-99.1,27.5-203.2,74.2-309.4,138.3-103.6,62.7-210,142.8-316.2,237.9-29.2,26.2-59.1,54-88,80.9-116.4,108.4-236.7,220.6-349.8,258.4-67.2,22.3-132.3,18.5-193.1-11.4-151.2-74.2-250.2-293.4-306.6-464-56.7-171.9-100-370.9-141.9-563.4-35-161-71.1-327.6-115.1-477.6-53.3-181.7-116.2-323-187-420.1-83.2-114.2-177.7-166.6-280.6-155.8v1.1c102.4-10.6,196.5,41.7,279.7,155.5,70.7,96.9,133.6,238.1,186.8,419.8,44,149.9,80.2,316.5,115.1,477.5,41.8,192.5,85,391.6,141.9,563.5,56.5,170.9,155.6,390.2,307.2,464.7,61.3,30.1,126.6,34,194,11.5,113.4-37.9,233.9-150.1,350.3-258.6,28.8-26.9,58.7-54.7,87.9-80.9,106.1-95.1,212.5-175.1,316-237.8,106.1-64.2,210.1-110.7,309.1-138.2,102.1-28.4,200.3-36.8,291-24.9,94.6,12.4,184.7,47.4,262.3,102C77.8,92.3,203.7,275.1,325.5,452c85.9,124.7,174.7,253.6,271.6,354.6,121.6,126.7,256.6,193,392.1,193Z"/>
            <path class="cls-5" d="M1010,1025.2c8.1,0,16.3-.2,24.4-.8,78.7-4.7,157.2-32.4,233.4-82.2,82.4-53.9,163.1-134.4,239.6-239.2,21.1-28.9,42.3-60.2,62.8-90.5,43.5-64.2,88.5-130.7,134.6-176.9,52-52.2,104.7-76.8,152.5-71.4,37.8,4.3,71.1,28.1,96,68.8,31.1,50.7,50.7,126.1,69.7,199.3,12.2,46.8,24.8,95.1,40.3,136.8,21.3,57.3,49.7,101.4,84.3,131.2,31.3,27.8,71.8,43.6,114,44.5h4.7c36.7,0,75.6-10.4,115.9-30.9,42-21.4,84.5-53.4,126.3-95.2,88.1-87.8,169-214.4,234.1-366.1,60.9-142,109.6-301.6,156.6-456,42.2-138.4,85.8-281.5,138.2-411.9,41.6-103,94.9-199.1,150.6-270.5,57.7-74,113-114.7,155.8-114.8,31.3,0,55.7,21.1,72.6,62.8l1-.4c-17-42.1-41.8-63.5-73.6-63.5s-98.8,40.8-156.7,115.2c-55.7,71.5-109.2,167.6-150.7,270.7-52.5,130.4-96.1,273.6-138.3,412-47,154.4-95.7,314-156.5,455.9-65.1,151.6-145.9,278.2-233.9,365.7-41.8,41.7-84.1,73.6-126,94.9-41.9,21.4-82.1,31.7-120,30.7-42-.9-82.2-16.6-113.4-44.3-34.5-29.7-62.7-73.7-84-130.8-15.5-41.6-28.1-89.9-40.2-136.7-18.9-73.1-38.8-148.8-69.9-199.6-25.1-40.8-58.6-64.9-96.8-69.3-48.2-5.5-101.3,19.3-153.5,71.7-46.2,46.4-91.1,112.9-134.6,177.2-20.5,30.3-41.6,61.6-62.8,90.4-76.6,104.8-157.1,185.2-239.3,239-76,49.7-154.4,77.4-232.8,82-143.3,8.6-286.7-58.9-414.5-195.1-96.1-102.4-184-233.3-269-359.8C230.3,289,105.6,103.3-44.3-3.3c-77.1-55.4-167.1-91.1-261.7-103.8-90.9-12.2-189-3.7-291.2,24.8-99.1,27.7-203.2,74.8-309.6,139.7-103.8,63.5-210.4,144.5-316.9,240.8-29.3,26.5-59.3,54.7-88.3,81.9-116.8,109.7-237.5,223.3-350.6,261.4-66.7,22.5-131.1,18.5-191.4-11.1-151.2-75-249.2-297.8-304.7-471.5-55.8-174.3-97.8-376.1-138.4-571.2-34-163.2-69.2-332.2-112.2-484.3-52.2-184.3-114.2-327.7-184.3-426.1-82.5-115.9-176.5-169.2-279.2-158.5v1.1c102.4-10.6,195.9,42.5,278.2,158,70.1,98.4,132,241.6,184.1,425.8,43.1,152.1,78.2,321,112.3,484.3,40.8,194.7,82.8,396.5,138.7,570.9,55.9,174.4,153.7,396.8,305.3,472.2,60.5,30.1,125.3,33.9,192.3,11.1,113.4-38.2,234.3-151.8,351.1-261.7,28.9-27.2,58.9-55.4,88.2-81.9,106.5-96.4,213-177.2,316.8-240.6,106.2-64.9,210.3-111.9,309.3-139.6,102.1-28.6,200-37.1,290.8-24.8C-211.5-93.6-121.7-57.9-44.8-2.5,104.9,103.9,229.5,289.5,350.1,468.9c85,126.5,173,257.4,269.1,359.8,120.7,129.1,255.4,196.5,390.9,196.5Z"/>
            <path class="cls-5" d="M1030.8,1050.8c7.6,0,15-.2,22.4-.6,78.7-4.3,157.5-32.2,234.1-82.6,82.8-54.5,163.9-136.1,241.2-242.6,21.2-29.2,42.6-60.9,63.2-91.6,43.8-65.1,89.1-132.3,135.3-179.1,52.2-52.8,105-77.9,152.7-72.1,37.8,4.5,70.7,28.6,95.4,69.8,30.7,51.4,49.9,128,68.5,202.1,11.9,47.4,24.2,96.4,39.5,138.7,20.9,57.9,48.9,102.7,83.2,132.9,30.8,28.2,71.1,44.4,113.2,45.5,37.8,1,78.6-9.3,120.5-30.9,42-21.6,84.7-54,126.7-96.2,88.5-89,170.1-217.2,236-370.9,61.6-143.8,111.1-305.5,158.8-461.9,42.9-140.2,87.2-285.2,140.2-417.3,41.9-104.5,95.9-201.8,151.9-274.1,57.9-74.8,113.4-115.9,156-115.9h.5c31.1,0,55.4,21.5,71.8,63.7l1.1-.4c-16.7-42.6-41.3-64.3-73-64.4h-.3c-43.1,0-98.8,41.3-156.9,116.3-56.1,72.4-110,169.8-152,274.5-52.9,132.1-97.4,277.1-140.3,417.4-47.8,156.4-97.2,318.1-158.8,461.8-65.8,153.7-147.4,281.9-235.8,370.6-41.9,42.1-84.5,74.4-126.5,96-41.9,21.6-82.2,31.9-120,30.7-41.8-1.1-81.8-17.2-112.4-45.2-34-30.1-62.1-74.7-82.9-132.5-15.1-42.2-27.5-91.2-39.4-138.6-18.6-74.2-37.8-150.8-68.6-202.4-24.8-41.5-58.1-65.9-96.3-70.5-48.2-5.8-101.1,19.5-153.6,72.4-46.3,46.9-91.6,114.2-135.4,179.3-20.6,30.7-42,62.4-63.2,91.6-77.2,106.5-158.3,188.1-240.9,242.4-76.4,50.3-155,77.9-233.5,82.4-7.6.4-15.1.6-22.4.6-135.1,0-269.1-68.5-388.9-199.1-95.4-103.8-182.4-236.7-266.5-365C256,303.4,132.5,115.1-16.4,6.9c-76.4-56.3-166.2-92.7-260.8-105.8-90.7-12.5-188.5-4.2-290.8,24.8-99.1,28-203.3,75.5-309.9,141.2-103.9,64.2-210.8,146.1-317.5,243.6-29.4,26.9-59.5,55.3-88.6,82.9-117.2,111.3-238.1,225.9-351.5,264.4-66.2,22.5-130.1,18.8-189.8-11.1-151.2-75.6-248.1-302.2-302.8-479-54.7-176.8-95.5-381.4-135-579.3-33-165.6-67.2-336.8-109.4-491-51-186.9-112.1-332.3-181.4-432.2-81.8-117.6-175.3-171.8-277.9-161.1v1.1c102.1-10.6,195.3,43.4,276.8,160.6,69.4,99.8,130.5,245,181.4,431.8,42.1,154.2,76.3,325.4,109.4,490.9,39.5,197.9,80.4,402.6,135.1,579.4,54.7,176.8,151.8,403.9,303.3,479.6,60,30,124.1,33.7,190.7,11.1,113.4-38.6,234.6-153.5,351.8-264.7,29.1-27.6,59.1-56.1,88.5-82.9,106.8-97.4,213.6-179.3,317.5-243.4C-770.8,2.2-666.7-45.2-567.8-73.2c102.1-28.9,199.8-37.1,290.4-24.7C-183-84.8-93.5-48.5-17.2,7.7,131.6,115.8,254.9,304.1,374.3,486.1c84.2,128.4,171.2,261.1,266.7,365.2,120.1,130.9,254.4,199.5,389.8,199.5Z"/>
            <path class="cls-5" d="M1051.6,1076.3c6.8,0,13.7-.2,20.5-.6,78.9-4.1,157.8-32,234.7-83,83.2-55.1,164.8-137.9,242.8-246,21.3-29.7,42.8-61.7,63.6-92.7,44-65.9,89.6-134,136.1-181.4,52.1-53.4,105-78.7,152.7-72.9,37.8,4.6,70.4,29.1,94.8,70.9,30.2,51.9,49.1,129.8,67.3,204.9,11.6,48.2,23.6,97.8,38.6,140.6,20.5,58.6,48.2,103.8,82.2,134.7,32.6,29.4,70.4,45,112.4,46.4,37.8,1.2,78.5-9.2,120.6-30.9,42.1-21.8,84.9-54.5,127.2-97.2,88.9-90,171-219.9,237.8-376,62.3-145.6,112.5-309.4,161.1-467.9,43.6-142,88.6-288.9,142.3-422.8,42.5-105.9,96.9-204.5,153.2-277.7,58.1-75.5,113.4-117.1,156.1-117.1h.5c31,.3,55,22,71.2,64.6l1.1-.4c-16.4-43.1-40.7-65.1-72.3-65.4h-.6c-42.9,0-98.7,41.7-157,117.5-56.4,73.3-110.9,172-153.4,278-53.7,133.8-98.7,280.7-142.3,422.8-48.6,158.4-98.8,322.1-161,467.8-66.6,155.8-148.8,285.6-237.6,375.5-42.2,42.6-84.9,75.3-126.9,97-42,21.7-82.4,32-120,30.8-41.6-1.3-79.4-16.9-111.7-46.1-33.8-30.6-61.4-75.8-81.8-134.3-15.1-42.7-27-92.4-38.6-140.5-18.2-75-37.1-152.7-67.3-204.9-24.6-42.1-57.6-66.8-95.7-71.5-48-5.7-101.3,19.5-153.8,73.2-46.5,47.4-92.1,115.6-136.1,181.5-20.8,31-42.2,63-63.5,92.7-78.1,108-159.7,190.7-242.6,245.7-76.7,50.8-155.5,78.7-234.1,82.8-142,7.4-283.1-62.4-408.2-201.7-94.5-105.5-180.8-240.1-264.1-370.3C281.7,317.9,159.5,126.9,11.4,17-64.4-40-153.8-77-248.3-90.5c-90.4-12.8-188.1-4.5-290.4,24.7-99,28.2-203.3,76.2-309.9,142.7-104.1,64.9-211.2,147.7-318.4,246.4-29.5,27.1-59.7,56-88.8,83.9-117.5,112.4-239.1,228.7-352.2,267.5-65.8,22.6-129.1,19-188.2-10.8-151.2-76.1-247-306.5-300.8-486.4-53.6-179.2-93.3-386.6-131.6-587.2-32.1-167.9-65.3-341.4-106.5-497.8-49.9-189.4-110.1-336.9-178.9-438.2-81-119.2-173.9-174.3-276.4-163.6v1.1c102-10.6,194.6,44.2,275.4,163.2,68.7,101.2,128.9,248.5,178.8,437.9,41.2,156.4,74.4,329.9,106.5,497.7,38.4,200.6,78,408,131.6,587.4,54.1,179.9,150.1,410.6,301.5,486.9,59.3,29.9,122.9,33.4,189,10.9,113.4-38.9,235-155.3,352.6-267.7,29.2-27.9,59.3-56.7,88.8-83.9,107.3-98.5,214.3-181.4,318.2-246.1,106.5-66.4,210.8-114.3,309.7-142.5,102.1-29.1,199.7-37.4,289.9-24.7C-154.2-75.8-65-38.8,10.6,18.2c147.9,109.8,270.1,300.7,388.2,485.4,83.3,130.2,169.5,264.9,264.2,370.4,119.4,132.6,253.3,202.4,388.7,202.4Z"/>
            <path class="cls-5" d="M1072.4,1101.9c6.2,0,12.4,0,18.7-.5,78.9-3.7,158.1-31.8,235.3-83.4,83.5-55.7,165.7-139.6,244.5-249.3,21.4-29.9,43.1-62.5,64-93.9,44.4-66.8,90.2-135.6,136.8-183.5,52.5-54.1,105.2-79.7,152.8-73.7,37.6,4.7,70.2,29.7,94.3,72,30.2,52.9,48.4,131.6,66.1,207.7,11.3,48.7,23.1,99.1,37.8,142.5,20.1,59.3,47.4,105.2,81.1,136.4,32.3,29.7,69.9,45.8,111.7,47.3,37.8,1.4,78.5-9,120.6-30.9,42.1-21.9,85.1-55,127.6-98.3,89.3-91,172.2-222.5,239.6-380.7,62.9-147.5,114-313.4,163.3-473.8,44.2-143.9,89.9-292.6,144.3-428.1,43-107.3,97.9-207.2,154.6-281.3,58.3-76.3,113.8-118.3,156.2-118.3h.8c30.9.4,54.6,22.5,70.6,65.6l1.1-.4c-16.1-43.6-40.2-65.9-71.6-66.4h-.8c-42.8,0-98.6,42.1-157.1,118.7-56.7,74.2-111.7,174.3-154.7,281.6-54.3,135.5-100.1,284.3-144.3,428.2-49.3,160.4-100.3,326.4-163.2,473.7-67.4,158.1-150.2,289.5-239.4,380.6-42.3,43.2-85.2,76.1-127.3,98.1-42.1,21.9-82.4,32.2-120,30.8-41.6-1.5-79-17.4-111-47-33.6-31-60.7-76.8-80.8-136-14.7-43.3-26.5-93.7-37.8-142.4-17.7-76.2-36.1-155-66.2-208-24.3-42.7-57.2-67.8-95.2-72.5-47.8-6-101.1,19.6-153.9,74-46.7,48-92.5,117-136.9,183.7-20.9,31.5-42.5,63.9-64,93.9-78.5,109.6-160.6,193.4-244,249.1-77.1,51.4-156,79.4-234.8,83.2-6.2.3-12.4.5-18.6.5-135,0-268.4-70.7-386.4-205.5-93.9-107-179.1-243.5-261.6-375.6C307.4,332.6,186.4,138.9,39.2,27.3-35.9-30.5-125-68.2-219.4-82.1c-90.2-13.1-187.8-4.8-290,24.6-99,28.4-203.3,77-310.2,144.1-104.3,65.6-211.7,149.4-319.2,249.2-29.6,27.5-59.8,56.6-89.1,84.9-117.9,113.8-239.9,231.4-353,270.7-65.3,22.6-128.1,19.1-186.5-10.6-151.2-76.7-245.9-310.9-298.9-493.9-52.5-181.7-91-391.9-128.2-595.2-31.1-170.1-63.3-346-103.6-504.4-48.8-192-108.1-341.5-176.2-444.2-80.2-121-172.7-176.8-275.1-166.2v1.1c102.1-10.7,194.1,45.1,274,165.6,68,102.7,127.3,252,176.1,443.9,40.3,158.4,72.5,334.3,103.6,504.4,37.2,203.3,75.6,413.6,128.2,595.3,52.9,183.2,148,417.7,299.5,494.6,58.7,29.7,121.8,33.4,187.4,10.6,113.4-39.3,235.4-157,353.4-270.7,29.3-28.2,59.5-57.4,89.1-84.9,107.5-99.7,214.8-183.5,319-249C-712.4,20.8-608.1-27.7-509.2-56.1c102.1-29.3,199.5-37.6,289.6-24.6C-126.1-67.2-39.3-30.4,38.5,28.5c147.1,111.3,268,305,384.9,492.3,82.5,132.1,167.7,268.6,261.7,375.7,118.5,134.5,252,205.4,387.3,205.4Z"/>
            <path class="cls-5" d="M1093.1,1127.4c5.6,0,11.3,0,16.9-.4,79.1-3.3,158.5-31.6,235.9-83.6,83.9-56.3,166.6-141.4,245.7-252.7,21.6-30.3,43.3-63,64.2-95,44.6-67.5,90.7-137.2,137.5-185.7,52.9-54.7,105.6-80.4,153-74.4,37.4,4.8,69.9,30,93.7,73.1,29.7,53.6,47.6,133.5,64.8,210.5,11.1,49.4,22.5,100.5,37,144.6,19.7,60,46.7,106.5,80.1,138.1,32,30.3,69.3,46.5,111,48.2,37.8,1.5,78.4-8.9,120.6-31,42.2-22.1,85.3-55.6,127.9-99.3,89.8-92.1,173.3-225.4,241.5-385.7,63.6-149.3,115.4-317.3,165.5-479.8,44.9-145.7,91.4-296.3,146.3-433.5,43.5-108.7,98.9-210,155.9-285,58.5-77.1,114-119.4,156.4-119.4h1.1c30.7.5,54.2,22.9,69.9,66.5l1.1-.4c-15.8-44.1-39.7-66.8-70.9-67.3-42.9-.8-99.1,41.8-158.4,119.8-57.1,75.1-112.5,176.4-156.1,285.2-54.9,137.2-101.4,287.8-146.3,433.5-50.1,162.4-101.9,330.4-165.5,479.7-68,160.1-151.6,293.3-241.2,385.3-42.6,43.7-85.5,77-127.7,99.1-42.2,22.1-82.4,32.4-120,30.9-41.6-1.7-78.6-17.8-110.3-47.9-33.2-31.5-60.1-77.9-79.8-137.7-14.4-43.9-25.9-95-36.9-144.3-17.3-77.2-35.1-157-64.9-210.8-24-43.3-56.7-68.8-94.5-73.6-47.7-6.1-101,19.7-154,74.7-46.8,48.5-93,118.4-137.6,185.9-20.8,31.8-42.5,64.6-64.1,94.8-79.4,111.3-161.8,196.2-245.7,252.4-77.4,51.9-156.6,80.1-235.3,83.6-5.6.3-11.3.4-16.8.4-134.9,0-267.7-71.9-385.1-208.7-93.1-108.6-177.6-247-259.1-380.8C333,346.8,213.3,150.4,67,37.2-10.4-22.7-97.1-60.1-190.5-74.1c-90-13.4-187.4-5.1-289.6,24.6-99,28.7-203.4,77.7-310.4,145.6-104.4,66.3-212,151.1-319.9,252-29.7,27.8-60.1,57.3-89.4,85.8-118.3,115-240.7,234.1-353.8,273.6-64.8,23.1-127,19.4-184.9-10.3-151.2-77.3-244.8-315.2-296.9-501.4-51.5-184.1-88.8-397.1-124.7-603.1-30.2-172.3-61.4-350.6-100.7-511.2-47.7-194.6-106.1-346.1-173.6-450.2-79.4-122.6-171.4-179.4-273.6-168.7v1.1c101.7-10.6,193.4,46,272.6,168.2,67.4,104.1,125.7,255.5,173.4,449.9,39.4,160.6,70.6,338.8,100.8,511.1,36.1,206,73.3,419.1,124.7,603.2,52.1,186.3,146,424.6,297.5,502.1,58.1,29.7,120.7,33.4,185.8,10.5,113.4-39.6,235.8-158.7,354.3-273.9,29.3-28.6,59.7-58.1,89.3-85.9,107.8-100.9,215.4-185.4,319.7-251.9C-683.1,29.2-578.8-19.7-480.1-48.4c102.1-29.7,199.3-37.8,289.1-24.5C-97.7-59-11.2-21.7,66.1,38.1c146.2,113.1,265.9,309.4,381.7,499.3,81.6,133.9,166,272.3,259.2,381,117.7,137.2,250.8,209.1,386.1,209.1Z"/>
            <path class="cls-5" d="M1113.8,1153.1c5.1,0,10.1,0,15.1-.3,79-3.2,158.8-31.5,236.5-84.1,84.5-57,167.6-143.1,247.4-256.1,21.7-30.7,43.6-64,64.7-96.2,44.9-68.3,91.3-138.9,138.2-188,52.9-55.4,105.8-81.3,153.1-75.1,37.4,4.9,69.6,30.5,93.2,74.2,29.4,54.3,46.8,135.1,63.6,213.3,10.8,50,21.9,101.8,36.1,146.4,19.3,60.7,46,107.8,79,139.9,31.7,30.7,68.9,47.3,110.4,49.1,37.8,1.7,78.3-8.7,120.6-31,42.3-22.3,85.5-56.1,128.3-100.4,90.2-93.2,174.2-228.2,243.3-390.5,64.3-151.2,116.9-321.3,167.8-485.9,45.6-147.5,92.8-300,148.3-438.9,44.1-110.2,99.9-212.7,157.2-288.6,58.8-77.9,114.3-120.6,156.5-120.6h1.4c30.6.7,53.9,23.4,69.2,67.5l1-.4c-15.5-44.5-39.2-67.6-70.3-68.2h-1.4c-42.6,0-98.3,42.9-157.4,121.1-57.4,76-113.4,178.6-157.4,288.8-55.6,138.9-102.7,291.4-148.3,438.9-50.9,164.5-103.5,334.5-167.7,485.9-68.9,162.1-153,297-243,390.1-42.8,44.2-85.8,77.9-128.1,100.1-42.3,22.2-82.5,32.7-120,31-41.2-1.9-78.1-18.3-109.6-48.8-33-31.9-59.5-78.8-78.8-139.4-14.2-44.5-25.3-96.4-36.1-146.2-16.9-78.2-34.2-159.1-63.7-213.6-23.7-43.9-56.3-69.7-94-74.7-47.6-6.2-100.9,19.8-154.1,75.5-47,49-93.5,119.6-138.3,187.9-21.2,32.2-43.1,65.5-64.7,96.1-79.8,112.9-162.9,198.9-247.1,255.9-77.7,52.5-157.1,80.7-235.9,83.9-139.8,5.7-278-67.5-398.9-211.4-92.4-110.3-176-250.5-256.6-386.3C358.9,361.5,240.4,162.3,94.9,47.5,17.9-13.3-68.4-51.3-161.6-65.5c-89.7-13.6-187.1-5.4-289.3,24.4-98.9,28.9-203.4,78.4-310.5,147.1-104.6,67-212.5,152.7-320.7,254.8-29.7,28.1-60.2,58-89.7,86.9-118.7,116.3-241.4,236.7-354.6,276.6-64.4,22.7-126.1,19.3-183.3-10.1-151.2-77.9-243.8-319.7-294.8-508.8-50.4-186.6-86.5-402.4-121.4-611.1-29.3-174.6-59.5-355.2-98.1-517.8-46.6-197.2-104.1-350.7-170.9-456.2-78.6-124.3-170.1-181.9-272.1-171.2v1.1c101.6-10.6,192.8,46.8,271.2,170.6,66.7,105.5,124.2,258.9,170.7,456,38.5,162.7,68.7,343.3,97.9,517.9,34.9,208.7,71,424.5,121.5,611.2,51.2,189.4,144,431.6,295.5,509.6,57.5,29.7,119.5,33,184.2,10.2,113.4-40,236.3-160.4,355.1-276.9,29.4-28.9,59.9-58.7,89.7-86.8,108.1-102.1,216-187.7,320.5-254.7C-653.8,38.5-549.2-10.9-450.6-39.8c102.1-29.7,199.2-38.1,288.7-24.4C-68.8-50.1,17.3-12.3,94.1,48.5c145.4,114.6,263.8,313.6,378.3,506.1,80.7,135.7,164.2,276.1,256.7,386.2,116.8,139.2,249.5,212.3,384.7,212.3Z"/>
            <path class="cls-5" d="M1134.5,1178.7c4.5,0,9,0,13.5-.2,79.1-2.9,158.8-31.3,237-84.5,84.6-57.6,168.3-144.8,248.8-259.5,21.8-31,43.8-64.7,65.1-97.3,45.2-69.1,91.8-140.6,138.9-190.2,52.9-56,106.1-82.2,153.2-75.9,37.3,5,69.3,31,92.6,75.2,29,55,46,136.9,62.4,216.1,10.5,50.7,21.4,103.1,35.3,148.3,18.9,61.5,45.4,109.1,78.1,141.6,31.4,31.2,68.3,48,109.6,50,37.8,1.9,78.2-8.6,120.6-31.1,42.4-22.5,85.7-56.7,128.7-101.4,90.7-94.2,175.3-230.9,245.1-395.3,64.9-153,118.3-325.2,170.1-491.7,46.3-149.3,94.2-303.7,150.3-444.2,44.6-111.6,100.9-215.3,158.8-292.2,59-78.6,114.6-121.8,156.7-121.8h1.6c30.2.8,53.5,23.8,68.6,68.4l1.1-.3c-15.1-45.1-38.7-68.4-69.7-69.2h-1.6c-42.5,0-98.3,43.3-157.6,122.4-57.7,76.9-114.1,180.8-158.7,292.4-56.4,140.5-104.1,294.9-150.6,444.2-51.6,166.5-105,338.7-169.9,491.6-69.7,164.2-154.4,300.8-244.8,395-42.9,44.5-86.1,78.7-128.5,101.2-42.4,22.5-82.5,32.8-120,31-41.1-2-77.7-18.7-108.9-49.7-32.7-32.4-58.9-79.9-77.8-141.2-13.9-45.1-24.8-97.5-35.3-148.4-16.4-79.2-33.4-161.2-62.5-216.4-23.5-44.5-55.8-70.7-93.5-75.8-47.5-6.4-100.8,20-154.2,76.2-47,49.9-93.8,121.4-139,190.5-21.3,32.6-43.3,66.3-65.1,97.3-80.4,114.4-164.2,201.6-248.5,259.1-78.2,53-157.5,81.4-236.4,84.3-139.4,5.1-276.3-69.2-396-214.9-91.7-111.6-174.2-253.8-254.1-391.4C384.5,375.9,267.4,174.3,122.7,57.6,46.2-4-39.8-42.5-132.7-57.1c-89.5-13.9-186.7-5.7-288.8,24.4-98.9,29.2-203.5,79.1-310.8,148.4-104.7,67.7-212.9,154.4-321.3,257.6-29.9,28.4-60.5,58.6-90,87.8-119.1,117.7-242.2,239.4-355.3,279.7-64,22.7-125.2,19.4-181.8-9.9-151.2-78.3-242.6-324-292.9-516.3-49.6-188.9-84.6-407.4-118.2-618.8-28.2-176.9-57.4-359.8-95-524.6-45.4-199.7-102.1-355.3-168.2-462.3-77.8-126.1-168.9-184.5-270.9-173.8v1.1c101.4-10.7,192.3,47.7,269.8,173.2,66.1,107,122.6,262.4,168.1,462,37.6,164.6,66.8,347.6,95,524.4,33.8,211.4,68.7,430.2,118.1,619.1,50.3,192.5,142,438.5,293.4,517,56.9,29.7,118.4,32.9,182.7,10,113.4-40.4,236.7-162.2,355.9-280,29.6-29.2,60.1-59.3,89.9-87.8,108.5-103.2,216.5-189.8,321.3-257.5C-624.4,47.3-520-2.6-421.2-31.8c102.1-30,199-38.2,288.3-24.3C-40.1-41.6,45.7-3.1,122,58.4c144.5,116.4,261.6,318.1,374.9,513.2,79.9,137.6,162.5,279.8,254.2,391.5,116,141.3,248.3,215.6,383.3,215.6Z"/>
            <path class="cls-5" d="M1155.1,1204.3c3.8,0,7.9,0,11.9-.2,79.1-2.6,159-31.1,237.5-84.9,84.9-58.2,169.1-146.6,250.3-262.7,21.9-31.4,44.1-65.5,65.5-98.4,45.3-69.9,92.4-142.2,139.8-192.4,53.3-56.6,106.2-83.1,153.3-76.7,37.2,5.1,69.1,31.5,92.1,76.3,28.7,55.6,45.4,138.7,61.2,218.8,10.2,51.3,20.8,104.4,34.5,150.2,18.6,62.2,44.5,110.4,77.1,143.4,31.1,31.6,68,48.8,109,50.9,37.8,2,78.2-8.5,120.6-31.2,42.4-22.7,85.9-57.2,129.1-102.5,90.9-95.3,176.3-233.7,246.9-400.1,65.6-154.8,119.8-329.2,172.2-497.7,47-151.1,95.6-307.4,152.3-449.7,45.1-113,102.1-218,159.9-295.8,59.3-79.4,114.9-123,156.9-123h1.8c30.2.9,53.1,24.3,68,69.4l1-.3c-15.1-45.6-38.2-69.2-69-70.2h-1.9c-42.4,0-98.3,43.7-157.8,123.5-58.1,77.9-114.9,182.9-160,296-56.7,142.3-105.4,298.6-152.4,449.7-52.3,168.5-106.5,342.8-172.1,497.6-70.5,166.3-155.8,304.6-246.6,399.8-43.1,45.2-86.4,79.6-128.8,102.3-42.4,22.7-82.7,33.1-120,31.1-40.9-2.2-77.4-19.2-108.3-50.6-32.4-32.8-58.2-80.9-76.8-142.9-13.7-45.7-24.2-98.8-34.4-150.1-16-80.3-32.5-163.2-61.3-219.2-23.2-45.1-55.4-71.7-93-76.9-47.4-6.5-100.7,20.1-154.2,77-47.3,50.3-94.5,122.6-139.8,192.6-21.4,33-43.6,67-65.5,98.4-81.1,116-165.2,204.4-250.1,262.4-78.3,53.6-158,82.1-236.9,84.7-138.8,4.6-274.7-70.9-393.1-218.2-90.9-113.1-172.6-257.2-251.7-396.6C410.5,390.5,294.3,186,150.6,67.8,74.5,5.2-11.1-34-103.8-48.8c-89.2-14.2-186.3-6.1-288.4,24.3-98.9,29.4-203.5,79.9-311,149.9-104.9,68.4-213.2,156-322.1,260.4-30,28.7-60.5,59.3-90.3,88.8-119.5,119.1-243,242.1-356.2,282.8-63.5,22.8-124.2,19.5-180.2-9.7-151.2-78.8-241.5-328.3-290.8-523.8-48.3-191.5-82-412.9-114.6-627-27.3-179.1-55.5-364.4-92.1-531.4-44.4-202.3-100.1-359.8-165.5-468.4-77-127.7-167.7-187-269.5-176.3v1.1c101.3-10.6,191.7,48.5,268.4,175.8,65.4,108.4,120.9,265.9,165.4,468,36.6,166.9,64.8,352.3,92.1,531.3,32.6,214.1,66.3,435.6,114.7,627.1,49.4,195.7,139.8,445.5,291.4,524.5,56.3,29.4,117.2,32.7,181.2,9.8,113.4-40.8,237.1-163.9,356.6-283,29.7-29.7,60.5-60,90.3-88.8,108.8-104.3,217.1-191.9,322-260.3C-595.4,56.3-490.9,5.9-392.1-23.4c102.1-30.3,198.8-38.5,287.9-24.3C-11.7-32.8,73.7,6.2,149.6,68.6c143.6,118.1,259.6,322.4,371.6,520.1,79,139.4,160.8,283.6,251.7,396.8,115.4,143.3,247.3,218.7,382.1,218.7Z"/>
            <path class="cls-5" d="M1175.9,1229.9h10.4c79.2-2.3,159.2-31,238.1-85.3,85.3-58.8,170.1-148.4,251.8-266.1,21.9-31.9,44.2-66.3,65.8-99.7,45.7-70.7,93-143.9,140.4-194.6,53.5-57.2,106.5-84,153.3-77.4,37.1,5.2,68.8,31.9,91.6,77.3,28.4,56.5,44.4,140.5,59.9,221.7,9.9,51.9,20.2,105.7,33.6,152.1,18.2,63,43.8,111.7,76.1,145.2,30.9,32,67.4,49.5,108.4,51.9,37.6,2.1,78.1-8.4,120.6-31.3,42.5-22.9,86.1-57.7,129.5-103.5,91.3-96.4,177.3-236.4,248.6-405,66.3-156.7,121.2-333.1,174.4-503.7,47.7-153,96.9-311.1,154.3-455,45.6-114.4,102.9-220.7,161.2-299.3,59.5-80.2,115.1-124.2,157-124.2h2.1c30.2,1,52.9,24.7,67.3,70.5l1.1-.3c-14.7-46.1-37.8-70.1-68.4-71.1-42.5-1.4-99.3,42.8-160,124.6-58.4,78.7-115.7,185.1-161.3,299.6-57.4,143.9-106.7,302.1-154.4,455.1-53.1,170.6-108.1,346.9-174.4,503.5-71.3,168.5-157.2,308.4-248.4,404.7-43.3,45.7-86.9,80.4-129.2,103.3-42.2,22.8-82.7,33.4-120,31.2-40.8-2.3-77-19.6-107.7-51.4-32.1-33.4-57.6-82-75.6-144.6-13.4-46.3-23.7-100.1-33.6-152.1-15.5-81.3-31.6-165.3-60-222-22.9-45.7-54.9-72.7-92.4-77.9-47.2-6.7-100.7,20.2-154.4,77.9-47.7,50.3-95,123.6-140.8,194.4-21.6,33.4-43.9,67.8-65.9,99.5-81.7,117.6-166.3,207.1-251.5,265.8-78.6,54.2-158.5,82.8-237.4,85.1h-10.3c-134.6,0-265.7-76.4-379.8-221.5-90.2-114.7-171-260.7-249.2-401.9C435.9,404.9,321.2,197.6,178.3,77.8,102.7,14.4,17.5-25.4-74.9-40.6c-89-14.5-185.9-6.4-288,24.2-98.8,29.7-203.5,80.6-311.2,151.4-105.1,69.1-213.7,157.7-322.9,263.3-30.2,29.1-60.8,59.9-90.7,89.8-119.9,120.4-243.8,244.8-357,285.8-63.2,22.8-123.3,19.7-178.7-9.5-151-79.3-240.3-332.7-288.8-531.3-47.2-193.9-79.8-418.1-111.2-634.9-26.5-181.4-53.5-369-89.2-538.1-43.3-204.9-98.1-364.5-162.8-474.4-76.2-129.4-166.3-189.6-268.1-178.9v1.1c101.2-10.6,191.1,49.4,267,178.4,64.7,109.8,119.4,269.3,162.7,474.1,35.7,169.1,62.9,356.7,89.2,538.1,31.5,216.8,64,441.1,111.2,635,48.5,198.9,138.2,452.6,289.6,532.1,55.8,29.3,116.2,32.5,179.7,9.5,113.4-41.1,237.5-165.6,357.4-286.1,29.8-29.7,60.5-60.7,90.7-89.8,109.1-105.5,217.7-194,322.7-263.1C-565.8,65.4-461.2,14.5-362.5-15.1c102.1-30.6,198.7-38.7,287.5-24.2C17.3-24.2,102.3,15.5,177.8,78.8c142.8,119.8,257.4,326.8,368.3,527.1,78.2,141.3,159,287.3,249.3,402,114,145.5,245.6,222,380.6,222Z"/>
            <path class="cls-5" d="M1196.6,1255.4h8.8c79.4-2,159.4-30.8,238.5-85.7,85.6-59.3,170.8-150,253.2-269.4,22.1-32.1,44.6-67,66.3-100.7,46-71.5,93.5-145.5,141.1-196.8,53.6-57.9,106.7-84.9,153.4-78.2,37.1,5.3,68.6,32.4,91.1,78.4,28,57.3,43.6,142.3,58.7,224.5,9.7,52.6,19.7,107.1,32.8,154,17.8,63.6,43.1,113.1,75.1,146.9,30.6,32.5,66.9,50.2,107.8,52.7,37.4,2.3,78-8.3,120.6-31.4,42.6-23.1,86.2-58.3,129.8-104.6,91.6-97.6,178.2-239.3,250.1-409.9,67-158.5,122.7-337,176.6-509.6,48.4-154.8,98.3-314.8,156.4-460.4,46.2-115.8,103.9-223.4,162.5-303,59.7-81,115.4-125.4,157.2-125.4h2.2c30.1,1.2,52.5,25.1,66.8,71.3l1.1-.3c-14.4-46.7-37.2-70.9-67.7-72.1h-2.3c-42.2,0-98.3,44.5-158.1,125.9-58.7,79.6-116.4,187.3-162.5,303.2-58,145.6-108,305.7-156.4,460.5-53.9,172.6-109.6,351-176.6,509.5-72,170.6-158.5,312.1-250.2,409.5-43.5,46.2-86.9,81.3-129.5,104.4-42.6,23.1-82.8,33.4-120,31.2-40.6-2.4-76.6-20.1-107-52.3-31.8-33.7-57-83-74.8-146.5-13.2-46.9-23.2-101.3-32.8-153.9-15.1-82.3-30.7-167.4-58.8-224.8-22.7-46.3-54.5-73.7-91.9-79-47.1-6.8-100.5,20.4-154.4,78.5-47.7,51.4-95.2,125.4-141.2,197-21.5,33.7-44.2,68.5-66.2,100.6-82.3,119.2-167.4,209.8-252.9,269.1-78.9,54.7-158.8,83.5-237.8,85.3h-8.8c-134.5,0-265.1-77.6-378.5-224.8-89.4-116.2-169.4-264.1-246.7-407.2C461.8,419.2,348.4,209.3,206.2,87.8,131.1,23.5,46.2-16.9-46.1-32.3c-88.8-14.8-185.6-6.7-287.7,24.1-98.8,29.9-203.6,81.3-311.4,152.8-105.2,69.8-214.1,159.5-323.6,266.1-30.2,29.4-61,60.6-90.7,90.8-120.3,121.7-244.6,247.5-357.8,288.8-62.7,22.9-122.3,19.8-177.2-9.2-83.2-44-200.7-173.2-286.7-538.8-46.2-196.3-77.5-423.4-107.8-642.9-25.4-183.7-51.5-373.6-86.4-544.8-42.1-207.5-96.1-369.1-160.1-480.5-75.6-131.1-165.2-192.1-266.8-181.4v1.1c101.1-10.6,190.4,50.2,265.6,180.9,64.2,111.3,117.9,272.8,160,480.1,34.8,171.2,61,361.1,86.3,544.8,30.2,219.5,61.6,446.5,107.8,642.9,47.6,202.4,135.9,459.9,287.2,539.9,55.2,29.1,115.2,32.3,178.2,9.3,113.4-41.4,237.8-167.3,358.2-289.3,29.9-30.2,60.7-61.4,90.7-90.8,109.6-106.7,218.3-196.1,323.4-265.9C-536.9,74.3-432.2,22.9-333.5-6.9-231.5-37.7-135-45.8-46.3-31,45.8-15.6,130.5,24.6,205.4,88.8c141.9,121.4,255.3,331.2,364.9,534.1,77.3,143.1,157.3,291,246.8,407.3,113.6,147.5,244.6,225.2,379.5,225.2Z"/>
            <path class="cls-5" d="M1217.2,1281h7.6c79.2-1.7,159.5-30.7,238.9-86.1,85.8-60.2,171.4-151.8,254.5-272.8,22.3-32.5,44.8-67.7,66.6-101.8,46.3-72.3,94.1-147.1,141.9-199,53.8-58.5,106.9-85.7,153.5-78.9,37,5.4,68.3,32.9,90.5,79.5,27.7,58,42.9,144,57.5,227.3,9.4,53.3,18.9,108.4,32,155.8,17.5,64.4,42.4,114.4,74.1,148.7,30.2,32.9,66.4,50.9,107.2,53.6,37.4,2.4,77.9-8.2,120.6-31.5,42.6-23.3,86.4-58.9,130.1-105.7,92.1-98.5,179.2-241.9,252.1-414.6,67.6-160.3,124.2-340.9,178.8-515.5,49.1-156.6,99.7-318.5,158.4-465.8,46.7-117.2,104.8-226.2,163.8-306.5,61.1-83.4,117.9-128.4,159.8-126.5,29.9,1.3,52.1,25.6,66.1,72.2l1.1-.3c-14.1-47.2-36.7-71.7-67.2-73h-2.4c-42.1,0-98.3,45-158.3,127.1-59,80.5-117.2,189.5-163.9,306.8-58.7,147.4-109.4,309.3-158.4,465.9-54.7,174.6-111.2,355.2-178.8,515.5-72.8,172.6-159.9,315.8-251.9,414.3-43.6,46.7-87.3,82.2-129.9,105.4-42.5,23.2-82.7,33.7-119.9,31.3-40.5-2.6-76.3-20.5-106.4-53.2-31.6-34.2-56.4-84-73.9-148.3-12.9-47.4-22.7-102.6-31.9-155.8-14.7-83.3-29.8-169.5-57.6-227.6-22.4-47-54.1-74.6-91.4-80.1-47-6.9-100.4,20.5-154.5,79.3-47.8,51.9-95.7,126.8-142,199.2-21.8,34.1-44.4,69.4-66.6,101.8-83.2,120.8-168.6,212.5-254.3,272.4-79.4,55.2-159.3,84.1-238.3,85.9h-7.6c-134.4,0-264.6-78.7-377.1-228-88.7-117.7-167.7-267.5-244.2-412.4C487.3,433.8,375.1,221.2,233.9,97.9,159.2,32.8,74.7-8.3-17.3-24-105.9-39.1-202.5-31-304.6,0c-98.8,30.1-203.6,82-311.6,154.3-105.4,70.5-214.5,161-324.4,268.9-30.2,29.7-61.2,61.3-91.1,91.8-120.7,123-245.4,250.2-358.6,291.9-62.3,23-121.4,20-175.8-8.9-83.2-44.3-200.3-175-284.6-546.3-45.1-198.8-75.2-428.6-104.4-650.8-24.4-185.9-49.6-378.3-83.5-551.6-41.1-210-94-373.7-157.4-486.5-74.6-132.8-164-194.7-265.4-184v1.1c101-10.6,189.9,51.1,264.3,183.4,63.7,113,116.6,276.6,157.6,486.5,34,173.3,59.1,365.6,83.5,551.5,29.1,222.3,59.3,452.1,104.4,650.9,46.6,205.2,134,466.7,285.2,547.1,54.7,29,114.1,32.1,176.7,9,113.4-41.8,238.1-169,359.1-292.1,29.9-30.5,60.9-62,91.1-91.8,109.6-107.8,218.8-198.2,324.2-268.7C-507.4,83.4-402.7,31.5-304,1.5-202.1-29.6-105.7-37.7-17.2-22.6,74.5-6.9,158.9,34,233.4,99c141,123.1,253.2,335.5,361.6,541,76.2,144.9,155.6,294.8,244.2,412.6,112.7,149.6,243.3,228.4,378,228.4Z"/>
            <path class="cls-5" d="M1237.9,1306.6h6.1c79.4-1.4,159.7-30.5,239.3-86.5,86.2-60.6,172.4-153.5,256-276,22.4-32.8,45.1-68.5,67-103,46.5-73.2,94.5-148.8,142.6-201.2,54-59.1,107.1-86.6,153.6-79.7,36.9,5.5,68,33.4,90,80.6,27.4,58.7,42,145.9,56.2,230.1,9.1,54,18.5,109.7,31.1,157.8,17.2,65.2,41.8,115.7,73.3,150.5,30.2,33.4,65.9,51.6,106.6,54.4,37.4,2.6,77.9-8,120.6-31.6,42.7-23.5,86.6-59.3,130.5-106.7,92.4-99.6,180.2-244.8,253.8-419.4,68.3-162.2,125.6-344.9,181.1-521.5,49.7-158.4,101.1-322.2,160.4-471,47.2-118.7,105.8-228.8,165.1-310.1,60.2-82.6,116-127.8,157.6-127.8h2.6c29.8,1.4,51.8,26,65.5,73.2l1.1-.3c-13.9-47.7-36.2-72.6-66.6-74-42.3-1.9-99.5,43.6-161.2,128.2-59.3,81.4-118,191.6-165.2,310.4-59.3,149.1-110.7,312.9-160.4,471.3-55.4,176.6-112.8,359.3-181,521.4-73.6,174.6-161.2,319.6-253.6,419.1-43.8,47.2-87.6,83.1-130.2,106.5-42.6,23.4-82.8,34-119.9,31.4-40.3-2.8-75.9-20.9-105.8-54-31.3-34.7-55.8-85.1-72.9-150-12.6-48.2-22-103.9-31.1-157.7-14.3-84.3-29-171.5-56.4-230.4-22.1-47.5-53.6-75.6-90.7-81.2-46.9-7-100.3,20.7-154.6,80-48,52.5-96.2,128.2-142.7,201.4-21.9,34.5-44.6,70.1-67,103-83.5,122.4-169.6,215.1-255.7,275.7-79.4,55.6-159.7,84.9-238.7,86.3h-6c-134.2,0-264-79.8-375.7-231.2-87.9-119.2-166.1-270.7-241.7-417.7-107.3-208.2-218.2-423.4-358.5-548.3C187.9,42.5,103.8,1,12-15.1c-88.3-15.4-184.8-7.4-286.8,24-98.8,30.3-203.6,82.7-311.8,155.8-105.5,71.3-214.9,162.7-325.1,271.7-30.2,30-61.4,61.9-91.4,92.7-121,124.3-246.2,252.8-359.4,294.9-61.9,23-120.5,20.1-174.3-8.7-83.1-44.5-199.9-176.7-282.4-553.8-44-201.2-73-433.9-101-658.8-23.4-188.2-47.7-382.8-80.6-558.3-40.3-212.7-92.3-378.5-155.1-492.7-73.9-134.4-162.5-197.2-264-186.6v1.1c100.8-10.6,189.2,51.9,262.9,186,62.7,114.1,114.7,279.7,154.6,492.2,32.9,175.4,57.2,370,80.6,558.2,28,225,57,457.6,101,658.9,45.6,208.4,131.7,473.8,283,554.6,54.1,28.9,113.1,31.9,175.2,8.8,113.4-42.1,238.7-170.6,359.8-295.2,30-30.8,61.1-62.7,91.4-92.7,110.1-109,219.4-200.3,325.1-271.6C-478.3,92.4-373.5,40-274.8,9.6-173-21.7-76.7-29.7,11.5-14.3,103,1.6,187,43.1,260.9,109.1c140.2,124.7,251,339.9,358.3,548,75.6,146.7,153.8,298.5,241.9,417.8,112,151.8,242.1,231.8,376.8,231.8Z"/>
            <path class="cls-5" d="M1258.5,1332.2h4.8c79.1-1.1,159.8-30.3,239.7-86.8,86.6-61.2,173.2-155.2,257.4-279.3,22.7-33.4,45.4-69.3,67.4-104.1,46.8-74,95.2-150.4,143.3-203.4,54.2-59.7,107.3-87.5,153.6-80.4,36.8,5.6,67.8,33.8,89.5,81.6,27,59.3,41.2,147.6,55,232.9,8.8,54.6,17.9,111.1,30.2,159.7,16.8,65.8,41,117,72.2,152.3,29.9,33.8,65.5,52.4,106.1,55.2,37.2,2.7,77.8-8,120.5-31.7,42.7-23.7,86.9-60,130.9-107.8,92.8-100.6,181.2-247.3,255.6-424.2,69-164,127.1-348.6,183.3-527.5,50.4-160.2,102.6-325.9,162.5-476.6,47.7-120,106.8-231.4,166.3-313.7,60.5-83.4,116.3-129.1,157.8-129.1h2.8c29.7,1.5,51.5,26.4,64.9,74.2l1.1-.3c-13.6-48.2-35.8-73.4-66-75-42.2-2.2-99.5,43.9-161.5,129.4-59.6,82.3-118.8,193.8-166.5,313.9-59.9,150.8-112,316.4-162.5,476.7-56.2,178.7-114.3,363.5-183.3,527.4-74.3,176.7-162.5,323.3-255.3,423.9-44,47.7-87.9,83.9-130.6,107.6-42.6,23.7-82.9,34.2-119.9,31.5-40.2-2.9-75.6-21.4-105.3-54.9-31-35.1-55.2-86.2-71.8-151.8-12.4-48.6-21.5-105.1-30.2-159.5-13.8-85.3-28-173.6-55.1-233.2-21.9-48.2-53.1-76.6-90.4-82.3-46.8-7.1-100.2,20.8-154.7,80.8-48.1,53-96.6,129.5-143.4,203.5-22,34.9-44.9,70.9-67.4,104.1-84.2,124-170.7,217.9-257,279-79.7,56.4-160.2,85.5-239.1,86.7h-4.7c-134.2,0-263.5-80.9-374.2-234.4-87.2-120.8-164.5-274.4-239.3-422.8-106.1-210.8-215.7-428.7-355.3-555.2C216.2,52,132.4,9.7,40.8-6.7c-88.1-15.7-184.4-7.7-286.5,23.9-98.7,30.6-203.6,83.4-312,157.2-105.8,72-215.4,164.3-325.8,274.5-30.4,30.3-61.6,62.6-91.7,93.8-121.7,125.4-247.2,255.3-360.6,297.7-61.5,23-119.6,20.2-172.8-8.4-83.2-44.7-199.5-178.4-280.3-561.4-43-203.7-70.8-439.1-97.6-666.7-22.7-190.5-45.7-387.4-77.8-565-38.8-215.1-89.9-382.9-152.1-498.6-73.1-136.2-161.4-199.8-262.6-189.2v1.1c100.7-10.6,188.6,52.8,261.5,188.5,62,115.6,113.1,283.2,151.9,498.2,32,177.6,55.3,374.6,77.7,565,26.8,227.6,54.6,463.1,97.6,666.8,44.7,211.6,129.6,480.8,280.9,562.1,53.6,28.8,112,31.6,173.9,8.5,113.4-42.5,239.1-172.5,360.6-298.2,30.2-31.2,61.3-63.4,91.7-93.7,110.6-110.1,220.2-202.4,326-274.3C-449,101.4-344.1,48.6-245.5,18-143.7-13.5-47.5-21.5,40.4-5.8c91.3,16.3,174.9,58.4,248.6,125.2,139.3,126.4,248.9,344.3,355,554.9,74.8,148.6,152.1,302.2,239.4,423.1,111,153.8,240.6,234.9,375.2,234.9Z"/>
          </g>
          <g class="cls-6">
            <ellipse class="cls-4" cx="707.8" cy="761.9" rx="346.7" ry="403.1" transform="translate(-296.1 490.5) rotate(-32)"/>
          </g>
        </g>
      </g>
    </g>
  </g>
  <image width="306" height="471" transform="translate(-572.6 302.3)" xlink:href="hero_bg-1.png"/>
</svg>