<svg width="1918" height="1022" viewBox="0 0 1918 1022" fill="none" xmlns="http://www.w3.org/2000/svg">
<g clip-path="url(#clip0_230_111)">
<mask id="mask0_230_111" style="mask-type:luminance" maskUnits="userSpaceOnUse" x="0" y="0" width="1918" height="1022">
<path d="M1918 0H0V1022H1918V0Z" fill="white"/>
</mask>
<g mask="url(#mask0_230_111)">
<path d="M-1.3999 -1H1918.6V1023H-1.3999V-1Z" fill="url(#paint0_linear_230_111)"/>
<g opacity="0.97">
<g opacity="0.08">
<path opacity="0.8" d="M905.6 897.2C917.4 897.2 929.3 896.8 941.1 895.8C1019.1 889.6 1096.3 862.4 1170.6 815.5C1251 764.8 1328.8 690 1402 593.3C1422.5 566.2 1443 536.9 1462.9 508.5C1505 448.3 1548.6 386.1 1593.8 342.6C1644.7 293.7 1697.2 270.3 1745.6 275C1784 278.7 1818.3 300.7 1844.6 338.5C1877.3 385.5 1899.3 455.8 1920.5 523.9C1934.1 567.4 1948.1 612.4 1964.9 651.1C1988.3 705 2018.6 746.3 2054.9 773.8C2088.7 799.851 2130.23 813.859 2172.9 813.6C2211.1 813.6 2251.6 803.2 2293 782.7C2334.4 762.2 2376.1 731.9 2417 692.7C2502.8 610.3 2580.4 492.4 2641.5 351.5C2699.1 218.7 2743.8 69.6001 2787 -74.7C2825.8 -204.1 2865.9 -338 2915.2 -460C2953.9 -555.8 3005 -645.4 3058.8 -712.2C3114.6 -781.4 3169.1 -820.2 3212.3 -821.3H3214.3C3245.7 -821.3 3270.7 -801.8 3288.7 -763.3L3289.8 -763.8C3271.5 -802.7 3246.2 -822.4 3214.2 -822.4H3212.2C3168.7 -821.2 3113.9 -782.4 3057.8 -712.9C3003.9 -646.1 2952.8 -556.4 2914 -460.4C2864.7 -338.5 2824.6 -204.7 2785.9 -75.3999C2742.7 68.8 2698 217.9 2640.5 350.6C2579.4 491.5 2501.9 609.3 2416.2 691.6C2375.5 730.7 2333.9 760.9 2292.5 781.4C2251.1 801.9 2211 812.2 2172.9 812.2C2130.52 812.452 2089.28 798.551 2055.7 772.7C2019.5 745.3 1989.3 704.1 1966.1 650.3C1949.3 611.7 1935.3 566.7 1921.7 523.2C1900.5 455.1 1878.5 384.8 1845.7 337.8C1819.2 299.7 1784.7 277.6 1745.9 273.9C1697.2 269.2 1644.4 292.7 1593.2 341.9C1547.9 385.4 1504.4 447.7 1462.2 507.9C1442.3 536.3 1421.7 565.6 1401.3 592.7C1328.1 689.5 1250.4 764.1 1170.3 814.8C1096.2 861.7 1019.1 888.6 941.3 894.9C794.3 906.7 645.1 845 509.9 716.5C410.1 621.7 317.8 500.4 228.5 383C101.7 216.4 -29.3 44.3002 -183.6 -53.9999C-264.172 -105.669 -355.507 -138.201 -450.6 -149.1C-542.7 -159.8 -641.3 -151.3 -743.8 -123.9C-843 -97.2999 -946.8 -52.7999 -1052.4 8.6001C-1155.4 68.5001 -1260.8 144.7 -1365.6 235.3C-1394.4 260.2 -1423.9 286.7 -1452.5 312.3C-1567.3 415.5 -1686 522.1 -1799.2 558.5C-1906 592.8 -2007.1 564.5 -2099.8 474.5C-2180.4 396.2 -2252.2 274.2 -2313.3 112.1C-2374.4 -49.9999 -2422.3 -237.9 -2468.8 -419.5C-2507.7 -571.6 -2547.8 -728.7 -2595.4 -870.2C-2653.2 -1041.6 -2719.7 -1174.8 -2793.2 -1266.1C-2879.7 -1373.7 -2975.9 -1422.6 -3079.3 -1411.9V-1410.8C-2976.4 -1421.5 -2880.4 -1372.6 -2794.2 -1265.5C-2720.8 -1174.3 -2654.3 -1041.2 -2596.6 -869.9C-2548.5 -728.4 -2508.4 -571.2 -2469.6 -419.1C-2423.2 -237.4 -2375.1 -49.5999 -2314.1 112.6C-2253.1 274.8 -2181.1 397 -2100.4 475.4C-2007.5 565.8 -1905.9 594.1 -1798.7 559.7C-1685.3 523.2 -1566.5 416.5 -1451.6 313.2C-1423.1 287.6 -1393.7 261.3 -1364.7 236.2C-1259.9 145.7 -1154.6 69.5001 -1051.7 9.6001C-946.2 -51.7 -842.5 -96.2 -743.4 -122.8C-641 -150.2 -542.5 -158.7 -450.6 -148C-355.698 -137.076 -264.546 -104.617 -184.1 -53.0999C-30 45.3002 100.9 217.3 227.5 383.7C316.8 501.1 409.1 622.4 509 717.5C633.4 835.5 770 897.2 905.6 897.2Z" fill="white"/>
<path opacity="0.8" d="M926.6 922.8C937.6 922.8 948.7 922.4 959.8 921.5C1038 915.6 1115.4 888.4 1190.2 840.8C1270.8 789.4 1349.2 713.5 1423.1 615.2C1443.7 587.8 1464.4 558 1484.4 529.3C1526.8 468.3 1570.8 405.2 1616.2 361.2C1667.2 311.6 1719.8 288 1768.1 292.9C1806.4 296.6 1840.4 318.9 1866.4 357.4C1898.8 405.1 1920.3 476.5 1941.1 545.4C1954.4 589.6 1968.1 635.3 1984.7 674.5C2007.6 729.1 2037.6 770.9 2073.5 798.9C2106.82 825.372 2148.14 839.756 2190.7 839.7H2191.7C2229.5 839.7 2269.8 829.3 2310.9 808.8C2352 788.3 2394.4 757.5 2435.4 717.8C2521.7 634.3 2600 514.6 2661.9 371.5C2720.1 236.9 2765.7 85.6001 2809.6 -60.5999C2849 -191.7 2889.8 -327.4 2939.7 -451C2979 -548.2 3030.4 -639.1 3084.8 -706.9C3141 -777.1 3195.7 -816.2 3238.8 -817.1C3270.9 -817.7 3296.3 -798 3314.4 -758.2L3315.4 -758.6C3297.1 -798.8 3271.3 -818.9 3238.7 -818.2C3195.2 -817.3 3140.4 -778 3083.7 -707.6C3029.4 -639.8 2977.9 -548.8 2938.5 -451.5C2888.6 -327.8 2847.8 -192.2 2808.3 -61.0999C2764.3 85.1001 2718.9 236.3 2660.7 370.9C2598.8 513.8 2520.6 633.5 2434.5 716.9C2393.6 756.5 2351.8 787 2310.3 807.7C2268.8 828.4 2229.3 838.4 2191.6 838.4H2190.6C2148.34 838.448 2107.31 824.172 2074.2 797.9C2038.3 770 2008.6 728.3 1985.7 674C1969.2 634.8 1955.5 589.1 1942.1 544.9C1921.3 475.8 1899.8 404.4 1867.3 356.6C1841 318 1806.8 295.5 1768.1 291.6C1719.5 286.7 1666.6 310.5 1615.2 360.3C1569.8 404.4 1525.8 467.5 1483.4 528.6C1463.4 557.3 1442.7 587.1 1422.1 614.5C1348.3 712.7 1270 788.6 1189.4 839.9C1114.9 887.4 1037.6 914.5 959.6 920.4C813.4 931.5 665.4 868.5 531.7 738.7C432.6 642.3 341.2 519.1 252.8 400C127.2 231 -2.5 56.1001 -155.8 -43.7999C-235.749 -96.2975 -326.817 -129.472 -421.8 -140.7C-513.6 -151.8 -612.1 -143.2 -714.6 -115.6C-813.8 -88.7998 -917.6 -43.6998 -1023.4 18.4001C-1126.5 79.0001 -1232.2 156.2 -1337.3 247.9C-1366.2 273.1 -1395.8 299.8 -1424.2 325.8C-1539.4 430.3 -1658.5 538.3 -1771.7 575C-1878.5 609.7 -1979.3 580.8 -2071.2 489.3C-2151.1 409.7 -2222.1 285.9 -2282.1 121.3C-2342.1 -43.2999 -2388.9 -233.9 -2434.2 -418.3C-2472 -572.6 -2511.2 -732.1 -2557.9 -875.7C-2614.6 -1049.7 -2680.2 -1184.9 -2753 -1277.7C-2838.7 -1386.8 -2934.4 -1436.7 -3037.7 -1426.1V-1425C-2934.8 -1435.6 -2839.5 -1385.9 -2754 -1277.1C-2681.2 -1184.4 -2615.7 -1049.4 -2559.1 -875.5C-2512.4 -731.9 -2473.2 -572.5 -2435.3 -418.2C-2389.9 -233.8 -2343.2 -43.1998 -2283.2 121.5C-2223.2 286.1 -2152 410.3 -2071.8 490C-1979.5 581.8 -1878.4 610.8 -1771.1 576C-1657.7 539.2 -1538.5 431.1 -1423.4 326.5C-1394.8 300.5 -1365.3 273.8 -1336.5 248.6C-1231.4 157 -1125.8 79.8 -1022.8 19.2001C-917.2 -42.7999 -813.4 -87.8999 -714.3 -114.7C-612 -142.3 -513.6 -150.8 -421.9 -139.8C-327.098 -128.594 -236.202 -95.4882 -156.4 -43.0999C-3.5 56.9001 126.2 231.6 251.6 400.7C340 519.9 431.5 643.2 530.6 739.6C654.8 860 790.9 922.9 926.6 922.9V922.8Z" fill="white"/>
<path opacity="0.8" d="M947.5 948.4C957.8 948.4 968.1 948 978.3 947.3C1056.6 941.7 1134.4 914.4 1209.5 866.2C1290.6 814.3 1369.5 737.1 1444.1 637.1C1464.8 609.3 1485.7 579.2 1505.8 550.1C1548.5 488.3 1592.7 424.4 1638.1 379.8C1689.5 329.6 1742.1 305.6 1790.2 310.7C1828.4 314.7 1862 337.3 1888 376.3C1920.1 424.8 1940.9 497.2 1961.4 567.2C1974.4 612 1987.8 658.4 2004.2 698.3C2026.9 753.5 2056.2 796 2091.8 824.4C2124.66 851.188 2165.71 865.906 2208.1 866.1H2210.1C2247.7 866.1 2287.5 855.7 2328.4 835.2C2370 814.3 2412.2 783.3 2453.4 743.2C2540.1 658.6 2619.1 537.1 2681.8 391.9C2740.7 255.5 2787 102.1 2831.7 -46.2C2871.8 -179.2 2913.3 -316.6 2964 -441.9C3003.8 -540.6 3055.9 -632.8 3110.4 -701.5C3167.1 -772.6 3221.8 -812.1 3264.9 -812.8H3266.1C3297.4 -812.8 3322.2 -792.7 3339.8 -752.9L3340.9 -753.3C3322.9 -794.1 3297.4 -814.3 3265 -813.9C3221.6 -813.2 3166.5 -773.5 3109.7 -702.1C3055 -633.4 3003 -541.1 2963.1 -442.5C2912.5 -317.1 2871.1 -179.7 2830.8 -46.7C2786.1 101.7 2739.8 254.9 2680.9 391.3C2618.3 536.4 2539.4 657.7 2452.7 742.2C2411.6 782.3 2369.6 813.2 2328 834C2287.2 854.4 2247.6 864.7 2210.2 864.7H2208.2C2166.11 864.468 2125.36 849.862 2092.7 823.3C2057.2 795 2027.9 752.8 2005.4 697.6C1989.1 657.8 1975.7 611.4 1962.7 566.6C1942.4 496.5 1921.1 424 1889.2 375.4C1863.2 336.2 1829.1 313.3 1790.6 309.3C1742 304.3 1689.2 328.3 1637.6 378.8C1592 423.3 1547.8 487.4 1505.1 549.4C1485 578.6 1464.2 608.7 1443.5 636.4C1369 736.3 1290.1 813.3 1209.2 865.2C1134.3 913.4 1056.7 940.5 978.6 946.1C833.1 956.6 686.4 892.5 554.1 761C455.8 663.1 365.1 538 277.7 417C153.3 245.4 24.8 67.9 -127.7 -33.7C-207.028 -86.9379 -297.777 -120.75 -392.6 -132.4C-484.2 -143.7 -582.6 -135.3 -685 -107.3C-784.1 -80.3 -888.1 -34.7001 -994 28.1C-1097.3 89.4 -1203.2 167.6 -1308.7 260.4C-1337.8 286 -1367.4 313.1 -1396.1 339.4C-1511.7 445.2 -1631.2 554.5 -1744.3 591.6C-1851.1 626.6 -1951.5 597.2 -2042.9 504.3C-2122.3 423.4 -2192.4 297.8 -2251.3 130.7C-2310.3 -36.3 -2355.9 -229.8 -2400 -416.8C-2436.9 -573.3 -2475.1 -735.2 -2520.9 -880.9C-2576.4 -1057.5 -2641.1 -1194.8 -2713.3 -1288.9C-2798.2 -1399.7 -2893.5 -1450.5 -2996.8 -1439.8V-1438.7C-2894.1 -1449.3 -2799.1 -1398.7 -2714.5 -1288.3C-2642.1 -1194.3 -2577.4 -1057.1 -2521.9 -880.6C-2476.1 -734.9 -2437.9 -573 -2401 -416.6C-2356.9 -229.5 -2311.2 -36 -2252.3 131C-2193.4 298 -2123.1 424 -2043.6 505C-1952 598.3 -1851.2 627.8 -1743.9 592.6C-1630.5 555.5 -1510.9 446 -1395.2 340.1C-1366.5 313.8 -1336.9 286.7 -1307.8 261.2C-1202.3 168.5 -1096.6 90.3 -993.3 29C-887.5 -33.8 -783.7 -79.3 -684.6 -106.3C-582.3 -134.2 -484.3 -142.6 -392.7 -131.3C-297.973 -119.765 -207.311 -86.0153 -128.1 -32.8C24.0999 68.7 152.5 246.1 276.7 417.8C364.3 538.8 454.8 664 553.3 761.9C676.2 884.4 811.9 948.4 947.6 948.4H947.5Z" fill="white"/>
<path opacity="0.8" d="M968.4 974C978 974 987.3 973.7 997.1 973C1075.5 967.7 1153.5 940.3 1229 891.4C1310.5 838.8 1390 760.6 1465.3 658.9C1486.1 630.9 1507.1 600.4 1527.4 571C1570.3 508.4 1614.8 443.6 1660.5 398.5C1712.1 347.4 1764.7 323.3 1812.8 328.4C1850.9 332.5 1884.6 355.5 1910 395.2C1941.7 444.4 1962.3 517.9 1982.2 588.9C1994.9 634.4 2008.1 681.4 2024.1 721.9C2046.3 777.8 2075.3 820.8 2110.7 849.7C2143.1 876.865 2183.92 891.955 2226.2 892.4C2264.3 893 2304.9 882.6 2346.6 861.5C2388.3 840.5 2430.6 809.2 2472 768.4C2559.2 682.8 2638.8 559.6 2702.3 412.4C2761.9 274.1 2808.9 118.7 2854.5 -31.7001C2895.3 -166.5 2937.6 -305.9 2988.6 -432.8C3029 -532.9 3081.5 -626.4 3136.4 -695.9C3193.3 -768 3248.3 -807.9 3291.4 -808.4H3292.2C3323.5 -808.4 3348.2 -787.9 3365.5 -747.6L3366.6 -748C3349.1 -788.8 3324 -809.5 3292.2 -809.5H3291.4C3248.1 -809 3192.7 -768.9 3135.6 -696.6C3080.6 -626.9 3028 -533.4 2987.6 -433.3C2936.4 -306.3 2894.2 -166.9 2853.4 -32.1001C2808 118.2 2760.8 273.6 2701.3 411.8C2637.9 559 2558.3 682.1 2471.2 767.8C2429.9 808.4 2387.8 839.6 2346.1 860.5C2305.6 880.9 2266.2 891.2 2229.1 891.2H2226.2C2184.13 890.767 2143.53 875.666 2111.4 848.5C2076.2 819.7 2047.1 776.8 2025.2 721.1C2009.2 680.7 1996.1 633.7 1983.3 588.2C1963.4 517.1 1942.8 443.6 1911 394.2C1885.3 354.4 1851.4 331.2 1813 327.1C1764.6 321.9 1711.6 346.2 1659.8 397.3C1614 442.5 1569.5 507.3 1526.6 570C1506.3 599.7 1485.4 630 1464.6 658.2C1389.4 759.7 1309.9 837.8 1228.6 890.4C1153.3 939 1075.4 966.4 997.2 971.7C852.4 981.5 706.8 916.4 576.1 783.3C478.5 683.9 388.9 557.1 302.1 434.1C178.9 259.9 51.7002 79.7 -99.8999 -23.6001C-178.609 -77.6357 -269.086 -112.092 -363.8 -124.1C-455.2 -135.7 -553.4 -127.3 -655.8 -99.1001C-754.9 -71.8 -859 -25.8 -965 37.7999C-1068.5 99.7999 -1174.6 178.7 -1280.5 272.9C-1309.6 298.9 -1339.4 326.3 -1368.2 352.8C-1484.2 459.9 -1604.3 570.7 -1717.3 608.1C-1784.9 630.4 -1850.5 626.6 -1912.1 596.5C-2063.3 522.7 -2163.3 307.5 -2220.6 139.9C-2278.5 -29.6001 -2322.9 -225.8 -2365.9 -415.5C-2401.8 -574.3 -2439 -738.5 -2483.9 -886.5C-2538.3 -1065.6 -2602.1 -1204.9 -2673.6 -1300.5C-2757.7 -1413 -2852.6 -1464.6 -2955.6 -1453.9V-1452.8C-2853.1 -1463.4 -2758.6 -1412 -2674.7 -1299.9C-2603.3 -1204.4 -2539.5 -1065.2 -2485.1 -886.2C-2440.2 -738.4 -2403 -574.2 -2367.1 -415.4C-2324.1 -225.6 -2279.7 -29.3 -2221.8 140.2C-2164.5 308 -2064.3 523.5 -1912.7 597.5C-1850.8 627.7 -1784.9 631.6 -1717 609.1C-1603.6 571.6 -1483.6 460.7 -1367.5 353.5C-1338.7 326.9 -1309 299.5 -1279.9 273.6C-1174.1 179.7 -1068.2 100.6 -964.6 38.5999C-858.8 -24.9001 -754.8 -70.9001 -655.7 -98.1001C-553.6 -126.2 -455.4 -134.6 -364.1 -123.1C-269.606 -111.212 -179.326 -76.8904 -100.8 -23.0001C50.7 80.1998 177.8 260.3 300.8 434.6C387.7 557.5 477.2 684.5 574.9 784C697.4 908.9 832.8 974 968.4 974Z" fill="white"/>
<path opacity="0.8" d="M989.2 999.6C998 999.6 1006.8 999.3 1015.6 998.7C1094.2 993.7 1172.5 966.2 1248.3 916.9C1330.3 863.6 1410.3 784.3 1486.4 681.1C1507.4 652.6 1528.5 621.8 1548.8 591.8C1592.1 528.3 1636.8 462.8 1682.6 417.1C1734.3 365.6 1787 341.3 1834.9 346.4C1872.7 350.6 1906.3 374 1931.5 414.1C1962.9 464 1983 538.5 2002.5 610.7C2014.9 656.8 2027.8 704.5 2043.6 745.6C2065.3 802.2 2094.1 845.7 2129 875.1C2160.89 902.562 2201.42 917.957 2243.5 918.6H2247.3C2284.3 918.6 2323.5 908.2 2364 887.7C2405.9 866.5 2448.2 834.8 2489.9 793.6C2577.6 706.9 2657.9 582 2722.2 432.4C2782.4 292.2 2830.3 134.7 2876.6 -17.6C2918.2 -154.2 2961 -295.5 3012.7 -424.1C3053.6 -525.7 3106.6 -620.4 3161.9 -690.9C3219.2 -763.9 3274.4 -804.2 3317.2 -804.5H3317.6C3348.9 -804.5 3373.5 -783.7 3390.5 -742.7L3391.6 -743.1C3374.3 -784.6 3349.4 -805.6 3317.6 -805.6H3317.2C3274 -805.3 3218.5 -764.8 3161 -691.6C3105.6 -621.1 3052.6 -526.2 3011.7 -424.6C2959.9 -295.9 2916.9 -154.6 2875.6 -18C2829.3 134.3 2781.5 291.8 2721.3 431.9C2657 581.3 2576.8 706.1 2489.3 792.7C2447.7 833.8 2405.5 865.4 2363.7 886.6C2321.9 907.8 2281.7 918 2243.8 917.3C2201.95 916.65 2161.65 901.366 2129.9 874.1C2095.1 844.8 2066.5 801.4 2044.8 745C2029.1 704 2016.2 656.3 2003.7 610.2C1984.2 538.1 1964.1 463.5 1932.6 413.4C1907.2 373 1873.5 349.4 1835.2 345.2C1786.9 339.8 1733.9 364.4 1681.8 416.1C1635.8 461.9 1591.1 527.4 1547.8 591C1527.4 620.9 1506.2 651.8 1485.4 680.3C1409.5 783.4 1329.6 862.7 1247.7 915.9C1172.1 965.1 1093.9 992.6 1015.6 997.5C871.5 1006.7 727.1 940.4 597.9 805.7C501 704.8 412.2 575.8 326.4 451.2C204.6 274.4 78.5999 91.5 -72.1001 -13.5C-150.136 -68.3552 -240.315 -103.459 -334.9 -115.8C-426 -127.7 -524.1 -119.3 -626.5 -90.8999C-725.6 -63.3999 -829.7 -16.7 -935.9 47.4C-1039.5 110.1 -1145.9 190.2 -1252.1 285.3C-1281.3 311.5 -1311.2 339.3 -1340.1 366.2C-1456.5 474.6 -1576.8 586.8 -1689.9 624.6C-1757.1 646.9 -1822.2 643.1 -1883 613.2C-2034.2 539 -2133.2 319.8 -2189.6 149.2C-2246.3 -22.7 -2289.6 -221.7 -2331.5 -414.2C-2366.5 -575.2 -2402.6 -741.8 -2446.6 -891.8C-2499.9 -1073.5 -2562.8 -1214.8 -2633.6 -1311.9C-2716.8 -1426.1 -2811.3 -1478.5 -2914.2 -1467.7V-1466.6C-2811.8 -1477.2 -2717.7 -1424.9 -2634.5 -1311.1C-2563.8 -1214.2 -2500.9 -1073 -2447.7 -891.3C-2403.7 -741.4 -2367.5 -574.8 -2332.6 -413.8C-2290.8 -221.3 -2247.6 -22.2 -2190.7 149.7C-2134.2 320.6 -2035.1 539.9 -1883.5 614.4C-1822.2 644.5 -1756.9 648.4 -1689.5 625.9C-1576.1 588 -1455.6 475.8 -1339.2 367.3C-1310.4 340.4 -1280.5 312.6 -1251.3 286.4C-1145.2 191.3 -1038.8 111.3 -935.3 48.6001C-829.2 -15.5999 -725.2 -62.1 -626.2 -89.6C-524.1 -118 -425.9 -126.4 -335.2 -114.5C-240.808 -102.199 -150.804 -67.2 -72.8999 -12.5C77.8 92.3 203.7 275.1 325.5 452C411.4 576.7 500.2 705.6 597.1 806.6C718.7 933.3 853.7 999.6 989.2 999.6Z" fill="white"/>
<path opacity="0.8" d="M1010 1025.2C1018.1 1025.2 1026.3 1025 1034.4 1024.4C1113.1 1019.7 1191.6 992 1267.8 942.2C1350.2 888.3 1430.9 807.8 1507.4 703C1528.5 674.1 1549.7 642.8 1570.2 612.5C1613.7 548.3 1658.7 481.8 1704.8 435.6C1756.8 383.4 1809.5 358.8 1857.3 364.2C1895.1 368.5 1928.4 392.3 1953.3 433C1984.4 483.7 2004 559.1 2023 632.3C2035.2 679.1 2047.8 727.4 2063.3 769.1C2084.6 826.4 2113 870.5 2147.6 900.3C2179.12 928.182 2219.53 943.954 2261.6 944.8H2266.3C2303 944.8 2341.9 934.4 2382.2 913.9C2424.2 892.5 2466.7 860.5 2508.5 818.7C2596.6 730.9 2677.5 604.3 2742.6 452.6C2803.5 310.6 2852.2 151 2899.2 -3.40002C2941.4 -141.8 2985 -284.9 3037.4 -415.3C3079 -518.3 3132.3 -614.4 3188 -685.8C3245.7 -759.8 3301 -800.5 3343.8 -800.6C3375.1 -800.6 3399.5 -779.5 3416.4 -737.8L3417.4 -738.2C3400.4 -780.3 3375.6 -801.7 3343.8 -801.7C3312 -801.7 3245 -760.9 3187.1 -686.5C3131.4 -615 3077.9 -518.9 3036.4 -415.8C2983.9 -285.4 2940.3 -142.2 2898.1 -3.80005C2851.1 150.6 2802.4 310.2 2741.6 452.1C2676.5 603.7 2595.7 730.3 2507.7 817.8C2465.9 859.5 2423.6 891.4 2381.7 912.7C2339.8 934.1 2299.6 944.4 2261.7 943.4C2219.84 942.557 2179.65 926.855 2148.3 899.1C2113.8 869.4 2085.6 825.4 2064.3 768.3C2048.8 726.7 2036.2 678.4 2024.1 631.6C2005.2 558.5 1985.3 482.8 1954.2 432C1929.1 391.2 1895.6 367.1 1857.4 362.7C1809.2 357.2 1756.1 382 1703.9 434.4C1657.7 480.8 1612.8 547.3 1569.3 611.6C1548.8 641.9 1527.7 673.2 1506.5 702C1429.9 806.8 1349.4 887.2 1267.2 941C1191.2 990.7 1112.8 1018.4 1034.4 1023C891.1 1031.6 747.7 964.1 619.9 827.9C523.8 725.5 435.9 594.6 350.9 468.1C230.3 289 105.6 103.3 -44.3 -3.30005C-121.709 -58.8239 -211.578 -94.4695 -306 -107.1C-396.9 -119.3 -495 -110.8 -597.2 -82.3C-696.3 -54.6001 -800.4 -7.5 -906.8 57.4C-1010.6 120.9 -1117.2 201.9 -1223.7 298.2C-1253 324.7 -1283 352.9 -1312 380.1C-1428.8 489.8 -1549.5 603.4 -1662.6 641.5C-1729.3 664 -1793.7 660 -1854 630.4C-2005.2 555.4 -2103.2 332.6 -2158.7 158.9C-2214.5 -15.4001 -2256.5 -217.2 -2297.1 -412.3C-2331.1 -575.5 -2366.3 -744.5 -2409.3 -896.6C-2461.5 -1080.9 -2523.5 -1224.3 -2593.6 -1322.7C-2676.1 -1438.6 -2770.1 -1491.9 -2872.8 -1481.2V-1480.1C-2770.4 -1490.7 -2676.9 -1437.6 -2594.6 -1322.1C-2524.5 -1223.7 -2462.6 -1080.5 -2410.5 -896.3C-2367.4 -744.2 -2332.3 -575.3 -2298.2 -412C-2257.4 -217.3 -2215.4 -15.5001 -2159.5 158.9C-2103.6 333.3 -2005.8 555.7 -1854.2 631.1C-1793.7 661.2 -1728.9 665 -1661.9 642.2C-1548.5 604 -1427.6 490.4 -1310.8 380.5C-1281.9 353.3 -1251.9 325.1 -1222.6 298.6C-1116.1 202.2 -1009.6 121.4 -905.8 58C-799.6 -6.90002 -695.5 -53.9 -596.5 -81.6C-494.4 -110.2 -396.5 -118.7 -305.7 -106.4C-211.539 -93.6465 -121.95 -57.9688 -44.8 -2.5C104.9 103.9 229.5 289.5 350.1 468.9C435.1 595.4 523.1 726.3 619.2 828.7C739.9 957.8 874.6 1025.2 1010.1 1025.2H1010Z" fill="white"/>
<path opacity="0.8" d="M1030.8 1050.8C1038.4 1050.8 1045.8 1050.6 1053.2 1050.2C1131.9 1045.9 1210.7 1018 1287.3 967.6C1370.1 913.1 1451.2 831.5 1528.5 725C1549.7 695.8 1571.1 664.1 1591.7 633.4C1635.5 568.3 1680.8 501.1 1727 454.3C1779.2 401.5 1832 376.4 1879.7 382.2C1917.5 386.7 1950.4 410.8 1975.1 452C2005.8 503.4 2025 580 2043.6 654.1C2055.5 701.5 2067.8 750.5 2083.1 792.8C2104 850.7 2132 895.5 2166.3 925.7C2197.33 953.993 2237.52 970.148 2279.5 971.2C2317.3 972.2 2358.1 961.9 2400 940.3C2442 918.7 2484.7 886.3 2526.7 844.1C2615.2 755.1 2696.8 626.9 2762.7 473.2C2824.3 329.4 2873.8 167.7 2921.5 11.2999C2964.4 -128.9 3008.7 -273.9 3061.7 -406C3103.6 -510.5 3157.6 -607.8 3213.6 -680.1C3271.5 -754.9 3327 -796 3369.6 -796H3370.1C3401.2 -796 3425.5 -774.5 3441.9 -732.3L3443 -732.7C3426.3 -775.3 3401.7 -797 3370 -797.1H3369.7C3326.6 -797.1 3270.9 -755.8 3212.8 -680.8C3156.7 -608.4 3102.8 -511 3060.8 -406.3C3007.9 -274.2 2963.4 -129.2 2920.5 11.1C2872.7 167.5 2823.3 329.2 2761.7 472.9C2695.9 626.6 2614.3 754.8 2525.9 843.5C2484 885.6 2441.4 917.9 2399.4 939.5C2357.5 961.1 2317.2 971.4 2279.4 970.2C2237.72 969.14 2197.81 953.093 2167 925C2133 894.9 2104.9 850.3 2084.1 792.5C2069 750.3 2056.6 701.3 2044.7 653.9C2026.1 579.7 2006.9 503.1 1976.1 451.5C1951.3 410 1918 385.6 1879.8 381C1831.6 375.2 1778.7 400.5 1726.2 453.4C1679.9 500.3 1634.6 567.6 1590.8 632.7C1570.2 663.4 1548.8 695.1 1527.6 724.3C1450.4 830.8 1369.3 912.4 1286.7 966.7C1210.3 1017 1131.7 1044.6 1053.2 1049.1C1045.6 1049.5 1038.1 1049.7 1030.8 1049.7C895.7 1049.7 761.7 981.2 641.9 850.6C546.5 746.8 459.5 613.9 375.4 485.6C256 303.4 132.5 115.1 -16.3999 6.8999C-93.1665 -49.5342 -182.813 -85.9012 -277.2 -98.9C-367.9 -111.4 -465.7 -103.1 -568 -74.1001C-667.1 -46.1001 -771.3 1.40002 -877.9 67.1C-981.8 131.3 -1088.7 213.2 -1195.4 310.7C-1224.8 337.6 -1254.9 366 -1284 393.6C-1401.2 504.9 -1522.1 619.5 -1635.5 658C-1701.7 680.5 -1765.6 676.8 -1825.3 646.9C-1976.5 571.3 -2073.4 344.7 -2128.1 167.9C-2182.8 -8.90015 -2223.6 -213.5 -2263.1 -411.4C-2296.1 -577 -2330.3 -748.2 -2372.5 -902.4C-2423.5 -1089.3 -2484.6 -1234.7 -2553.9 -1334.6C-2635.7 -1452.2 -2729.2 -1506.4 -2831.8 -1495.7V-1494.6C-2729.7 -1505.2 -2636.5 -1451.2 -2555 -1334C-2485.6 -1234.2 -2424.5 -1089 -2373.6 -902.2C-2331.5 -748 -2297.3 -576.8 -2264.2 -411.3C-2224.7 -213.4 -2183.8 -8.70007 -2129.1 168.1C-2074.4 344.9 -1977.3 572 -1825.8 647.7C-1765.8 677.7 -1701.7 681.4 -1635.1 658.8C-1521.7 620.2 -1400.5 505.3 -1283.3 394.1C-1254.2 366.5 -1224.2 338 -1194.8 311.2C-1088 213.8 -981.2 131.9 -877.3 67.7999C-770.8 2.19995 -666.7 -45.2001 -567.8 -73.2001C-465.7 -102.1 -368 -110.3 -277.4 -97.9C-183.229 -84.9045 -93.7927 -48.6073 -17.2 7.69995C131.6 115.8 254.9 304.1 374.3 486.1C458.5 614.5 545.5 747.2 641 851.3C761.1 982.2 895.4 1050.8 1030.8 1050.8Z" fill="white"/>
<path opacity="0.8" d="M1051.6 1076.3C1058.4 1076.3 1065.3 1076.1 1072.1 1075.7C1151 1071.6 1229.9 1043.7 1306.8 992.7C1390 937.6 1471.6 854.8 1549.6 746.7C1570.9 717 1592.4 685 1613.2 654C1657.2 588.1 1702.8 520 1749.3 472.6C1801.4 419.2 1854.3 393.9 1902 399.7C1939.8 404.3 1972.4 428.8 1996.8 470.6C2027 522.5 2045.9 600.4 2064.1 675.5C2075.7 723.7 2087.7 773.3 2102.7 816.1C2123.2 874.7 2150.9 919.9 2184.9 950.8C2217.5 980.2 2255.3 995.8 2297.3 997.2C2335.1 998.4 2375.8 988 2417.9 966.3C2460 944.5 2502.8 911.8 2545.1 869.1C2634 779.1 2716.1 649.2 2782.9 493.1C2845.2 347.5 2895.4 183.7 2944 25.2C2987.6 -116.8 3032.6 -263.7 3086.3 -397.6C3128.8 -503.5 3183.2 -602.1 3239.5 -675.3C3297.6 -750.8 3352.9 -792.4 3395.6 -792.4H3396.1C3427.1 -792.1 3451.1 -770.4 3467.3 -727.8L3468.4 -728.2C3452 -771.3 3427.7 -793.3 3396.1 -793.6H3395.5C3352.6 -793.6 3296.8 -751.9 3238.5 -676.1C3182.1 -602.8 3127.6 -504.1 3085.1 -398.1C3031.4 -264.3 2986.4 -117.4 2942.8 24.7C2894.2 183.1 2844 346.8 2781.8 492.5C2715.2 648.3 2633 778.1 2544.2 868C2502 910.6 2459.3 943.3 2417.3 965C2375.3 986.7 2334.9 997 2297.3 995.8C2255.7 994.5 2217.9 978.9 2185.6 949.7C2151.8 919.1 2124.2 873.9 2103.8 815.4C2088.7 772.7 2076.8 723 2065.2 674.9C2047 599.9 2028.1 522.2 1997.9 470C1973.3 427.9 1940.3 403.2 1902.2 398.5C1854.2 392.8 1800.9 418 1748.4 471.7C1701.9 519.1 1656.3 587.3 1612.3 653.2C1591.5 684.2 1570.1 716.2 1548.8 745.9C1470.7 853.9 1389.1 936.6 1306.2 991.6C1229.5 1042.4 1150.7 1070.3 1072.1 1074.4C930.1 1081.8 789 1012 663.9 872.7C569.4 767.2 483.1 632.6 399.8 502.4C281.7 317.9 159.5 126.9 11.3999 17C-64.7312 -40.134 -154.061 -77.1112 -248.3 -90.5C-338.7 -103.3 -436.4 -95 -538.7 -65.8C-637.7 -37.6001 -742 10.4 -848.6 76.9C-952.7 141.8 -1059.8 224.6 -1167 323.3C-1196.5 350.4 -1226.7 379.3 -1255.8 407.2C-1373.3 519.6 -1494.9 635.9 -1608 674.7C-1673.8 697.3 -1737.1 693.7 -1796.2 663.9C-1947.4 587.8 -2043.2 357.4 -2097 177.5C-2150.6 -1.69995 -2190.3 -209.1 -2228.6 -409.7C-2260.7 -577.6 -2293.9 -751.1 -2335.1 -907.5C-2385 -1096.9 -2445.2 -1244.4 -2514 -1345.7C-2595 -1464.9 -2687.9 -1520 -2790.4 -1509.3V-1508.2C-2688.4 -1518.8 -2595.8 -1464 -2515 -1345C-2446.3 -1243.8 -2386.1 -1096.5 -2336.2 -907.1C-2295 -750.7 -2261.8 -577.2 -2229.7 -409.4C-2191.3 -208.8 -2151.7 -1.40002 -2098.1 178C-2044 357.9 -1948 588.6 -1796.6 664.9C-1737.3 694.8 -1673.7 698.3 -1607.6 675.8C-1494.2 636.9 -1372.6 520.5 -1255 408.1C-1225.8 380.2 -1195.7 351.4 -1166.2 324.2C-1058.9 225.7 -951.9 142.8 -848 78.1C-741.5 11.7 -637.2 -36.2001 -538.3 -64.4C-436.2 -93.5 -338.6 -101.8 -248.4 -89.1C-154.372 -75.8484 -65.2512 -38.927 10.6001 18.2C158.5 128 280.7 318.9 398.8 503.6C482.1 633.8 568.3 768.5 663 874C782.4 1006.6 916.3 1076.4 1051.7 1076.4L1051.6 1076.3Z" fill="white"/>
<path opacity="0.8" d="M1072.4 1101.9C1078.6 1101.9 1084.8 1101.9 1091.1 1101.4C1170 1097.7 1249.2 1069.6 1326.4 1018C1409.9 962.3 1492.1 878.4 1570.9 768.7C1592.3 738.8 1614 706.2 1634.9 674.8C1679.3 608 1725.1 539.2 1771.7 491.3C1824.2 437.2 1876.9 411.6 1924.5 417.6C1962.1 422.3 1994.7 447.3 2018.8 489.6C2049 542.5 2067.2 621.2 2084.9 697.3C2096.2 746 2108 796.4 2122.7 839.8C2142.8 899.1 2170.1 945 2203.8 976.2C2236.1 1005.9 2273.7 1022 2315.5 1023.5C2353.3 1024.9 2394 1014.5 2436.1 992.6C2478.2 970.7 2521.2 937.6 2563.7 894.3C2653 803.3 2735.9 671.8 2803.3 513.6C2866.2 366.1 2917.3 200.2 2966.6 39.8C3010.8 -104.1 3056.5 -252.8 3110.9 -388.3C3153.9 -495.6 3208.8 -595.5 3265.5 -669.6C3323.8 -745.9 3379.3 -787.9 3421.7 -787.9H3422.5C3453.4 -787.5 3477.1 -765.4 3493.1 -722.3L3494.2 -722.7C3478.1 -766.3 3454 -788.6 3422.6 -789.1H3421.8C3379 -789.1 3323.2 -747 3264.7 -670.4C3208 -596.2 3153 -496.1 3110 -388.8C3055.7 -253.3 3009.9 -104.5 2965.7 39.4001C2916.4 199.8 2865.4 365.8 2802.5 513.1C2735.1 671.2 2652.3 802.6 2563.1 893.7C2520.8 936.9 2477.9 969.8 2435.8 991.8C2393.7 1013.7 2353.4 1024 2315.8 1022.6C2274.2 1021.1 2236.8 1005.2 2204.8 975.6C2171.2 944.6 2144.1 898.8 2124 839.6C2109.3 796.3 2097.5 745.9 2086.2 697.2C2068.5 621 2050.1 542.2 2020 489.2C1995.7 446.5 1962.8 421.4 1924.8 416.7C1877 410.7 1823.7 436.3 1770.9 490.7C1724.2 538.7 1678.4 607.7 1634 674.4C1613.1 705.9 1591.5 738.3 1570 768.3C1491.5 877.9 1409.4 961.7 1326 1017.4C1248.9 1068.8 1170 1096.8 1091.2 1100.6C1085 1100.9 1078.8 1101.1 1072.6 1101.1C937.6 1101.1 804.2 1030.4 686.2 895.6C592.3 788.6 507.1 652.1 424.6 520C307.4 332.6 186.4 138.9 39.2 27.3C-36.2449 -30.6492 -125.273 -68.3121 -219.4 -82.0999C-309.6 -95.1998 -407.2 -86.8999 -509.4 -57.4999C-608.4 -29.0999 -712.7 19.5001 -819.6 86.6001C-923.9 152.2 -1031.3 236 -1138.8 335.8C-1168.4 363.3 -1198.6 392.4 -1227.9 420.7C-1345.8 534.5 -1467.8 652.1 -1580.9 691.4C-1646.2 714 -1709 710.5 -1767.4 680.8C-1918.6 604.1 -2013.3 369.9 -2066.3 186.9C-2118.8 5.20007 -2157.3 -205 -2194.5 -408.3C-2225.6 -578.4 -2257.8 -754.3 -2298.1 -912.7C-2346.9 -1104.7 -2406.2 -1254.2 -2474.3 -1356.9C-2554.5 -1477.9 -2647 -1533.7 -2749.4 -1523.1V-1522C-2647.3 -1532.7 -2555.3 -1476.9 -2475.4 -1356.4C-2407.4 -1253.7 -2348.1 -1104.4 -2299.3 -912.5C-2259 -754.1 -2226.8 -578.2 -2195.7 -408.1C-2158.5 -204.8 -2120.1 5.50012 -2067.5 187.2C-2014.6 370.4 -1919.5 604.9 -1768 681.8C-1709.3 711.5 -1646.2 715.2 -1580.6 692.4C-1467.2 653.1 -1345.2 535.4 -1227.2 421.7C-1197.9 393.5 -1167.7 364.3 -1138.1 336.8C-1030.6 237.1 -923.3 153.3 -819.1 87.8C-712.4 20.8 -608.1 -27.6998 -509.2 -56.0999C-407.1 -85.3999 -309.7 -93.7 -219.6 -80.7C-126.1 -67.2 -39.3 -30.3999 38.5 28.5001C185.6 139.8 306.5 333.5 423.4 520.8C505.9 652.9 591.1 789.4 685.1 896.5C803.6 1031 937.1 1101.9 1072.4 1101.9Z" fill="white"/>
<path opacity="0.8" d="M1093.1 1127.4C1098.7 1127.4 1104.4 1127.4 1110 1127C1189.1 1123.7 1268.5 1095.4 1345.9 1043.4C1429.8 987.1 1512.5 902 1591.6 790.7C1613.2 760.4 1634.9 727.7 1655.8 695.7C1700.4 628.2 1746.5 558.5 1793.3 510C1846.2 455.3 1898.9 429.6 1946.3 435.6C1983.7 440.4 2016.2 465.6 2040 508.7C2069.7 562.3 2087.6 642.2 2104.8 719.2C2115.9 768.6 2127.3 819.7 2141.8 863.8C2161.5 923.8 2188.5 970.3 2221.9 1001.9C2253.9 1032.2 2291.2 1048.4 2332.9 1050.1C2370.7 1051.6 2411.3 1041.2 2453.5 1019.1C2495.7 997 2538.8 963.5 2581.4 919.8C2671.2 827.7 2754.7 694.4 2822.9 534.1C2886.5 384.8 2938.3 216.8 2988.4 54.3002C3033.3 -91.3998 3079.8 -242 3134.7 -379.2C3178.2 -487.9 3233.6 -589.2 3290.6 -664.2C3349.1 -741.3 3404.6 -783.6 3447 -783.6H3448.1C3478.8 -783.1 3502.3 -760.7 3518 -717.1L3519.1 -717.5C3503.3 -761.6 3479.4 -784.3 3448.2 -784.8C3405.3 -785.6 3349.1 -743 3289.8 -665C3232.7 -589.9 3177.3 -488.6 3133.7 -379.8C3078.8 -242.6 3032.3 -91.9999 2987.4 53.7001C2937.3 216.1 2885.5 384.1 2821.9 533.4C2753.9 693.5 2670.3 826.7 2580.7 918.7C2538.1 962.4 2495.2 995.7 2453 1017.8C2410.8 1039.9 2370.6 1050.2 2333 1048.7C2291.4 1047 2254.4 1030.9 2222.7 1000.8C2189.5 969.3 2162.6 922.9 2142.9 863.1C2128.5 819.2 2117 768.1 2106 718.8C2088.7 641.6 2070.9 561.8 2041.1 508C2017.1 464.7 1984.4 439.2 1946.6 434.4C1898.9 428.3 1845.6 454.1 1792.6 509.1C1745.8 557.6 1699.6 627.5 1655 695C1634.2 726.8 1612.5 759.6 1590.9 789.8C1511.5 901.1 1429.1 986 1345.2 1042.2C1267.8 1094.1 1188.6 1122.3 1109.9 1125.8C1104.3 1126.1 1098.6 1126.2 1093.1 1126.2C958.2 1126.2 825.4 1054.3 708 917.5C614.9 808.9 530.4 670.5 448.9 536.7C333 346.8 213.3 150.4 67 37.2001C-10.3999 -22.7 -97.1001 -60.0999 -190.5 -74.0999C-280.5 -87.4999 -377.9 -79.1998 -480.1 -49.4999C-579.1 -20.7999 -683.5 28.2001 -790.5 96.1001C-894.9 162.4 -1002.5 247.2 -1110.4 348.1C-1140.1 375.9 -1170.5 405.4 -1199.8 433.9C-1318.1 548.9 -1440.5 668 -1553.6 707.5C-1618.4 730.6 -1680.6 726.9 -1738.5 697.2C-1889.7 619.9 -1983.3 382 -2035.4 195.8C-2086.9 11.7002 -2124.2 -201.3 -2160.1 -407.3C-2190.3 -579.6 -2221.5 -757.9 -2260.8 -918.5C-2308.5 -1113.1 -2366.9 -1264.6 -2434.4 -1368.7C-2513.8 -1491.3 -2605.8 -1548.1 -2708 -1537.4V-1536.3C-2606.3 -1546.9 -2514.6 -1490.3 -2435.4 -1368.1C-2368 -1264 -2309.7 -1112.6 -2262 -918.2C-2222.6 -757.6 -2191.4 -579.4 -2161.2 -407.1C-2125.1 -201.1 -2087.9 12.0001 -2036.5 196.1C-1984.4 382.4 -1890.5 620.7 -1739 698.2C-1680.9 727.9 -1618.3 731.6 -1553.2 708.7C-1439.8 669.1 -1317.4 550 -1198.9 434.8C-1169.6 406.2 -1139.2 376.7 -1109.6 348.9C-1001.8 248 -894.2 163.5 -789.9 97.0001C-683.1 29.2001 -578.8 -19.7 -480.1 -48.3999C-378 -78.0999 -280.8 -86.2 -191 -72.8999C-97.7 -58.9999 -11.2 -21.7 66.1001 38.1001C212.3 151.2 332 347.5 447.8 537.4C529.4 671.3 613.8 809.7 707 918.4C824.7 1055.6 957.8 1127.5 1093.1 1127.5V1127.4Z" fill="white"/>
<path opacity="0.8" d="M1113.8 1153.1C1118.9 1153.1 1123.9 1153.1 1128.9 1152.8C1207.9 1149.6 1287.7 1121.3 1365.4 1068.7C1449.9 1011.7 1533 925.6 1612.8 812.6C1634.5 781.9 1656.4 748.6 1677.5 716.4C1722.4 648.1 1768.8 577.5 1815.7 528.4C1868.6 473 1921.5 447.1 1968.8 453.3C2006.2 458.2 2038.4 483.8 2062 527.5C2091.4 581.8 2108.8 662.6 2125.6 740.8C2136.4 790.8 2147.5 842.6 2161.7 887.2C2181 947.9 2207.7 995 2240.7 1027.1C2272.4 1057.8 2309.6 1074.4 2351.1 1076.2C2388.9 1077.9 2429.4 1067.5 2471.7 1045.2C2514 1022.9 2557.2 989.1 2600 944.8C2690.2 851.6 2774.2 716.6 2843.3 554.3C2907.6 403.1 2960.2 233 3011.1 68.4C3056.7 -79.1 3103.9 -231.6 3159.4 -370.5C3203.5 -480.7 3259.3 -583.2 3316.6 -659.1C3375.4 -737 3430.9 -779.7 3473.1 -779.7H3474.5C3505.1 -779 3528.4 -756.3 3543.7 -712.2L3544.7 -712.6C3529.2 -757.1 3505.5 -780.2 3474.4 -780.8H3473C3430.4 -780.8 3374.7 -737.9 3315.6 -659.7C3258.2 -583.7 3202.2 -481.1 3158.2 -370.9C3102.6 -232 3055.5 -79.5 3009.9 68C2959 232.5 2906.4 402.5 2842.2 553.9C2773.3 716 2689.2 850.9 2599.2 944C2556.4 988.2 2513.4 1021.9 2471.1 1044.1C2428.8 1066.3 2388.6 1076.8 2351.1 1075.1C2309.9 1073.2 2273 1056.8 2241.5 1026.3C2208.5 994.4 2182 947.5 2162.7 886.9C2148.5 842.4 2137.4 790.5 2126.6 740.7C2109.7 662.5 2092.4 581.6 2062.9 527.1C2039.2 483.2 2006.6 457.4 1968.9 452.4C1921.3 446.2 1868 472.2 1814.8 527.9C1767.8 576.9 1721.3 647.5 1676.5 715.8C1655.3 748 1633.4 781.3 1611.8 811.9C1532 924.8 1448.9 1010.8 1364.7 1067.8C1287 1120.3 1207.6 1148.5 1128.8 1151.7C989 1157.4 850.8 1084.2 729.9 940.3C637.5 830 553.9 689.8 473.3 554C358.9 361.5 240.4 162.3 94.8999 47.5C17.8999 -13.3 -68.4001 -51.3 -161.6 -65.5C-251.3 -79.1 -348.7 -70.9 -450.9 -41.1C-549.8 -12.2 -654.3 37.3 -761.4 106C-866 173 -973.9 258.7 -1082.1 360.8C-1111.8 388.9 -1142.3 418.8 -1171.8 447.7C-1290.5 564 -1413.2 684.4 -1526.4 724.3C-1590.8 747 -1652.5 743.6 -1709.7 714.2C-1860.9 636.3 -1953.5 394.5 -2004.5 205.4C-2054.9 18.8 -2091 -197 -2125.9 -405.7C-2155.2 -580.3 -2185.4 -760.9 -2224 -923.5C-2270.6 -1120.7 -2328.1 -1274.2 -2394.9 -1379.7C-2473.5 -1504 -2565 -1561.6 -2667 -1550.9V-1549.8C-2565.4 -1560.4 -2474.2 -1503 -2395.8 -1379.2C-2329.1 -1273.7 -2271.6 -1120.3 -2225.1 -923.2C-2186.6 -760.5 -2156.4 -579.9 -2127.2 -405.3C-2092.3 -196.6 -2056.2 19.2001 -2005.7 205.9C-1954.5 395.3 -1861.7 637.5 -1710.2 715.5C-1652.7 745.2 -1590.7 748.5 -1526 725.7C-1412.6 685.7 -1289.7 565.3 -1170.9 448.8C-1141.5 419.9 -1111 390.1 -1081.2 362C-973.1 259.9 -865.2 174.3 -760.7 107.3C-653.8 38.5 -549.2 -10.8999 -450.6 -39.7999C-348.5 -69.4999 -251.4 -77.8999 -161.9 -64.2C-68.7998 -50.1 17.3 -12.3 94.1001 48.5C239.5 163.1 357.9 362.1 472.4 554.6C553.1 690.3 636.6 830.7 729.1 940.8C845.9 1080 978.6 1153.1 1113.8 1153.1Z" fill="white"/>
<path opacity="0.8" d="M1134.5 1178.7C1139 1178.7 1143.5 1178.7 1148 1178.5C1227.1 1175.6 1306.8 1147.2 1385 1094C1469.6 1036.4 1553.3 949.2 1633.8 834.5C1655.6 803.5 1677.6 769.8 1698.9 737.2C1744.1 668.1 1790.7 596.6 1837.8 547C1890.7 491 1943.9 464.8 1991 471.1C2028.3 476.1 2060.3 502.1 2083.6 546.3C2112.6 601.3 2129.6 683.2 2146 762.4C2156.5 813.1 2167.4 865.5 2181.3 910.7C2200.2 972.2 2226.7 1019.8 2259.4 1052.3C2290.8 1083.5 2327.7 1100.3 2369 1102.3C2406.8 1104.2 2447.2 1093.7 2489.6 1071.2C2532 1048.7 2575.3 1014.5 2618.3 969.8C2709 875.6 2793.6 738.9 2863.4 574.5C2928.3 421.5 2981.7 249.3 3033.5 82.8C3079.8 -66.5 3127.7 -220.9 3183.8 -361.4C3228.4 -473 3284.7 -576.7 3342.6 -653.6C3401.6 -732.2 3457.2 -775.4 3499.3 -775.4H3500.9C3531.1 -774.6 3554.4 -751.6 3569.5 -707L3570.6 -707.3C3555.5 -752.4 3531.9 -775.7 3500.9 -776.5H3499.3C3456.8 -776.5 3401 -733.2 3341.7 -654.1C3284 -577.2 3227.6 -473.3 3183 -361.7C3126.6 -221.2 3078.9 -66.8 3032.4 82.5C2980.8 249 2927.4 421.2 2862.5 574.1C2792.8 738.3 2708.1 874.9 2617.7 969.1C2574.8 1013.6 2531.6 1047.8 2489.2 1070.3C2446.8 1092.8 2406.7 1103.1 2369.2 1101.3C2328.1 1099.3 2291.5 1082.6 2260.3 1051.6C2227.6 1019.2 2201.4 971.7 2182.5 910.4C2168.6 865.3 2157.7 812.9 2147.2 762C2130.8 682.8 2113.8 600.8 2084.7 545.6C2061.2 501.1 2028.9 474.9 1991.2 469.8C1943.7 463.4 1890.4 489.8 1837 546C1790 595.9 1743.2 667.4 1698 736.5C1676.7 769.1 1654.7 802.8 1632.9 833.8C1552.5 948.2 1468.7 1035.4 1384.4 1092.9C1306.2 1145.9 1226.9 1174.3 1148 1177.2C1008.6 1182.3 871.7 1108 752 962.3C660.3 850.7 577.8 708.5 497.9 570.9C384.5 375.9 267.4 174.3 122.7 57.6C46.2 -4 -39.8 -42.5 -132.7 -57.1C-222.2 -71 -319.4 -62.7999 -421.5 -32.7C-520.4 -3.5 -625 46.4 -732.3 115.7C-837 183.4 -945.2 270.1 -1053.6 373.3C-1083.5 401.7 -1114.1 431.9 -1143.6 461.1C-1262.7 578.8 -1385.8 700.5 -1498.9 740.8C-1562.9 763.5 -1624.1 760.2 -1680.7 730.9C-1831.9 652.6 -1923.3 406.9 -1973.6 214.6C-2023.2 25.7 -2058.2 -192.8 -2091.8 -404.2C-2120 -581.1 -2149.2 -764 -2186.8 -928.8C-2232.2 -1128.5 -2288.9 -1284.1 -2355 -1391.1C-2432.8 -1517.2 -2523.9 -1575.6 -2625.9 -1564.9V-1563.8C-2524.5 -1574.5 -2433.6 -1516.1 -2356.1 -1390.6C-2290 -1283.6 -2233.5 -1128.2 -2188 -928.6C-2150.4 -764 -2121.2 -581 -2093 -404.2C-2059.2 -192.8 -2024.3 26 -1974.9 214.9C-1924.6 407.4 -1832.9 653.4 -1681.5 731.9C-1624.6 761.6 -1563.1 764.8 -1498.8 741.9C-1385.4 701.5 -1262.1 579.7 -1142.9 461.9C-1113.3 432.7 -1082.8 402.6 -1053 374.1C-944.5 270.9 -836.5 184.3 -731.7 116.6C-624.4 47.2999 -520 -2.59998 -421.2 -31.7999C-319.1 -61.7999 -222.2 -70 -132.9 -56.1C-40.0999 -41.6 45.7 -3.09998 122 58.4C266.5 174.8 383.6 376.5 496.9 571.6C576.8 709.2 659.4 851.4 751.1 963.1C867.1 1104.4 999.4 1178.7 1134.4 1178.7H1134.5Z" fill="white"/>
<path opacity="0.8" d="M1155.1 1204.3C1158.9 1204.3 1163 1204.3 1167 1204.1C1246.1 1201.5 1326 1173 1404.5 1119.2C1489.4 1061 1573.6 972.6 1654.8 856.5C1676.7 825.1 1698.9 791 1720.3 758.1C1765.6 688.2 1812.7 615.9 1860.1 565.7C1913.4 509.1 1966.3 482.6 2013.4 489C2050.6 494.1 2082.5 520.5 2105.5 565.3C2134.2 620.9 2150.9 704 2166.7 784.1C2176.9 835.4 2187.5 888.5 2201.2 934.3C2219.8 996.5 2245.7 1044.7 2278.3 1077.7C2309.4 1109.3 2346.3 1126.5 2387.3 1128.6C2425.1 1130.6 2465.5 1120.1 2507.9 1097.4C2550.3 1074.7 2593.8 1040.2 2637 994.9C2727.9 899.6 2813.3 761.2 2883.9 594.8C2949.5 440 3003.7 265.6 3056.1 97.1001C3103.1 -53.9999 3151.7 -210.3 3208.4 -352.6C3253.5 -465.6 3310.5 -570.6 3368.3 -648.4C3427.6 -727.8 3483.2 -771.4 3525.2 -771.4H3527C3557.2 -770.5 3580.1 -747.1 3595 -702L3596 -702.3C3580.9 -747.9 3557.8 -771.5 3527 -772.5H3525.1C3482.7 -772.5 3426.8 -728.8 3367.3 -649C3309.2 -571.1 3252.4 -466.1 3207.3 -353C3150.6 -210.7 3101.9 -54.3999 3054.9 96.7001C3002.6 265.2 2948.4 439.5 2882.8 594.3C2812.3 760.6 2727 898.9 2636.2 994.1C2593.1 1039.3 2549.8 1073.7 2507.4 1096.4C2465 1119.1 2424.7 1129.5 2387.4 1127.5C2346.5 1125.3 2310 1108.3 2279.1 1076.9C2246.7 1044.1 2220.9 996 2202.3 934C2188.6 888.3 2178.1 835.2 2167.9 783.9C2151.9 703.6 2135.4 620.7 2106.6 564.7C2083.4 519.6 2051.2 493 2013.6 487.8C1966.2 481.3 1912.9 507.9 1859.4 564.8C1812.1 615.1 1764.9 687.4 1719.6 757.4C1698.2 790.4 1676 824.4 1654.1 855.8C1573 971.8 1488.9 1060.2 1404 1118.2C1325.7 1171.8 1246 1200.3 1167.1 1202.9C1028.3 1207.5 892.4 1132 774 984.7C683.1 871.6 601.4 727.5 522.3 588.1C410.5 390.5 294.3 186 150.6 67.8C74.5 5.20007 -11.1001 -33.9999 -103.8 -48.7999C-193 -62.9999 -290.1 -54.8999 -392.2 -24.4999C-491.1 4.90015 -595.7 55.4001 -703.2 125.4C-808.1 193.8 -916.4 281.4 -1025.3 385.8C-1055.3 414.5 -1085.8 445.1 -1115.6 474.6C-1235.1 593.7 -1358.6 716.7 -1471.8 757.4C-1535.3 780.2 -1596 776.9 -1652 747.7C-1803.2 668.9 -1893.5 419.4 -1942.8 223.9C-1991.1 32.4001 -2024.8 -189 -2057.4 -403.1C-2084.7 -582.2 -2112.9 -767.5 -2149.5 -934.5C-2193.9 -1136.8 -2249.6 -1294.3 -2315 -1402.9C-2392 -1530.6 -2482.7 -1589.9 -2584.5 -1579.2V-1578.1C-2483.2 -1588.7 -2392.8 -1529.6 -2316.1 -1402.3C-2250.7 -1293.9 -2195.2 -1136.4 -2150.7 -934.3C-2114.1 -767.4 -2085.9 -582 -2058.6 -403C-2026 -188.9 -1992.3 32.6001 -1943.9 224.1C-1894.5 419.8 -1804.1 669.6 -1652.5 748.6C-1596.2 778 -1535.3 781.3 -1471.3 758.4C-1357.9 717.6 -1234.2 594.5 -1114.7 475.4C-1085 445.7 -1054.2 415.4 -1024.4 386.6C-915.6 282.3 -807.3 194.7 -702.4 126.3C-595.4 56.3 -490.9 5.90015 -392.1 -23.3999C-290 -53.7 -193.3 -61.8999 -104.2 -47.7C-11.7 -32.7999 73.7002 6.20007 149.6 68.6001C293.2 186.7 409.2 391 521.2 588.7C600.2 728.1 682 872.3 772.9 985.5C888.3 1128.8 1020.2 1204.2 1155 1204.2L1155.1 1204.3Z" fill="white"/>
<path opacity="0.8" d="M1175.9 1229.9H1186.3C1265.5 1227.6 1345.5 1198.9 1424.4 1144.6C1509.7 1085.8 1594.5 996.2 1676.2 878.5C1698.1 846.6 1720.4 812.2 1742 778.8C1787.7 708.1 1835 634.9 1882.4 584.2C1935.9 527 1988.9 500.2 2035.7 506.8C2072.8 512 2104.5 538.7 2127.3 584.1C2155.7 640.6 2171.7 724.6 2187.2 805.8C2197.1 857.7 2207.4 911.5 2220.8 957.9C2239 1020.9 2264.6 1069.6 2296.9 1103.1C2327.8 1135.1 2364.3 1152.6 2405.3 1155C2442.9 1157.1 2483.4 1146.6 2525.9 1123.7C2568.4 1100.8 2612 1066 2655.4 1020.2C2746.7 923.8 2832.7 783.8 2904 615.2C2970.3 458.5 3025.2 282.1 3078.4 111.5C3126.1 -41.4999 3175.3 -199.6 3232.7 -343.5C3278.3 -457.9 3335.6 -564.2 3393.9 -642.8C3453.4 -723 3509 -767 3550.9 -767H3553C3583.2 -766 3605.9 -742.3 3620.3 -696.5L3621.4 -696.8C3606.7 -742.9 3583.6 -766.9 3553 -767.9C3510.5 -769.3 3453.7 -725.1 3393 -643.3C3334.6 -564.6 3277.3 -458.2 3231.7 -343.7C3174.3 -199.8 3125 -41.5999 3077.3 111.4C3024.2 282 2969.2 458.3 2902.9 614.9C2831.6 783.4 2745.7 923.3 2654.5 1019.6C2611.2 1065.3 2567.6 1100 2525.3 1122.9C2483.1 1145.7 2442.6 1156.3 2405.3 1154.1C2364.5 1151.8 2328.3 1134.5 2297.6 1102.7C2265.5 1069.3 2240 1020.7 2222 958.1C2208.6 911.8 2198.3 858 2188.4 806C2172.9 724.7 2156.8 640.7 2128.4 584C2105.5 538.3 2073.5 511.3 2036 506.1C1988.8 499.4 1935.3 526.3 1881.6 584C1833.9 634.3 1786.6 707.6 1740.8 778.4C1719.2 811.8 1696.9 846.2 1674.9 877.9C1593.2 995.5 1508.6 1085 1423.4 1143.7C1344.8 1197.9 1264.9 1226.5 1186 1228.8H1175.7C1041.1 1228.8 910 1152.4 795.9 1007.3C705.7 892.6 624.9 746.6 546.7 605.4C435.9 404.9 321.2 197.6 178.3 77.8002C102.7 14.4001 17.5 -25.3999 -74.8999 -40.5999C-163.9 -55.0999 -260.8 -46.9998 -362.9 -16.3998C-461.7 13.3002 -566.4 64.2001 -674.1 135C-779.2 204.1 -887.8 292.7 -997 398.3C-1027.2 427.4 -1057.8 458.2 -1087.7 488.1C-1207.6 608.5 -1331.5 732.9 -1444.7 773.9C-1507.9 796.7 -1568 793.6 -1623.4 764.4C-1774.4 685.1 -1863.7 431.7 -1912.2 233.1C-1959.4 39.2002 -1992 -185 -2023.4 -401.8C-2049.9 -583.2 -2076.9 -770.8 -2112.6 -939.9C-2155.9 -1144.8 -2210.7 -1304.4 -2275.4 -1414.3C-2351.6 -1543.7 -2441.7 -1603.9 -2543.5 -1593.2V-1592.1C-2442.3 -1602.7 -2352.4 -1542.7 -2276.5 -1413.7C-2211.8 -1303.9 -2157.1 -1144.4 -2113.8 -939.6C-2078.1 -770.5 -2050.9 -582.9 -2024.6 -401.5C-1993.1 -184.7 -1960.6 39.6001 -1913.4 233.5C-1864.9 432.4 -1775.2 686.1 -1623.8 765.6C-1568 794.9 -1507.6 798.1 -1444.1 775.1C-1330.7 734 -1206.6 609.5 -1086.7 489C-1056.9 459.3 -1026.2 428.3 -996 399.2C-886.9 293.7 -778.3 205.2 -673.3 136.1C-565.8 65.4003 -461.2 14.5001 -362.5 -15.0999C-260.4 -45.6998 -163.8 -53.7998 -75 -39.2998C17.3 -24.1998 102.3 15.5001 177.8 78.8002C320.6 198.6 435.2 405.6 546.1 605.9C624.3 747.2 705.1 893.2 795.4 1007.9C909.4 1153.4 1041 1229.9 1176 1229.9H1175.9Z" fill="white"/>
<path opacity="0.8" d="M1196.6 1255.4H1205.4C1284.8 1253.4 1364.8 1224.6 1443.9 1169.7C1529.5 1110.4 1614.7 1019.7 1697.1 900.3C1719.2 868.2 1741.7 833.3 1763.4 799.6C1809.4 728.1 1856.9 654.1 1904.5 602.8C1958.1 544.9 2011.2 517.9 2057.9 524.6C2095 529.9 2126.5 557 2149 603C2177 660.3 2192.6 745.3 2207.7 827.5C2217.4 880.1 2227.4 934.6 2240.5 981.5C2258.3 1045.1 2283.6 1094.6 2315.6 1128.4C2346.2 1160.9 2382.5 1178.6 2423.4 1181.1C2460.8 1183.4 2501.4 1172.8 2544 1149.7C2586.6 1126.6 2630.2 1091.4 2673.8 1045.1C2765.4 947.5 2852 805.8 2923.9 635.2C2990.9 476.7 3046.6 298.2 3100.5 125.6C3148.9 -29.2001 3198.8 -189.2 3256.9 -334.8C3303.1 -450.6 3360.8 -558.2 3419.4 -637.8C3479.1 -718.8 3534.8 -763.2 3576.6 -763.2H3578.8C3608.9 -762 3631.3 -738.1 3645.6 -691.9L3646.7 -692.2C3632.3 -738.9 3609.5 -763.1 3579 -764.3H3576.7C3534.5 -764.3 3478.4 -719.8 3418.6 -638.4C3359.9 -558.8 3302.2 -451.1 3256.1 -335.2C3198.1 -189.6 3148.1 -29.5 3099.7 125.3C3045.8 297.9 2990.1 476.3 2923.1 634.8C2851.1 805.4 2764.6 946.9 2672.9 1044.3C2629.4 1090.5 2586 1125.6 2543.4 1148.7C2500.8 1171.8 2460.6 1182.1 2423.4 1179.9C2382.8 1177.5 2346.8 1159.8 2316.4 1127.6C2284.6 1093.9 2259.4 1044.6 2241.6 981.1C2228.4 934.2 2218.4 879.8 2208.8 827.2C2193.7 744.9 2178.1 659.8 2150 602.4C2127.3 556.1 2095.5 528.7 2058.1 523.4C2011 516.6 1957.6 543.8 1903.7 601.9C1856 653.3 1808.5 727.3 1762.5 798.9C1741 832.6 1718.3 867.4 1696.3 899.5C1614 1018.7 1528.9 1109.3 1443.4 1168.6C1364.5 1223.3 1284.6 1252.1 1205.6 1253.9H1196.8C1062.3 1253.9 931.7 1176.3 818.3 1029.1C728.9 912.9 648.9 765 571.6 621.9C461.8 419.2 348.4 209.3 206.2 87.8C131.1 23.5 46.2 -16.8999 -46.1001 -32.2999C-134.9 -47.1 -231.7 -39 -333.8 -8.19995C-432.6 21.7001 -537.4 73.1 -645.2 144.6C-750.4 214.4 -859.3 304.1 -968.8 410.7C-999 440.1 -1029.8 471.3 -1059.5 501.5C-1179.8 623.2 -1304.1 749 -1417.3 790.3C-1480 813.2 -1539.6 810.1 -1594.5 781.1C-1677.7 737.1 -1795.2 607.9 -1881.2 242.3C-1927.4 46 -1958.7 -181.1 -1989 -400.6C-2014.4 -584.3 -2040.5 -774.2 -2075.4 -945.4C-2117.5 -1152.9 -2171.5 -1314.5 -2235.5 -1425.9C-2311.1 -1557 -2400.7 -1618 -2502.3 -1607.3V-1606.2C-2401.2 -1616.8 -2311.9 -1556 -2236.7 -1425.3C-2172.5 -1314 -2118.8 -1152.5 -2076.7 -945.2C-2041.9 -774 -2015.7 -584.1 -1990.4 -400.4C-1960.2 -180.9 -1928.8 46.1 -1882.6 242.5C-1835 444.9 -1746.7 702.4 -1595.4 782.4C-1540.2 811.5 -1480.2 814.7 -1417.2 791.7C-1303.8 750.3 -1179.4 624.4 -1059 502.4C-1029.1 472.2 -998.3 441 -968.3 411.6C-858.7 304.9 -750 215.5 -644.9 145.7C-536.9 74.3 -432.2 22.9 -333.5 -6.90002C-231.5 -37.7001 -135 -45.8 -46.3 -31C45.8 -15.6 130.5 24.6001 205.4 88.8C347.3 210.2 460.7 420 570.3 622.9C647.6 766 727.6 913.9 817.1 1030.2C930.7 1177.7 1061.7 1255.4 1196.6 1255.4Z" fill="white"/>
<path opacity="0.8" d="M1217.2 1281H1224.8C1304 1279.3 1384.3 1250.3 1463.7 1194.9C1549.5 1134.7 1635.1 1043.1 1718.2 922.1C1740.5 889.6 1763 854.4 1784.8 820.3C1831.1 748 1878.9 673.2 1926.7 621.3C1980.5 562.8 2033.6 535.6 2080.2 542.4C2117.2 547.8 2148.5 575.3 2170.7 621.9C2198.4 679.9 2213.6 765.9 2228.2 849.2C2237.6 902.5 2247.1 957.6 2260.2 1005C2277.7 1069.4 2302.6 1119.4 2334.3 1153.7C2364.5 1186.6 2400.7 1204.6 2441.5 1207.3C2478.9 1209.7 2519.4 1199.1 2562.1 1175.8C2604.7 1152.5 2648.5 1116.9 2692.2 1070.1C2784.3 971.6 2871.4 828.2 2944.3 655.5C3011.9 495.2 3068.5 314.6 3123.1 140C3172.2 -16.5999 3222.8 -178.5 3281.5 -325.8C3328.2 -443 3386.3 -552 3445.3 -632.3C3506.4 -715.7 3563.2 -760.7 3605.1 -758.8C3635 -757.5 3657.2 -733.2 3671.2 -686.6L3672.3 -686.9C3658.2 -734.1 3635.6 -758.6 3605.1 -759.9H3602.7C3560.6 -759.9 3504.4 -714.9 3444.4 -632.8C3385.4 -552.3 3327.2 -443.3 3280.5 -326C3221.8 -178.6 3171.1 -16.7 3122.1 139.9C3067.4 314.5 3010.9 495.1 2943.3 655.4C2870.5 828 2783.4 971.2 2691.4 1069.7C2647.8 1116.4 2604.1 1151.9 2561.5 1175.1C2519 1198.3 2478.8 1208.8 2441.6 1206.4C2401.1 1203.8 2365.3 1185.9 2335.2 1153.2C2303.6 1119 2278.8 1069.2 2261.3 1004.9C2248.4 957.5 2238.6 902.3 2229.4 849.1C2214.7 765.8 2199.6 679.6 2171.8 621.5C2149.4 574.5 2117.7 546.9 2080.4 541.4C2033.4 534.5 1980 561.9 1925.9 620.7C1878.1 672.6 1830.2 747.5 1783.9 819.9C1762.1 854 1739.5 889.3 1717.3 921.7C1634.1 1042.5 1548.7 1134.2 1463 1194.1C1383.6 1249.3 1303.7 1278.2 1224.7 1280H1217.1C1082.7 1280 952.5 1201.3 840 1052C751.3 934.3 672.3 784.5 595.8 639.6C487.3 433.8 375.1 221.2 233.9 97.9C159.2 32.8 74.7 -8.29993 -17.3 -23.9999C-105.9 -39.0999 -202.5 -30.9999 -304.6 0.00012207C-403.4 30.1001 -508.2 82 -616.2 154.3C-721.6 224.8 -830.7 315.3 -940.6 423.2C-970.8 452.9 -1001.8 484.5 -1031.7 515C-1152.4 638 -1277.1 765.2 -1390.3 806.9C-1452.6 829.9 -1511.7 826.9 -1566.1 798C-1649.3 753.7 -1766.4 623 -1850.7 251.7C-1895.8 52.9 -1925.9 -176.9 -1955.1 -399.1C-1979.5 -585 -2004.7 -777.4 -2038.6 -950.7C-2079.7 -1160.7 -2132.6 -1324.4 -2196 -1437.2C-2270.6 -1570 -2360 -1631.9 -2461.4 -1621.2V-1620.1C-2360.4 -1630.7 -2271.5 -1569 -2197.1 -1436.7C-2133.4 -1323.7 -2080.5 -1160.1 -2039.5 -950.2C-2005.5 -776.9 -1980.4 -584.6 -1956 -398.7C-1926.9 -176.4 -1896.7 53.4 -1851.6 252.2C-1805 457.4 -1717.6 718.9 -1566.4 799.3C-1511.7 828.3 -1452.3 831.4 -1389.7 808.3C-1276.3 766.5 -1151.6 639.3 -1030.6 516.2C-1000.7 485.7 -969.7 454.2 -939.5 424.4C-829.9 316.6 -720.7 226.2 -615.3 155.7C-507.4 83.4 -402.7 31.5001 -304 1.50012C-202.1 -29.5999 -105.7 -37.7 -17.2 -22.6C74.5 -6.90002 158.9 34.0001 233.4 99.0001C374.4 222.1 486.6 434.5 595 640C671.2 784.9 750.6 934.8 839.2 1052.6C951.9 1202.2 1082.5 1281 1217.2 1281Z" fill="white"/>
<path opacity="0.8" d="M1237.9 1306.6H1244C1323.4 1305.2 1403.7 1276.1 1483.3 1220.1C1569.5 1159.5 1655.7 1066.6 1739.3 944.1C1761.7 911.3 1784.4 875.6 1806.3 841.1C1852.8 767.9 1900.8 692.3 1948.9 639.9C2002.9 580.8 2056 553.3 2102.5 560.2C2139.4 565.7 2170.5 593.6 2192.5 640.8C2219.9 699.5 2234.5 786.7 2248.7 870.9C2257.8 924.9 2267.2 980.6 2279.8 1028.7C2297 1093.9 2321.6 1144.4 2353.1 1179.2C2383.3 1212.6 2419 1230.8 2459.7 1233.6C2497.1 1236.2 2537.6 1225.6 2580.3 1202C2623 1178.5 2666.9 1142.7 2710.8 1095.3C2803.2 995.7 2891 850.5 2964.6 675.9C3032.9 513.7 3090.2 331 3145.7 154.4C3195.4 -4.00012 3246.8 -167.8 3306.1 -316.6C3353.3 -435.3 3411.9 -545.4 3471.2 -626.7C3531.4 -709.3 3587.2 -754.5 3628.8 -754.5H3631.4C3661.2 -753.1 3683.2 -728.5 3696.9 -681.3L3698 -681.6C3684.1 -729.3 3661.8 -754.2 3631.4 -755.6C3589.1 -757.5 3531.9 -712 3470.2 -627.4C3410.9 -546 3352.2 -435.8 3305 -317C3245.7 -167.9 3194.3 -4.1001 3144.6 154.3C3089.2 330.9 3031.8 513.6 2963.6 675.7C2890 850.3 2802.4 995.3 2710 1094.8C2666.2 1142 2622.4 1177.9 2579.8 1201.3C2537.2 1224.7 2497 1235.3 2459.9 1232.7C2419.6 1229.9 2384 1211.8 2354.1 1178.7C2322.8 1144 2298.3 1093.6 2281.2 1028.7C2268.6 980.5 2259.2 924.8 2250.1 871C2235.8 786.7 2221.1 699.5 2193.7 640.6C2171.6 593.1 2140.1 565 2103 559.4C2056.1 552.4 2002.7 580.1 1948.4 639.4C1900.4 691.9 1852.2 767.6 1805.7 840.8C1783.8 875.3 1761.1 910.9 1738.7 943.8C1655.2 1066.2 1569.1 1158.9 1483 1219.5C1403.6 1275.1 1323.3 1304.4 1244.3 1305.8H1238.3C1104.1 1305.8 974.3 1226 862.6 1074.6C774.7 955.4 696.5 803.9 620.9 656.9C513.6 448.7 402.7 233.5 262.4 108.6C187.9 42.5 103.8 1 12 -15.1C-76.3 -30.5 -172.8 -22.5 -274.8 8.90002C-373.6 39.2001 -478.4 91.6 -586.6 164.7C-692.1 236 -801.5 327.4 -911.7 436.4C-941.9 466.4 -973.1 498.3 -1003.1 529.1C-1124.1 653.4 -1249.3 781.9 -1362.5 824C-1424.4 847 -1483 844.1 -1536.8 815.3C-1619.9 770.8 -1736.7 638.6 -1819.2 261.5C-1863.2 60.3 -1892.2 -172.4 -1920.2 -397.3C-1943.6 -585.5 -1967.9 -780.1 -2000.8 -955.6C-2041.1 -1168.3 -2093.1 -1334.1 -2155.9 -1448.3C-2229.8 -1582.7 -2318.4 -1645.5 -2419.9 -1634.9V-1633.8C-2319.1 -1644.4 -2230.7 -1581.9 -2157 -1447.8C-2094.3 -1333.7 -2042.3 -1168.1 -2002.4 -955.6C-1969.5 -780.2 -1945.2 -585.6 -1921.8 -397.4C-1893.8 -172.4 -1864.8 60.2 -1820.8 261.5C-1775.2 469.9 -1689.1 735.3 -1537.8 816.1C-1483.7 845 -1424.7 848 -1362.6 824.9C-1249.2 782.8 -1123.9 654.3 -1002.8 529.7C-972.8 498.9 -941.7 467 -911.4 437C-801.3 328 -692 236.7 -586.3 165.4C-478.3 92.3999 -373.5 40 -274.8 9.59998C-173 -21.7001 -76.7 -29.7001 11.5 -14.3C103 1.59998 187 43.1 260.9 109.1C401.1 233.8 511.9 449 619.2 657.1C694.8 803.8 773 955.6 861.1 1074.9C973.1 1226.7 1103.2 1306.7 1237.9 1306.7V1306.6Z" fill="white"/>
<path opacity="0.8" d="M1258.5 1332.2H1263.3C1342.4 1331.1 1423.1 1301.9 1503 1245.4C1589.6 1184.2 1676.2 1090.2 1760.4 966.1C1783.1 932.7 1805.8 896.8 1827.8 862C1874.6 788 1923 711.6 1971.1 658.6C2025.3 598.9 2078.4 571.1 2124.7 578.2C2161.5 583.8 2192.5 612 2214.2 659.8C2241.2 719.1 2255.4 807.4 2269.2 892.7C2278 947.3 2287.1 1003.8 2299.4 1052.4C2316.2 1118.2 2340.4 1169.4 2371.6 1204.7C2401.5 1238.5 2437.1 1257.1 2477.7 1259.9C2514.9 1262.6 2555.5 1251.9 2598.2 1228.2C2640.9 1204.5 2685.1 1168.2 2729.1 1120.4C2821.9 1019.8 2910.3 873.1 2984.7 696.2C3053.7 532.2 3111.8 347.6 3168 168.7C3218.4 8.5 3270.6 -157.2 3330.5 -307.9C3378.2 -427.9 3437.3 -539.3 3496.8 -621.6C3557.3 -705 3613.1 -750.7 3654.6 -750.7H3657.4C3687.1 -749.2 3708.9 -724.3 3722.3 -676.5L3723.4 -676.8C3709.8 -725 3687.6 -750.2 3657.4 -751.8C3615.2 -754 3557.9 -707.9 3495.9 -622.4C3436.3 -540.1 3377.1 -428.6 3329.4 -308.5C3269.5 -157.7 3217.4 7.8999 3166.9 168.2C3110.7 346.9 3052.6 531.7 2983.6 695.6C2909.3 872.3 2821.1 1018.9 2728.3 1119.5C2684.3 1167.2 2640.4 1203.4 2597.7 1227.1C2555.1 1250.8 2514.8 1261.3 2477.8 1258.6C2437.6 1255.7 2402.2 1237.2 2372.5 1203.7C2341.5 1168.6 2317.3 1117.5 2300.7 1051.9C2288.3 1003.3 2279.2 946.8 2270.5 892.4C2256.7 807.1 2242.5 718.8 2215.4 659.2C2193.5 611 2162.3 582.6 2125 576.9C2078.2 569.8 2024.8 597.7 1970.3 657.7C1922.2 710.7 1873.7 787.2 1826.9 861.2C1804.9 896.1 1782 932.1 1759.5 965.3C1675.3 1089.3 1588.8 1183.2 1502.5 1244.3C1422.8 1300.7 1342.3 1329.8 1263.4 1331H1258.7C1124.5 1331 995.2 1250.1 884.5 1096.6C797.3 975.8 720 822.2 645.2 673.8C539.1 463 429.5 245.1 289.9 118.6C216.2 52 132.4 9.69995 40.8 -6.70007C-47.3 -22.4 -143.6 -14.4 -245.7 17.2C-344.4 47.7999 -449.3 100.6 -557.7 174.4C-663.5 246.4 -773.1 338.7 -883.5 448.9C-913.9 479.2 -945.1 511.5 -975.2 542.7C-1096.9 668.1 -1222.4 798 -1335.8 840.4C-1397.3 863.4 -1455.4 860.6 -1508.6 832C-1591.8 787.3 -1708.1 653.6 -1788.9 270.6C-1831.9 66.9 -1859.7 -168.5 -1886.5 -396.1C-1909.2 -586.6 -1932.2 -783.5 -1964.3 -961.1C-2003.1 -1176.2 -2054.2 -1344 -2116.4 -1459.7C-2189.5 -1595.9 -2277.8 -1659.5 -2379 -1648.9V-1647.8C-2278.3 -1658.4 -2190.4 -1595 -2117.5 -1459.3C-2055.5 -1343.7 -2004.4 -1176.1 -1965.6 -961.1C-1933.6 -783.5 -1910.3 -586.5 -1887.9 -396.1C-1861.1 -168.5 -1833.3 67 -1790.3 270.7C-1745.6 482.3 -1660.7 751.5 -1509.4 832.8C-1455.8 861.6 -1397.4 864.4 -1335.5 841.3C-1222.1 798.8 -1096.4 668.8 -974.9 543.1C-944.7 511.9 -913.6 479.7 -883.2 449.4C-772.6 339.3 -663 247 -557.2 175.1C-449 101.4 -344.1 48.6 -245.5 18C-143.7 -13.5 -47.5 -21.5 40.3999 -5.80005C131.7 10.5 215.3 52.5999 289 119.4C428.3 245.8 537.9 463.7 644 674.3C718.8 822.9 796.1 976.5 883.4 1097.4C994.4 1251.2 1124 1332.3 1258.6 1332.3L1258.5 1332.2Z" fill="white"/>
</g>
</g>
</g>
</g>
<defs>
<linearGradient id="paint0_linear_230_111" x1="2281" y1="482" x2="668.064" y2="-542.426" gradientUnits="userSpaceOnUse">
<stop stop-color="#87D2A8"/>
<stop offset="1" stop-color="#0C5F30"/>
</linearGradient>
<clipPath id="clip0_230_111">
<rect width="1918" height="1022" fill="white"/>
</clipPath>
</defs>
</svg>
